STARTFONT 2.1
COMMENT
COMMENT Converted from OpenType font "montserrat.ttf" by "otf2bdf 3.0".
COMMENT
FONT -FreeType-Montserrat Thin-Medium-R-Normal--17-120-100-100-P-84-ISO10646-1
SIZE 12 100 100
FONTBOUNDINGBOX 27 21 -2 -4
STARTPROPERTIES 19
FOUNDRY "FreeType"
FAMILY_NAME "Montserrat Thin"
WEIGHT_NAME "Medium"
SLANT "R"
SETWIDTH_NAME "Normal"
ADD_STYLE_NAME ""
PIXEL_SIZE 17
POINT_SIZE 120
RESOLUTION_X 100
RESOLUTION_Y 100
SPACING "P"
AVERAGE_WIDTH 84
CHARSET_REGISTRY "ISO10646"
CHARSET_ENCODING "1"
FONT_ASCENT 16
FONT_DESCENT 4
COPYRIGHT "Copyright 2011 The Montserrat Project Authors (https://github.com/JulietaUla/Montserrat)"
_OTF_FONTFILE "montserrat.ttf"
_OTF_PSNAME "Montserrat-Thin"
ENDPROPERTIES
CHARS 969
STARTCHAR 0000
ENCODING 0
SWIDTH 0 0
DWIDTH 0 0
BBX 0 0 0 0
BITMAP
ENDCHAR
STARTCHAR 000D
ENCODING 13
SWIDTH 240 0
DWIDTH 4 0
BBX 0 0 0 0
BITMAP
ENDCHAR
STARTCHAR 0020
ENCODING 32
SWIDTH 240 0
DWIDTH 4 0
BBX 0 0 0 0
BITMAP
ENDCHAR
STARTCHAR 0021
ENCODING 33
SWIDTH 240 0
DWIDTH 4 0
BBX 1 7 2 1
BITMAP
80
80
80
80
80
80
80
ENDCHAR
STARTCHAR 0022
ENCODING 34
SWIDTH 300 0
DWIDTH 5 0
BBX 3 5 1 7
BITMAP
80
A0
A0
A0
80
ENDCHAR
STARTCHAR 0023
ENCODING 35
SWIDTH 660 0
DWIDTH 11 0
BBX 9 11 1 0
BITMAP
0100
2100
2200
2200
7F80
2200
2200
2200
FF80
4200
4400
ENDCHAR
STARTCHAR 0024
ENCODING 36
SWIDTH 600 0
DWIDTH 10 0
BBX 8 14 1 -1
BITMAP
10
3C
D2
90
90
90
50
3C
13
11
11
91
52
3C
ENDCHAR
STARTCHAR 0025
ENCODING 37
SWIDTH 780 0
DWIDTH 13 0
BBX 11 12 1 0
BITMAP
6040
9080
8900
8900
8A00
9400
65E0
0A20
1220
1220
2220
01E0
ENDCHAR
STARTCHAR 0026
ENCODING 38
SWIDTH 600 0
DWIDTH 10 0
BBX 9 12 1 0
BITMAP
1800
6400
4400
4400
2800
1000
7000
8880
8500
8300
8300
7C00
ENDCHAR
STARTCHAR 0027
ENCODING 39
SWIDTH 180 0
DWIDTH 3 0
BBX 1 5 1 7
BITMAP
80
80
80
80
80
ENDCHAR
STARTCHAR 0028
ENCODING 40
SWIDTH 300 0
DWIDTH 5 0
BBX 2 15 2 -3
BITMAP
40
80
80
80
80
80
80
80
80
80
80
80
80
80
40
ENDCHAR
STARTCHAR 0029
ENCODING 41
SWIDTH 300 0
DWIDTH 5 0
BBX 2 15 1 -3
BITMAP
80
80
80
40
40
40
40
40
40
40
40
40
80
80
80
ENDCHAR
STARTCHAR 002A
ENCODING 42
SWIDTH 300 0
DWIDTH 5 0
BBX 5 3 0 8
BITMAP
68
30
F8
ENDCHAR
STARTCHAR 002B
ENCODING 43
SWIDTH 540 0
DWIDTH 9 0
BBX 5 7 2 2
BITMAP
20
20
20
F8
20
20
20
ENDCHAR
STARTCHAR 002C
ENCODING 44
SWIDTH 180 0
DWIDTH 3 0
BBX 1 3 1 -2
BITMAP
80
80
80
ENDCHAR
STARTCHAR 002D
ENCODING 45
SWIDTH 360 0
DWIDTH 6 0
BBX 4 1 1 4
BITMAP
F0
ENDCHAR
STARTCHAR 002E
ENCODING 46
SWIDTH 180 0
DWIDTH 3 0
BBX 1 1 1 0
BITMAP
80
ENDCHAR
STARTCHAR 002F
ENCODING 47
SWIDTH 300 0
DWIDTH 5 0
BBX 5 14 0 -1
BITMAP
08
08
10
10
10
20
20
20
40
40
80
80
80
80
ENDCHAR
STARTCHAR 0030
ENCODING 48
SWIDTH 600 0
DWIDTH 10 0
BBX 9 12 1 0
BITMAP
1C00
6200
8100
8100
8080
8080
8080
8080
8080
8100
4100
3E00
ENDCHAR
STARTCHAR 0031
ENCODING 49
SWIDTH 300 0
DWIDTH 5 0
BBX 3 11 0 0
BITMAP
E0
20
20
20
20
20
20
20
20
20
20
ENDCHAR
STARTCHAR 0032
ENCODING 50
SWIDTH 540 0
DWIDTH 9 0
BBX 8 12 0 0
BITMAP
1C
E2
01
01
01
02
04
08
10
20
40
FF
ENDCHAR
STARTCHAR 0033
ENCODING 51
SWIDTH 540 0
DWIDTH 9 0
BBX 8 12 0 0
BITMAP
7F
02
04
04
08
10
0E
01
01
01
81
7E
ENDCHAR
STARTCHAR 0034
ENCODING 52
SWIDTH 600 0
DWIDTH 10 0
BBX 9 11 1 0
BITMAP
0200
0400
0800
1000
2000
4000
4200
8200
FF80
0200
0200
ENDCHAR
STARTCHAR 0035
ENCODING 53
SWIDTH 540 0
DWIDTH 9 0
BBX 7 12 1 0
BITMAP
7E
80
80
80
80
F0
0E
02
02
02
02
7C
ENDCHAR
STARTCHAR 0036
ENCODING 54
SWIDTH 540 0
DWIDTH 9 0
BBX 8 12 1 0
BITMAP
1E
60
80
80
80
9C
E3
81
81
81
41
3E
ENDCHAR
STARTCHAR 0037
ENCODING 55
SWIDTH 540 0
DWIDTH 9 0
BBX 8 12 1 0
BITMAP
FF
82
02
04
04
08
08
08
10
10
20
20
ENDCHAR
STARTCHAR 0038
ENCODING 56
SWIDTH 600 0
DWIDTH 10 0
BBX 8 12 1 0
BITMAP
1C
E2
81
81
81
42
7E
81
81
81
81
7E
ENDCHAR
STARTCHAR 0039
ENCODING 57
SWIDTH 540 0
DWIDTH 9 0
BBX 8 12 1 0
BITMAP
38
C4
82
81
81
83
45
39
01
02
02
FC
ENDCHAR
STARTCHAR 003A
ENCODING 58
SWIDTH 180 0
DWIDTH 3 0
BBX 1 9 1 0
BITMAP
80
00
00
00
00
00
00
00
80
ENDCHAR
STARTCHAR 003B
ENCODING 59
SWIDTH 180 0
DWIDTH 3 0
BBX 1 11 1 -2
BITMAP
80
00
00
00
00
00
00
00
80
80
80
ENDCHAR
STARTCHAR 003C
ENCODING 60
SWIDTH 540 0
DWIDTH 9 0
BBX 7 6 1 3
BITMAP
02
0C
70
80
70
0C
ENDCHAR
STARTCHAR 003D
ENCODING 61
SWIDTH 540 0
DWIDTH 9 0
BBX 7 4 1 4
BITMAP
FE
00
00
7C
ENDCHAR
STARTCHAR 003E
ENCODING 62
SWIDTH 540 0
DWIDTH 9 0
BBX 7 6 1 3
BITMAP
80
70
0C
02
1C
60
ENDCHAR
STARTCHAR 003F
ENCODING 63
SWIDTH 540 0
DWIDTH 9 0
BBX 8 12 0 0
BITMAP
3C
C2
01
01
02
02
04
08
08
00
00
08
ENDCHAR
STARTCHAR 0040
ENCODING 64
SWIDTH 1020 0
DWIDTH 17 0
BBX 15 15 1 -3
BITMAP
03C0
1C30
6008
4394
8C52
9032
9012
9012
9012
9012
8832
8454
4388
2000
1FE0
ENDCHAR
STARTCHAR 0041
ENCODING 65
SWIDTH 660 0
DWIDTH 11 0
BBX 11 12 0 0
BITMAP
0400
0C00
0A00
1200
1100
1100
2080
2080
5F40
4040
8020
8000
ENDCHAR
STARTCHAR 0042
ENCODING 66
SWIDTH 720 0
DWIDTH 12 0
BBX 9 12 2 0
BITMAP
FC00
8300
8080
8080
8080
8100
FF00
8080
8080
8080
8080
FF00
ENDCHAR
STARTCHAR 0043
ENCODING 67
SWIDTH 660 0
DWIDTH 11 0
BBX 10 12 1 0
BITMAP
0F00
30C0
4000
8000
8000
8000
8000
8000
8000
8000
4000
3F80
ENDCHAR
STARTCHAR 0044
ENCODING 68
SWIDTH 780 0
DWIDTH 13 0
BBX 11 12 2 0
BITMAP
FC00
8380
8040
8040
8020
8020
8020
8020
8040
8040
8080
FF00
ENDCHAR
STARTCHAR 0045
ENCODING 69
SWIDTH 660 0
DWIDTH 11 0
BBX 8 12 2 0
BITMAP
FF
80
80
80
80
80
FC
80
80
80
80
FE
ENDCHAR
STARTCHAR 0046
ENCODING 70
SWIDTH 600 0
DWIDTH 10 0
BBX 8 12 2 0
BITMAP
FF
80
80
80
80
80
FE
80
80
80
80
80
ENDCHAR
STARTCHAR 0047
ENCODING 71
SWIDTH 720 0
DWIDTH 12 0
BBX 10 12 1 0
BITMAP
0F00
30C0
4000
8000
8000
8000
8000
8040
8040
8040
4000
3F80
ENDCHAR
STARTCHAR 0048
ENCODING 72
SWIDTH 780 0
DWIDTH 13 0
BBX 9 12 2 0
BITMAP
8000
8080
8080
8080
8080
8080
FF80
8080
8080
8080
8080
8000
ENDCHAR
STARTCHAR 0049
ENCODING 73
SWIDTH 240 0
DWIDTH 4 0
BBX 1 12 2 0
BITMAP
80
80
80
80
80
80
80
80
80
80
80
80
ENDCHAR
STARTCHAR 004A
ENCODING 74
SWIDTH 420 0
DWIDTH 7 0
BBX 6 12 0 0
BITMAP
7C
04
04
04
04
04
04
04
04
04
84
78
ENDCHAR
STARTCHAR 004B
ENCODING 75
SWIDTH 660 0
DWIDTH 11 0
BBX 9 12 2 0
BITMAP
8080
8100
8200
8400
8800
9000
B000
C800
8400
8200
8100
8080
ENDCHAR
STARTCHAR 004C
ENCODING 76
SWIDTH 540 0
DWIDTH 9 0
BBX 7 12 2 0
BITMAP
80
80
80
80
80
80
80
80
80
80
80
FE
ENDCHAR
STARTCHAR 004D
ENCODING 77
SWIDTH 900 0
DWIDTH 15 0
BBX 12 12 2 0
BITMAP
8010
8010
C030
C050
A090
A090
9110
8910
8A10
8610
8010
8010
ENDCHAR
STARTCHAR 004E
ENCODING 78
SWIDTH 780 0
DWIDTH 13 0
BBX 9 12 2 0
BITMAP
8000
8080
C080
A080
9080
8880
8880
8480
8280
8180
8180
8080
ENDCHAR
STARTCHAR 004F
ENCODING 79
SWIDTH 780 0
DWIDTH 13 0
BBX 12 12 1 0
BITMAP
0F00
30C0
4020
8020
8010
8010
8010
8010
8010
8020
4040
3F80
ENDCHAR
STARTCHAR 0050
ENCODING 80
SWIDTH 660 0
DWIDTH 11 0
BBX 9 12 2 0
BITMAP
FC00
8300
8100
8080
8080
8080
8100
8200
FC00
8000
8000
8000
ENDCHAR
STARTCHAR 0051
ENCODING 81
SWIDTH 780 0
DWIDTH 13 0
BBX 12 14 1 -2
BITMAP
0F00
30C0
4020
8020
8010
8010
8010
8010
8010
8020
4040
3080
0F00
01F0
ENDCHAR
STARTCHAR 0052
ENCODING 82
SWIDTH 660 0
DWIDTH 11 0
BBX 9 12 2 0
BITMAP
FC00
8300
8100
8080
8080
8080
8100
8200
FC00
8200
8100
8080
ENDCHAR
STARTCHAR 0053
ENCODING 83
SWIDTH 600 0
DWIDTH 10 0
BBX 8 12 1 0
BITMAP
3C
C2
80
80
80
40
3C
03
01
01
81
7E
ENDCHAR
STARTCHAR 0054
ENCODING 84
SWIDTH 540 0
DWIDTH 9 0
BBX 9 12 0 0
BITMAP
FF80
0800
0800
0800
0800
0800
0800
0800
0800
0800
0800
0800
ENDCHAR
STARTCHAR 0055
ENCODING 85
SWIDTH 780 0
DWIDTH 13 0
BBX 9 11 2 1
BITMAP
8080
8080
8080
8080
8080
8080
8080
8080
8080
8100
7E00
ENDCHAR
STARTCHAR 0056
ENCODING 86
SWIDTH 660 0
DWIDTH 11 0
BBX 11 12 0 0
BITMAP
8000
8060
4040
4040
4080
2080
2100
1100
1200
0A00
0C00
0400
ENDCHAR
STARTCHAR 0057
ENCODING 87
SWIDTH 1080 0
DWIDTH 18 0
BBX 16 11 1 1
BITMAP
8181
8281
8282
4242
4444
4444
2424
2828
2828
1818
1010
ENDCHAR
STARTCHAR 0058
ENCODING 88
SWIDTH 600 0
DWIDTH 10 0
BBX 9 11 1 1
BITMAP
8100
4200
2400
2800
1800
0800
3400
4400
4200
8100
0080
ENDCHAR
STARTCHAR 0059
ENCODING 89
SWIDTH 600 0
DWIDTH 10 0
BBX 10 11 0 0
BITMAP
8000
80C0
4080
2100
2200
1200
1400
0C00
0800
0800
0800
ENDCHAR
STARTCHAR 005A
ENCODING 90
SWIDTH 600 0
DWIDTH 10 0
BBX 9 12 1 0
BITMAP
FF80
0100
0200
0200
0400
0800
1000
1000
2000
4000
8000
FF00
ENDCHAR
STARTCHAR 005B
ENCODING 91
SWIDTH 240 0
DWIDTH 4 0
BBX 1 15 2 -3
BITMAP
80
80
80
80
80
80
80
80
80
80
80
80
80
80
80
ENDCHAR
STARTCHAR 005C
ENCODING 92
SWIDTH 300 0
DWIDTH 5 0
BBX 6 14 -1 -1
BITMAP
80
40
40
40
20
20
20
10
10
08
08
08
04
04
ENDCHAR
STARTCHAR 005D
ENCODING 93
SWIDTH 240 0
DWIDTH 4 0
BBX 2 15 1 -3
BITMAP
C0
40
40
40
40
40
40
40
40
40
40
40
40
40
C0
ENDCHAR
STARTCHAR 005E
ENCODING 94
SWIDTH 540 0
DWIDTH 9 0
BBX 6 7 2 2
BITMAP
20
50
50
90
88
88
04
ENDCHAR
STARTCHAR 005F
ENCODING 95
SWIDTH 480 0
DWIDTH 8 0
BBX 6 1 1 -1
BITMAP
FC
ENDCHAR
STARTCHAR 0060
ENCODING 96
SWIDTH 600 0
DWIDTH 10 0
BBX 2 2 3 10
BITMAP
80
40
ENDCHAR
STARTCHAR 0061
ENCODING 97
SWIDTH 540 0
DWIDTH 9 0
BBX 7 9 1 0
BITMAP
38
C4
02
02
3E
C2
82
82
7E
ENDCHAR
STARTCHAR 0062
ENCODING 98
SWIDTH 660 0
DWIDTH 11 0
BBX 8 11 2 1
BITMAP
80
80
98
E6
81
81
81
81
81
82
7C
ENDCHAR
STARTCHAR 0063
ENCODING 99
SWIDTH 540 0
DWIDTH 9 0
BBX 6 9 1 0
BITMAP
18
64
80
80
80
80
80
80
7C
ENDCHAR
STARTCHAR 0064
ENCODING 100
SWIDTH 660 0
DWIDTH 11 0
BBX 8 11 1 1
BITMAP
01
01
19
67
81
81
81
81
81
83
7C
ENDCHAR
STARTCHAR 0065
ENCODING 101
SWIDTH 540 0
DWIDTH 9 0
BBX 8 9 1 0
BITMAP
18
66
82
81
FF
80
80
80
7C
ENDCHAR
STARTCHAR 0066
ENCODING 102
SWIDTH 300 0
DWIDTH 5 0
BBX 5 11 0 0
BITMAP
38
40
40
F8
40
40
40
40
40
40
40
ENDCHAR
STARTCHAR 0067
ENCODING 103
SWIDTH 660 0
DWIDTH 11 0
BBX 8 12 1 -3
BITMAP
18
67
81
81
81
81
81
43
3D
01
01
7E
ENDCHAR
STARTCHAR 0068
ENCODING 104
SWIDTH 660 0
DWIDTH 11 0
BBX 7 10 2 1
BITMAP
80
80
98
E6
82
82
82
82
82
82
ENDCHAR
STARTCHAR 0069
ENCODING 105
SWIDTH 240 0
DWIDTH 4 0
BBX 1 11 2 0
BITMAP
80
00
00
00
80
80
80
80
80
80
80
ENDCHAR
STARTCHAR 006A
ENCODING 106
SWIDTH 240 0
DWIDTH 4 0
BBX 3 15 0 -3
BITMAP
20
00
00
00
40
40
40
40
40
40
40
40
40
40
C0
ENDCHAR
STARTCHAR 006B
ENCODING 107
SWIDTH 540 0
DWIDTH 9 0
BBX 7 11 2 1
BITMAP
80
80
82
84
98
A0
D0
90
88
84
02
ENDCHAR
STARTCHAR 006C
ENCODING 108
SWIDTH 240 0
DWIDTH 4 0
BBX 1 10 2 1
BITMAP
80
80
80
80
80
80
80
80
80
80
ENDCHAR
STARTCHAR 006D
ENCODING 109
SWIDTH 1020 0
DWIDTH 17 0
BBX 14 8 2 0
BITMAP
1870
E588
8204
8204
8204
8204
8204
8204
ENDCHAR
STARTCHAR 006E
ENCODING 110
SWIDTH 660 0
DWIDTH 11 0
BBX 7 8 2 0
BITMAP
18
E6
82
82
82
82
82
82
ENDCHAR
STARTCHAR 006F
ENCODING 111
SWIDTH 600 0
DWIDTH 10 0
BBX 8 9 1 0
BITMAP
18
66
81
81
81
81
81
82
7C
ENDCHAR
STARTCHAR 0070
ENCODING 112
SWIDTH 660 0
DWIDTH 11 0
BBX 8 11 2 -3
BITMAP
18
E6
81
81
81
81
81
82
E4
98
80
ENDCHAR
STARTCHAR 0071
ENCODING 113
SWIDTH 660 0
DWIDTH 11 0
BBX 8 11 1 -3
BITMAP
18
67
81
81
81
81
81
83
65
19
01
ENDCHAR
STARTCHAR 0072
ENCODING 114
SWIDTH 360 0
DWIDTH 6 0
BBX 4 8 2 0
BITMAP
30
C0
80
80
80
80
80
80
ENDCHAR
STARTCHAR 0073
ENCODING 115
SWIDTH 420 0
DWIDTH 7 0
BBX 6 9 1 0
BITMAP
30
C8
80
80
60
1C
04
04
F8
ENDCHAR
STARTCHAR 0074
ENCODING 116
SWIDTH 360 0
DWIDTH 6 0
BBX 6 10 0 1
BITMAP
40
F8
40
40
40
40
40
40
40
3C
ENDCHAR
STARTCHAR 0075
ENCODING 117
SWIDTH 660 0
DWIDTH 11 0
BBX 7 8 2 1
BITMAP
82
82
82
82
82
82
86
78
ENDCHAR
STARTCHAR 0076
ENCODING 118
SWIDTH 480 0
DWIDTH 8 0
BBX 8 9 0 0
BITMAP
80
81
82
42
44
24
24
18
08
ENDCHAR
STARTCHAR 0077
ENCODING 119
SWIDTH 780 0
DWIDTH 13 0
BBX 14 9 0 0
BITMAP
8004
8308
8508
4508
4490
4890
2860
3060
1020
ENDCHAR
STARTCHAR 0078
ENCODING 120
SWIDTH 480 0
DWIDTH 8 0
BBX 6 7 1 1
BITMAP
84
48
30
20
30
48
84
ENDCHAR
STARTCHAR 0079
ENCODING 121
SWIDTH 480 0
DWIDTH 8 0
BBX 9 12 -1 -3
BITMAP
4000
4080
4100
2100
2200
1200
1200
0C00
0400
0800
0800
F000
ENDCHAR
STARTCHAR 007A
ENCODING 122
SWIDTH 480 0
DWIDTH 8 0
BBX 6 9 1 0
BITMAP
FC
04
08
10
20
20
40
80
F8
ENDCHAR
STARTCHAR 007B
ENCODING 123
SWIDTH 300 0
DWIDTH 5 0
BBX 3 15 1 -3
BITMAP
20
40
40
40
40
40
40
80
40
40
40
40
40
40
20
ENDCHAR
STARTCHAR 007C
ENCODING 124
SWIDTH 240 0
DWIDTH 4 0
BBX 1 15 2 -3
BITMAP
80
80
80
80
80
80
80
80
80
80
80
80
80
80
80
ENDCHAR
STARTCHAR 007D
ENCODING 125
SWIDTH 300 0
DWIDTH 5 0
BBX 3 15 1 -3
BITMAP
80
40
40
40
40
40
40
20
40
40
40
40
40
40
80
ENDCHAR
STARTCHAR 007E
ENCODING 126
SWIDTH 540 0
DWIDTH 9 0
BBX 7 2 1 5
BITMAP
E0
9E
ENDCHAR
STARTCHAR 00A0
ENCODING 160
SWIDTH 240 0
DWIDTH 4 0
BBX 0 0 0 0
BITMAP
ENDCHAR
STARTCHAR 00A1
ENCODING 161
SWIDTH 240 0
DWIDTH 4 0
BBX 1 6 2 2
BITMAP
80
80
80
80
80
80
ENDCHAR
STARTCHAR 00A2
ENCODING 162
SWIDTH 540 0
DWIDTH 9 0
BBX 6 11 1 -1
BITMAP
10
18
74
90
90
90
90
90
90
74
18
ENDCHAR
STARTCHAR 00A3
ENCODING 163
SWIDTH 600 0
DWIDTH 10 0
BBX 8 12 1 0
BITMAP
0E
31
40
40
40
40
FC
40
40
40
40
FF
ENDCHAR
STARTCHAR 00A4
ENCODING 164
SWIDTH 660 0
DWIDTH 11 0
BBX 10 10 1 0
BITMAP
9E00
6100
8080
8080
8040
8080
8080
4080
2380
1C40
ENDCHAR
STARTCHAR 00A5
ENCODING 165
SWIDTH 660 0
DWIDTH 11 0
BBX 11 12 0 0
BITMAP
8020
8040
4080
2080
1100
0A00
0C00
3780
0400
3F80
0400
0400
ENDCHAR
STARTCHAR 00A6
ENCODING 166
SWIDTH 240 0
DWIDTH 4 0
BBX 1 15 2 -3
BITMAP
80
80
80
80
80
00
00
00
00
80
80
80
80
80
80
ENDCHAR
STARTCHAR 00A7
ENCODING 167
SWIDTH 420 0
DWIDTH 7 0
BBX 6 14 1 -2
BITMAP
38
C0
80
80
40
B8
84
84
84
78
04
04
08
70
ENDCHAR
STARTCHAR 00A8
ENCODING 168
SWIDTH 600 0
DWIDTH 10 0
BBX 4 1 3 11
BITMAP
90
ENDCHAR
STARTCHAR 00A9
ENCODING 169
SWIDTH 780 0
DWIDTH 13 0
BBX 12 12 1 0
BITMAP
0F00
30C0
4020
9F20
A010
A010
A010
A010
9020
8F20
4040
3F80
ENDCHAR
STARTCHAR 00AA
ENCODING 170
SWIDTH 360 0
DWIDTH 6 0
BBX 4 5 1 7
BITMAP
70
10
F0
90
E0
ENDCHAR
STARTCHAR 00AB
ENCODING 171
SWIDTH 420 0
DWIDTH 7 0
BBX 5 6 1 1
BITMAP
08
D0
A0
90
50
28
ENDCHAR
STARTCHAR 00AC
ENCODING 172
SWIDTH 540 0
DWIDTH 9 0
BBX 6 2 2 3
BITMAP
F8
04
ENDCHAR
STARTCHAR 00AD
ENCODING 173
SWIDTH 360 0
DWIDTH 6 0
BBX 4 1 1 4
BITMAP
F0
ENDCHAR
STARTCHAR 00AE
ENCODING 174
SWIDTH 780 0
DWIDTH 13 0
BBX 12 12 1 0
BITMAP
0F00
30C0
4020
9F20
9090
9090
9110
9E10
9120
80A0
4040
3F80
ENDCHAR
STARTCHAR 00AF
ENCODING 175
SWIDTH 600 0
DWIDTH 10 0
BBX 2 1 4 11
BITMAP
C0
ENDCHAR
STARTCHAR 00B0
ENCODING 176
SWIDTH 420 0
DWIDTH 7 0
BBX 5 5 1 7
BITMAP
70
88
88
88
F0
ENDCHAR
STARTCHAR 00B1
ENCODING 177
SWIDTH 540 0
DWIDTH 9 0
BBX 5 9 2 0
BITMAP
20
20
20
F8
20
20
20
00
F8
ENDCHAR
STARTCHAR 00B2
ENCODING 178
SWIDTH 420 0
DWIDTH 7 0
BBX 5 7 1 5
BITMAP
70
08
10
20
40
80
F8
ENDCHAR
STARTCHAR 00B3
ENCODING 179
SWIDTH 420 0
DWIDTH 7 0
BBX 4 7 2 5
BITMAP
E0
60
80
70
10
10
E0
ENDCHAR
STARTCHAR 00B4
ENCODING 180
SWIDTH 600 0
DWIDTH 10 0
BBX 2 2 5 10
BITMAP
40
80
ENDCHAR
STARTCHAR 00B5
ENCODING 181
SWIDTH 660 0
DWIDTH 11 0
BBX 7 10 2 -2
BITMAP
82
82
82
82
82
82
82
C4
B8
80
ENDCHAR
STARTCHAR 00B6
ENCODING 182
SWIDTH 600 0
DWIDTH 10 0
BBX 8 14 0 -2
BITMAP
7F
71
F1
71
31
11
11
11
11
11
11
11
11
01
ENDCHAR
STARTCHAR 00B7
ENCODING 183
SWIDTH 180 0
DWIDTH 3 0
BBX 1 1 1 4
BITMAP
80
ENDCHAR
STARTCHAR 00B8
ENCODING 184
SWIDTH 600 0
DWIDTH 10 0
BBX 2 3 4 -3
BITMAP
40
40
80
ENDCHAR
STARTCHAR 00B9
ENCODING 185
SWIDTH 420 0
DWIDTH 7 0
BBX 5 7 1 5
BITMAP
20
20
20
20
20
20
F8
ENDCHAR
STARTCHAR 00BA
ENCODING 186
SWIDTH 360 0
DWIDTH 6 0
BBX 5 5 1 7
BITMAP
F8
88
88
88
70
ENDCHAR
STARTCHAR 00BB
ENCODING 187
SWIDTH 420 0
DWIDTH 7 0
BBX 5 6 1 1
BITMAP
80
50
48
50
90
20
ENDCHAR
STARTCHAR 00BC
ENCODING 188
SWIDTH 1020 0
DWIDTH 17 0
BBX 13 12 2 0
BITMAP
C020
4040
4080
4080
4100
4200
0420
E420
0848
1088
1078
0008
ENDCHAR
STARTCHAR 00BD
ENCODING 189
SWIDTH 1020 0
DWIDTH 17 0
BBX 14 12 2 0
BITMAP
C020
4040
4080
4080
4100
4278
0404
E408
0808
1010
1020
00F8
ENDCHAR
STARTCHAR 00BE
ENCODING 190
SWIDTH 1020 0
DWIDTH 17 0
BBX 14 12 1 0
BITMAP
F810
1020
2040
2040
1880
0900
0A10
7210
0424
0844
083C
0004
ENDCHAR
STARTCHAR 00BF
ENCODING 191
SWIDTH 540 0
DWIDTH 9 0
BBX 8 7 1 2
BITMAP
30
40
80
80
80
41
3E
ENDCHAR
STARTCHAR 00C0
ENCODING 192
SWIDTH 660 0
DWIDTH 11 0
BBX 11 14 0 0
BITMAP
0800
0400
0400
0C00
0A00
1200
1100
1100
2080
2080
5F40
4040
8020
8000
ENDCHAR
STARTCHAR 00C1
ENCODING 193
SWIDTH 660 0
DWIDTH 11 0
BBX 11 14 0 0
BITMAP
0200
0000
0400
0C00
0A00
1200
1100
1100
2080
2080
5F40
4040
8020
8000
ENDCHAR
STARTCHAR 00C2
ENCODING 194
SWIDTH 660 0
DWIDTH 11 0
BBX 11 14 0 0
BITMAP
0E00
0000
0400
0C00
0A00
1200
1100
1100
2080
2080
5F40
4040
8020
8000
ENDCHAR
STARTCHAR 00C3
ENCODING 195
SWIDTH 660 0
DWIDTH 11 0
BBX 11 14 0 0
BITMAP
0D00
0200
0400
0C00
0A00
1200
1100
1100
2080
2080
5F40
4040
8020
8000
ENDCHAR
STARTCHAR 00C4
ENCODING 196
SWIDTH 660 0
DWIDTH 11 0
BBX 11 14 0 0
BITMAP
0900
0000
0400
0C00
0A00
1200
1100
1100
2080
2080
5F40
4040
8020
8000
ENDCHAR
STARTCHAR 00C5
ENCODING 197
SWIDTH 660 0
DWIDTH 11 0
BBX 11 16 0 0
BITMAP
0E00
0A00
0A00
0400
0400
0C00
0A00
1200
1100
1100
2080
2080
5F40
4040
8020
8000
ENDCHAR
STARTCHAR 00C6
ENCODING 198
SWIDTH 960 0
DWIDTH 16 0
BBX 15 12 0 0
BITMAP
01FE
0300
0300
0500
0900
0900
117C
2100
2F00
4100
8100
80FE
ENDCHAR
STARTCHAR 00C7
ENCODING 199
SWIDTH 660 0
DWIDTH 11 0
BBX 10 16 1 -4
BITMAP
0F00
30C0
4000
8000
8000
8000
8000
8000
8000
8000
4000
3080
0F00
0200
0200
0400
ENDCHAR
STARTCHAR 00C8
ENCODING 200
SWIDTH 660 0
DWIDTH 11 0
BBX 8 14 2 0
BITMAP
10
00
FF
80
80
80
80
80
FC
80
80
80
80
FE
ENDCHAR
STARTCHAR 00C9
ENCODING 201
SWIDTH 660 0
DWIDTH 11 0
BBX 8 14 2 0
BITMAP
08
00
FF
80
80
80
80
80
FC
80
80
80
80
FE
ENDCHAR
STARTCHAR 00CA
ENCODING 202
SWIDTH 660 0
DWIDTH 11 0
BBX 8 14 2 0
BITMAP
38
00
FF
80
80
80
80
80
FC
80
80
80
80
FE
ENDCHAR
STARTCHAR 00CB
ENCODING 203
SWIDTH 660 0
DWIDTH 11 0
BBX 8 14 2 0
BITMAP
24
00
FF
80
80
80
80
80
FC
80
80
80
80
FE
ENDCHAR
STARTCHAR 00CC
ENCODING 204
SWIDTH 240 0
DWIDTH 4 0
BBX 2 14 1 0
BITMAP
80
40
40
40
40
40
40
40
40
40
40
40
40
40
ENDCHAR
STARTCHAR 00CD
ENCODING 205
SWIDTH 240 0
DWIDTH 4 0
BBX 2 14 2 0
BITMAP
C0
00
80
80
80
80
80
80
80
80
80
80
80
80
ENDCHAR
STARTCHAR 00CE
ENCODING 206
SWIDTH 240 0
DWIDTH 4 0
BBX 3 14 1 0
BITMAP
E0
00
40
40
40
40
40
40
40
40
40
40
40
40
ENDCHAR
STARTCHAR 00CF
ENCODING 207
SWIDTH 240 0
DWIDTH 4 0
BBX 2 14 2 0
BITMAP
40
00
80
80
80
80
80
80
80
80
80
80
80
80
ENDCHAR
STARTCHAR 00D0
ENCODING 208
SWIDTH 780 0
DWIDTH 13 0
BBX 12 12 1 0
BITMAP
7E00
41C0
4020
4020
4010
4010
F010
4010
4020
4020
4040
7F80
ENDCHAR
STARTCHAR 00D1
ENCODING 209
SWIDTH 780 0
DWIDTH 13 0
BBX 9 14 2 0
BITMAP
0800
0400
8000
8080
C080
A080
9080
8880
8880
8480
8280
8180
8180
8080
ENDCHAR
STARTCHAR 00D2
ENCODING 210
SWIDTH 780 0
DWIDTH 13 0
BBX 12 14 1 0
BITMAP
0400
0000
0F00
30C0
4020
8020
8010
8010
8010
8010
8010
8020
4040
3F80
ENDCHAR
STARTCHAR 00D3
ENCODING 211
SWIDTH 780 0
DWIDTH 13 0
BBX 12 14 1 0
BITMAP
0200
0000
0F00
30C0
4020
8020
8010
8010
8010
8010
8010
8020
4040
3F80
ENDCHAR
STARTCHAR 00D4
ENCODING 212
SWIDTH 780 0
DWIDTH 13 0
BBX 12 14 1 0
BITMAP
0E00
0000
0F00
30C0
4020
8020
8010
8010
8010
8010
8010
8020
4040
3F80
ENDCHAR
STARTCHAR 00D5
ENCODING 213
SWIDTH 780 0
DWIDTH 13 0
BBX 12 14 1 0
BITMAP
0400
0200
0F00
30C0
4020
8020
8010
8010
8010
8010
8010
8020
4040
3F80
ENDCHAR
STARTCHAR 00D6
ENCODING 214
SWIDTH 780 0
DWIDTH 13 0
BBX 12 14 1 0
BITMAP
0900
0000
0F00
30C0
4020
8020
8010
8010
8010
8010
8010
8020
4040
3F80
ENDCHAR
STARTCHAR 00D7
ENCODING 215
SWIDTH 540 0
DWIDTH 9 0
BBX 5 5 2 3
BITMAP
08
50
20
50
80
ENDCHAR
STARTCHAR 00D8
ENCODING 216
SWIDTH 780 0
DWIDTH 13 0
BBX 12 13 1 0
BITMAP
0F60
30C0
40A0
8120
8210
8210
8410
8810
9010
9020
6040
5080
4F00
ENDCHAR
STARTCHAR 00D9
ENCODING 217
SWIDTH 780 0
DWIDTH 13 0
BBX 9 14 2 0
BITMAP
1000
0800
0000
8080
8080
8080
8080
8080
8080
8080
8080
8080
8100
7E00
ENDCHAR
STARTCHAR 00DA
ENCODING 218
SWIDTH 780 0
DWIDTH 13 0
BBX 9 14 2 0
BITMAP
0400
0000
0000
8080
8080
8080
8080
8080
8080
8080
8080
8080
8100
7E00
ENDCHAR
STARTCHAR 00DB
ENCODING 219
SWIDTH 780 0
DWIDTH 13 0
BBX 9 14 2 0
BITMAP
1C00
0000
0000
8080
8080
8080
8080
8080
8080
8080
8080
8080
8100
7E00
ENDCHAR
STARTCHAR 00DC
ENCODING 220
SWIDTH 780 0
DWIDTH 13 0
BBX 9 14 2 0
BITMAP
1000
0000
0000
8080
8080
8080
8080
8080
8080
8080
8080
8080
8100
7E00
ENDCHAR
STARTCHAR 00DD
ENCODING 221
SWIDTH 600 0
DWIDTH 10 0
BBX 10 13 0 0
BITMAP
0400
0000
8000
80C0
4080
2100
2200
1200
1400
0C00
0800
0800
0800
ENDCHAR
STARTCHAR 00DE
ENCODING 222
SWIDTH 660 0
DWIDTH 11 0
BBX 9 12 2 0
BITMAP
8000
8000
FE00
8100
8080
8080
8080
8100
8100
FE00
8000
8000
ENDCHAR
STARTCHAR 00DF
ENCODING 223
SWIDTH 600 0
DWIDTH 10 0
BBX 8 12 2 0
BITMAP
7C
82
82
82
84
98
86
81
81
81
82
3C
ENDCHAR
STARTCHAR 00E0
ENCODING 224
SWIDTH 540 0
DWIDTH 9 0
BBX 7 12 1 0
BITMAP
20
10
00
38
C4
02
02
3E
C2
82
82
7E
ENDCHAR
STARTCHAR 00E1
ENCODING 225
SWIDTH 540 0
DWIDTH 9 0
BBX 7 11 1 1
BITMAP
18
00
38
C4
02
02
3E
C2
82
82
7E
ENDCHAR
STARTCHAR 00E2
ENCODING 226
SWIDTH 540 0
DWIDTH 9 0
BBX 7 12 1 0
BITMAP
30
08
00
38
C4
02
02
3E
C2
82
82
7E
ENDCHAR
STARTCHAR 00E3
ENCODING 227
SWIDTH 540 0
DWIDTH 9 0
BBX 7 12 1 0
BITMAP
24
58
00
38
C4
02
02
3E
C2
82
82
7E
ENDCHAR
STARTCHAR 00E4
ENCODING 228
SWIDTH 540 0
DWIDTH 9 0
BBX 7 9 1 3
BITMAP
38
C4
02
02
3E
C2
82
82
7E
ENDCHAR
STARTCHAR 00E5
ENCODING 229
SWIDTH 540 0
DWIDTH 9 0
BBX 7 13 1 0
BITMAP
38
48
28
10
38
C4
02
02
3E
C2
82
82
7E
ENDCHAR
STARTCHAR 00E6
ENCODING 230
SWIDTH 960 0
DWIDTH 16 0
BBX 14 9 1 0
BITMAP
3870
C588
0204
0204
3FFC
C200
8200
8500
78F8
ENDCHAR
STARTCHAR 00E7
ENCODING 231
SWIDTH 540 0
DWIDTH 9 0
BBX 6 13 1 -4
BITMAP
18
64
80
80
80
80
80
80
64
18
08
08
10
ENDCHAR
STARTCHAR 00E8
ENCODING 232
SWIDTH 540 0
DWIDTH 9 0
BBX 8 12 1 0
BITMAP
20
10
00
18
66
82
81
FF
80
80
80
7C
ENDCHAR
STARTCHAR 00E9
ENCODING 233
SWIDTH 540 0
DWIDTH 9 0
BBX 8 12 1 0
BITMAP
04
08
00
18
66
82
81
FF
80
80
80
7C
ENDCHAR
STARTCHAR 00EA
ENCODING 234
SWIDTH 540 0
DWIDTH 9 0
BBX 8 12 1 0
BITMAP
18
24
00
18
66
82
81
FF
80
80
80
7C
ENDCHAR
STARTCHAR 00EB
ENCODING 235
SWIDTH 540 0
DWIDTH 9 0
BBX 8 12 1 0
BITMAP
20
00
00
18
66
82
81
FF
80
80
80
7C
ENDCHAR
STARTCHAR 00EC
ENCODING 236
SWIDTH 240 0
DWIDTH 4 0
BBX 2 11 0 0
BITMAP
80
40
00
00
40
40
40
40
40
40
40
ENDCHAR
STARTCHAR 00ED
ENCODING 237
SWIDTH 240 0
DWIDTH 4 0
BBX 3 11 1 0
BITMAP
20
40
00
00
80
80
80
80
80
80
80
ENDCHAR
STARTCHAR 00EE
ENCODING 238
SWIDTH 240 0
DWIDTH 4 0
BBX 3 11 1 0
BITMAP
C0
20
00
00
80
80
80
80
80
80
80
ENDCHAR
STARTCHAR 00EF
ENCODING 239
SWIDTH 240 0
DWIDTH 4 0
BBX 1 7 1 4
BITMAP
80
80
80
80
80
80
80
ENDCHAR
STARTCHAR 00F0
ENCODING 240
SWIDTH 600 0
DWIDTH 10 0
BBX 8 12 1 0
BITMAP
79
06
39
01
01
7D
83
81
81
81
82
7C
ENDCHAR
STARTCHAR 00F1
ENCODING 241
SWIDTH 660 0
DWIDTH 11 0
BBX 7 11 2 0
BITMAP
20
58
00
18
E6
82
82
82
82
82
82
ENDCHAR
STARTCHAR 00F2
ENCODING 242
SWIDTH 600 0
DWIDTH 10 0
BBX 8 12 1 0
BITMAP
20
10
00
18
66
81
81
81
81
81
82
7C
ENDCHAR
STARTCHAR 00F3
ENCODING 243
SWIDTH 600 0
DWIDTH 10 0
BBX 8 12 1 0
BITMAP
04
08
00
18
66
81
81
81
81
81
82
7C
ENDCHAR
STARTCHAR 00F4
ENCODING 244
SWIDTH 600 0
DWIDTH 10 0
BBX 8 12 1 0
BITMAP
18
24
00
18
66
81
81
81
81
81
82
7C
ENDCHAR
STARTCHAR 00F5
ENCODING 245
SWIDTH 600 0
DWIDTH 10 0
BBX 8 12 1 0
BITMAP
30
0C
00
18
66
81
81
81
81
81
82
7C
ENDCHAR
STARTCHAR 00F6
ENCODING 246
SWIDTH 600 0
DWIDTH 10 0
BBX 8 12 1 0
BITMAP
04
00
00
18
66
81
81
81
81
81
82
7C
ENDCHAR
STARTCHAR 00F7
ENCODING 247
SWIDTH 540 0
DWIDTH 9 0
BBX 5 7 2 2
BITMAP
20
00
00
F8
00
00
20
ENDCHAR
STARTCHAR 00F8
ENCODING 248
SWIDTH 600 0
DWIDTH 10 0
BBX 8 11 1 -1
BITMAP
01
1A
66
85
89
91
91
A1
C2
64
18
ENDCHAR
STARTCHAR 00F9
ENCODING 249
SWIDTH 660 0
DWIDTH 11 0
BBX 7 11 2 1
BITMAP
30
00
00
82
82
82
82
82
82
86
78
ENDCHAR
STARTCHAR 00FA
ENCODING 250
SWIDTH 660 0
DWIDTH 11 0
BBX 7 12 2 0
BITMAP
08
10
00
00
82
82
82
82
82
82
86
78
ENDCHAR
STARTCHAR 00FB
ENCODING 251
SWIDTH 660 0
DWIDTH 11 0
BBX 7 12 2 0
BITMAP
30
08
00
00
82
82
82
82
82
82
86
78
ENDCHAR
STARTCHAR 00FC
ENCODING 252
SWIDTH 660 0
DWIDTH 11 0
BBX 7 8 2 4
BITMAP
82
82
82
82
82
82
86
78
ENDCHAR
STARTCHAR 00FD
ENCODING 253
SWIDTH 480 0
DWIDTH 8 0
BBX 9 15 -1 -3
BITMAP
0200
0400
0000
4000
4080
4100
2100
2200
1200
1200
0C00
0400
0800
0800
F000
ENDCHAR
STARTCHAR 00FE
ENCODING 254
SWIDTH 660 0
DWIDTH 11 0
BBX 8 13 2 -2
BITMAP
80
80
98
E6
81
81
81
81
81
82
E4
98
80
ENDCHAR
STARTCHAR 00FF
ENCODING 255
SWIDTH 480 0
DWIDTH 8 0
BBX 9 15 -1 -3
BITMAP
1200
0000
0000
4000
4080
4100
2100
2200
1200
1200
0C00
0400
0800
0800
F000
ENDCHAR
STARTCHAR 0100
ENCODING 256
SWIDTH 660 0
DWIDTH 11 0
BBX 11 14 0 0
BITMAP
1F00
0000
0400
0C00
0A00
1200
1100
1100
2080
2080
5F40
4040
8020
8000
ENDCHAR
STARTCHAR 0101
ENCODING 257
SWIDTH 540 0
DWIDTH 9 0
BBX 7 11 1 0
BITMAP
38
00
38
C4
02
02
3E
C2
82
82
7E
ENDCHAR
STARTCHAR 0102
ENCODING 258
SWIDTH 660 0
DWIDTH 11 0
BBX 11 14 0 0
BITMAP
0100
0600
0400
0C00
0A00
1200
1100
1100
2080
2080
5F40
4040
8020
8000
ENDCHAR
STARTCHAR 0103
ENCODING 259
SWIDTH 540 0
DWIDTH 9 0
BBX 7 12 1 0
BITMAP
44
28
10
38
C4
02
02
3E
C2
82
82
7E
ENDCHAR
STARTCHAR 0104
ENCODING 260
SWIDTH 660 0
DWIDTH 11 0
BBX 11 16 0 -4
BITMAP
0400
0C00
0A00
1200
1100
1100
2080
2080
5F40
4040
8020
8000
0040
0080
0080
0060
ENDCHAR
STARTCHAR 0105
ENCODING 261
SWIDTH 540 0
DWIDTH 9 0
BBX 7 13 1 -4
BITMAP
38
C4
02
02
3E
C2
82
82
4E
34
08
08
04
ENDCHAR
STARTCHAR 0106
ENCODING 262
SWIDTH 660 0
DWIDTH 11 0
BBX 10 14 1 0
BITMAP
0200
0000
0F00
30C0
4000
8000
8000
8000
8000
8000
8000
8000
4000
3F80
ENDCHAR
STARTCHAR 0107
ENCODING 263
SWIDTH 540 0
DWIDTH 9 0
BBX 6 11 1 1
BITMAP
08
00
18
64
80
80
80
80
80
80
7C
ENDCHAR
STARTCHAR 0108
ENCODING 264
SWIDTH 660 0
DWIDTH 11 0
BBX 10 14 1 0
BITMAP
0E00
0000
0F00
30C0
4000
8000
8000
8000
8000
8000
8000
8000
4000
3F80
ENDCHAR
STARTCHAR 0109
ENCODING 265
SWIDTH 540 0
DWIDTH 9 0
BBX 6 12 1 0
BITMAP
18
04
00
18
64
80
80
80
80
80
80
7C
ENDCHAR
STARTCHAR 010A
ENCODING 266
SWIDTH 660 0
DWIDTH 11 0
BBX 10 14 1 0
BITMAP
0400
0000
0F00
30C0
4000
8000
8000
8000
8000
8000
8000
8000
4000
3F80
ENDCHAR
STARTCHAR 010B
ENCODING 267
SWIDTH 540 0
DWIDTH 9 0
BBX 6 9 1 3
BITMAP
18
64
80
80
80
80
80
80
7C
ENDCHAR
STARTCHAR 010C
ENCODING 268
SWIDTH 660 0
DWIDTH 11 0
BBX 10 14 1 0
BITMAP
0A00
0400
0F00
30C0
4000
8000
8000
8000
8000
8000
8000
8000
4000
3F80
ENDCHAR
STARTCHAR 010D
ENCODING 269
SWIDTH 540 0
DWIDTH 9 0
BBX 6 12 1 0
BITMAP
24
18
00
18
64
80
80
80
80
80
80
7C
ENDCHAR
STARTCHAR 010E
ENCODING 270
SWIDTH 780 0
DWIDTH 13 0
BBX 11 14 2 0
BITMAP
1400
0800
FC00
8380
8040
8040
8020
8020
8020
8020
8040
8040
8080
FF00
ENDCHAR
STARTCHAR 010F
ENCODING 271
SWIDTH 660 0
DWIDTH 11 0
BBX 10 12 1 1
BITMAP
0040
0100
0100
1900
6700
8100
8100
8100
8100
8100
8300
7C00
ENDCHAR
STARTCHAR 0110
ENCODING 272
SWIDTH 780 0
DWIDTH 13 0
BBX 12 12 1 0
BITMAP
7E00
41C0
4020
4020
4010
4010
F010
4010
4020
4020
4040
7F80
ENDCHAR
STARTCHAR 0111
ENCODING 273
SWIDTH 660 0
DWIDTH 11 0
BBX 10 11 1 1
BITMAP
0FC0
0100
1900
6700
8100
8100
8100
8100
8100
8300
7C00
ENDCHAR
STARTCHAR 0112
ENCODING 274
SWIDTH 660 0
DWIDTH 11 0
BBX 8 14 2 0
BITMAP
3C
00
FF
80
80
80
80
80
FC
80
80
80
80
FE
ENDCHAR
STARTCHAR 0113
ENCODING 275
SWIDTH 540 0
DWIDTH 9 0
BBX 8 11 1 0
BITMAP
18
00
18
66
82
81
FF
80
80
80
7C
ENDCHAR
STARTCHAR 0114
ENCODING 276
SWIDTH 660 0
DWIDTH 11 0
BBX 8 13 2 1
BITMAP
18
FF
80
80
80
80
80
FC
80
80
80
80
FE
ENDCHAR
STARTCHAR 0115
ENCODING 277
SWIDTH 540 0
DWIDTH 9 0
BBX 8 11 1 1
BITMAP
28
10
18
66
82
81
FF
80
80
80
7C
ENDCHAR
STARTCHAR 0116
ENCODING 278
SWIDTH 660 0
DWIDTH 11 0
BBX 8 12 2 2
BITMAP
FF
80
80
80
80
80
FC
80
80
80
80
FE
ENDCHAR
STARTCHAR 0117
ENCODING 279
SWIDTH 540 0
DWIDTH 9 0
BBX 8 9 1 3
BITMAP
18
66
82
81
FF
80
80
80
7C
ENDCHAR
STARTCHAR 0118
ENCODING 280
SWIDTH 660 0
DWIDTH 11 0
BBX 8 16 2 -4
BITMAP
FF
80
80
80
80
80
FC
80
80
80
80
80
7E
04
04
02
ENDCHAR
STARTCHAR 0119
ENCODING 281
SWIDTH 540 0
DWIDTH 9 0
BBX 8 13 1 -4
BITMAP
18
66
82
81
FF
80
80
80
64
1C
08
08
04
ENDCHAR
STARTCHAR 011A
ENCODING 282
SWIDTH 660 0
DWIDTH 11 0
BBX 8 14 2 0
BITMAP
28
10
FF
80
80
80
80
80
FC
80
80
80
80
FE
ENDCHAR
STARTCHAR 011B
ENCODING 283
SWIDTH 540 0
DWIDTH 9 0
BBX 8 12 1 0
BITMAP
24
18
00
18
66
82
81
FF
80
80
80
7C
ENDCHAR
STARTCHAR 011C
ENCODING 284
SWIDTH 720 0
DWIDTH 12 0
BBX 10 14 1 0
BITMAP
0E00
0000
0F00
30C0
4000
8000
8000
8000
8000
8040
8040
8040
4000
3F80
ENDCHAR
STARTCHAR 011D
ENCODING 285
SWIDTH 660 0
DWIDTH 11 0
BBX 8 15 1 -3
BITMAP
18
24
00
18
67
81
81
81
81
81
43
3D
01
01
7E
ENDCHAR
STARTCHAR 011E
ENCODING 286
SWIDTH 720 0
DWIDTH 12 0
BBX 10 14 1 0
BITMAP
0100
0E00
0F00
30C0
4000
8000
8000
8000
8000
8040
8040
8040
4000
3F80
ENDCHAR
STARTCHAR 011F
ENCODING 287
SWIDTH 660 0
DWIDTH 11 0
BBX 8 14 1 -2
BITMAP
14
08
18
67
81
81
81
81
81
43
3D
01
01
7E
ENDCHAR
STARTCHAR 0120
ENCODING 288
SWIDTH 720 0
DWIDTH 12 0
BBX 10 14 1 0
BITMAP
0400
0000
0F00
30C0
4000
8000
8000
8000
8000
8040
8040
8040
4000
3F80
ENDCHAR
STARTCHAR 0121
ENCODING 289
SWIDTH 660 0
DWIDTH 11 0
BBX 8 12 1 0
BITMAP
18
67
81
81
81
81
81
43
3D
01
01
7E
ENDCHAR
STARTCHAR 0122
ENCODING 290
SWIDTH 720 0
DWIDTH 12 0
BBX 10 15 1 -4
BITMAP
0F00
30C0
4000
8000
8000
8000
8000
8040
8040
8040
4000
3080
0F00
0000
0400
ENDCHAR
STARTCHAR 0123
ENCODING 291
SWIDTH 660 0
DWIDTH 11 0
BBX 8 16 1 -3
BITMAP
08
10
08
00
18
67
81
81
81
81
81
43
3D
01
01
7E
ENDCHAR
STARTCHAR 0124
ENCODING 292
SWIDTH 780 0
DWIDTH 13 0
BBX 9 14 2 0
BITMAP
1C00
0000
8000
8080
8080
8080
8080
8080
FF80
8080
8080
8080
8080
8000
ENDCHAR
STARTCHAR 0125
ENCODING 293
SWIDTH 660 0
DWIDTH 11 0
BBX 8 14 1 0
BITMAP
C0
00
00
00
80
80
8C
F3
41
81
81
81
81
81
ENDCHAR
STARTCHAR 0126
ENCODING 294
SWIDTH 780 0
DWIDTH 13 0
BBX 11 12 1 0
BITMAP
4000
4040
4040
FFE0
4040
4040
7FC0
4040
4040
4040
4040
4000
ENDCHAR
STARTCHAR 0127
ENCODING 295
SWIDTH 660 0
DWIDTH 11 0
BBX 9 10 0 1
BITMAP
FC00
4000
4600
7980
2080
4080
4080
4080
4080
4080
ENDCHAR
STARTCHAR 0128
ENCODING 296
SWIDTH 240 0
DWIDTH 4 0
BBX 4 14 0 0
BITMAP
E0
10
20
20
20
20
20
20
20
20
20
20
20
20
ENDCHAR
STARTCHAR 0129
ENCODING 297
SWIDTH 240 0
DWIDTH 4 0
BBX 4 11 0 0
BITMAP
40
B0
00
00
40
40
40
40
40
40
40
ENDCHAR
STARTCHAR 012A
ENCODING 298
SWIDTH 240 0
DWIDTH 4 0
BBX 3 14 1 0
BITMAP
E0
00
40
40
40
40
40
40
40
40
40
40
40
40
ENDCHAR
STARTCHAR 012B
ENCODING 299
SWIDTH 240 0
DWIDTH 4 0
BBX 2 10 1 0
BITMAP
C0
00
00
80
80
80
80
80
80
80
ENDCHAR
STARTCHAR 012C
ENCODING 300
SWIDTH 240 0
DWIDTH 4 0
BBX 4 14 0 0
BITMAP
80
70
20
20
20
20
20
20
20
20
20
20
20
20
ENDCHAR
STARTCHAR 012D
ENCODING 301
SWIDTH 240 0
DWIDTH 4 0
BBX 4 11 0 0
BITMAP
90
A0
40
00
40
40
40
40
40
40
40
ENDCHAR
STARTCHAR 012E
ENCODING 302
SWIDTH 240 0
DWIDTH 4 0
BBX 2 16 1 -4
BITMAP
40
40
40
40
40
40
40
40
40
40
40
40
00
80
80
40
ENDCHAR
STARTCHAR 012F
ENCODING 303
SWIDTH 240 0
DWIDTH 4 0
BBX 2 15 1 -4
BITMAP
40
00
00
00
80
80
80
80
80
80
80
00
80
80
80
ENDCHAR
STARTCHAR 0130
ENCODING 304
SWIDTH 240 0
DWIDTH 4 0
BBX 1 14 2 0
BITMAP
80
00
80
80
80
80
80
80
80
80
80
80
80
80
ENDCHAR
STARTCHAR 0131
ENCODING 305
SWIDTH 240 0
DWIDTH 4 0
BBX 1 7 2 1
BITMAP
80
80
80
80
80
80
80
ENDCHAR
STARTCHAR 0132
ENCODING 306
SWIDTH 660 0
DWIDTH 11 0
BBX 8 12 2 0
BITMAP
01
81
81
81
81
81
01
01
01
02
02
7C
ENDCHAR
STARTCHAR 0133
ENCODING 307
SWIDTH 480 0
DWIDTH 8 0
BBX 5 15 2 -3
BITMAP
88
00
00
08
88
88
88
88
88
88
88
08
08
10
30
ENDCHAR
STARTCHAR 0134
ENCODING 308
SWIDTH 420 0
DWIDTH 7 0
BBX 6 14 0 0
BITMAP
38
00
7C
04
04
04
04
04
04
04
04
04
84
78
ENDCHAR
STARTCHAR 0135
ENCODING 309
SWIDTH 240 0
DWIDTH 4 0
BBX 4 15 0 -3
BITMAP
20
50
00
00
40
40
40
40
40
40
40
40
40
40
C0
ENDCHAR
STARTCHAR 0136
ENCODING 310
SWIDTH 660 0
DWIDTH 11 0
BBX 9 15 2 -4
BITMAP
8080
8100
8200
8400
8800
9000
B000
C800
8400
8200
8100
8080
0000
0000
0800
ENDCHAR
STARTCHAR 0137
ENCODING 311
SWIDTH 540 0
DWIDTH 9 0
BBX 7 14 2 -3
BITMAP
80
80
82
84
98
A0
D0
90
88
84
02
00
00
10
ENDCHAR
STARTCHAR 0138
ENCODING 312
SWIDTH 540 0
DWIDTH 9 0
BBX 7 9 2 0
BITMAP
02
84
98
A0
D0
90
88
84
02
ENDCHAR
STARTCHAR 0139
ENCODING 313
SWIDTH 540 0
DWIDTH 9 0
BBX 7 14 2 0
BITMAP
C0
00
80
80
80
80
80
80
80
80
80
80
80
FE
ENDCHAR
STARTCHAR 013A
ENCODING 314
SWIDTH 240 0
DWIDTH 4 0
BBX 3 15 1 0
BITMAP
20
40
00
00
00
80
80
80
80
80
80
80
80
80
80
ENDCHAR
STARTCHAR 013B
ENCODING 315
SWIDTH 540 0
DWIDTH 9 0
BBX 7 13 2 -4
BITMAP
80
80
80
80
80
80
80
80
80
80
80
80
7E
ENDCHAR
STARTCHAR 013C
ENCODING 316
SWIDTH 240 0
DWIDTH 4 0
BBX 1 14 2 -3
BITMAP
80
80
80
80
80
80
80
80
80
80
00
00
00
80
ENDCHAR
STARTCHAR 013D
ENCODING 317
SWIDTH 540 0
DWIDTH 9 0
BBX 7 12 2 0
BITMAP
84
84
84
80
80
80
80
80
80
80
80
FE
ENDCHAR
STARTCHAR 013E
ENCODING 318
SWIDTH 240 0
DWIDTH 4 0
BBX 2 11 2 1
BITMAP
40
80
80
80
80
80
80
80
80
80
80
ENDCHAR
STARTCHAR 013F
ENCODING 319
SWIDTH 540 0
DWIDTH 9 0
BBX 7 12 2 0
BITMAP
80
80
80
80
80
80
80
80
80
80
80
FE
ENDCHAR
STARTCHAR 0140
ENCODING 320
SWIDTH 240 0
DWIDTH 4 0
BBX 1 10 2 1
BITMAP
80
80
80
80
80
80
80
80
80
80
ENDCHAR
STARTCHAR 0141
ENCODING 321
SWIDTH 540 0
DWIDTH 9 0
BBX 8 12 1 0
BITMAP
40
40
40
40
50
60
C0
40
40
40
40
7F
ENDCHAR
STARTCHAR 0142
ENCODING 322
SWIDTH 240 0
DWIDTH 4 0
BBX 2 10 1 1
BITMAP
80
80
80
80
80
C0
80
80
80
80
ENDCHAR
STARTCHAR 0143
ENCODING 323
SWIDTH 780 0
DWIDTH 13 0
BBX 9 14 2 0
BITMAP
0400
0000
8000
8080
C080
A080
9080
8880
8880
8480
8280
8180
8180
8080
ENDCHAR
STARTCHAR 0144
ENCODING 324
SWIDTH 660 0
DWIDTH 11 0
BBX 7 10 2 1
BITMAP
18
00
18
E6
82
82
82
82
82
82
ENDCHAR
STARTCHAR 0145
ENCODING 325
SWIDTH 780 0
DWIDTH 13 0
BBX 9 15 2 -4
BITMAP
8000
8080
C080
A080
9080
8880
8880
8480
8280
8180
8180
8080
0000
0000
0800
ENDCHAR
STARTCHAR 0146
ENCODING 326
SWIDTH 660 0
DWIDTH 11 0
BBX 7 13 2 -4
BITMAP
18
E6
82
82
82
82
82
82
00
00
00
10
10
ENDCHAR
STARTCHAR 0147
ENCODING 327
SWIDTH 780 0
DWIDTH 13 0
BBX 9 14 2 0
BITMAP
1400
0800
8000
8080
C080
A080
9080
8880
8880
8480
8280
8180
8180
8080
ENDCHAR
STARTCHAR 0148
ENCODING 328
SWIDTH 660 0
DWIDTH 11 0
BBX 7 10 2 1
BITMAP
38
00
18
E6
82
82
82
82
82
82
ENDCHAR
STARTCHAR 0149
ENCODING 329
SWIDTH 660 0
DWIDTH 11 0
BBX 9 10 1 1
BITMAP
8000
0000
0E00
7100
4080
4080
4080
4080
4080
4080
ENDCHAR
STARTCHAR 014A
ENCODING 330
SWIDTH 780 0
DWIDTH 13 0
BBX 9 15 2 -3
BITMAP
8000
8080
C080
A080
9080
8880
8880
8480
8280
8180
8180
8080
0080
0080
0F80
ENDCHAR
STARTCHAR 014B
ENCODING 331
SWIDTH 660 0
DWIDTH 11 0
BBX 7 12 2 -3
BITMAP
18
E6
82
82
82
82
82
82
02
02
02
06
ENDCHAR
STARTCHAR 014C
ENCODING 332
SWIDTH 780 0
DWIDTH 13 0
BBX 12 14 1 0
BITMAP
0F00
0000
0F00
30C0
4020
8020
8010
8010
8010
8010
8010
8020
4040
3F80
ENDCHAR
STARTCHAR 014D
ENCODING 333
SWIDTH 600 0
DWIDTH 10 0
BBX 8 11 1 0
BITMAP
18
00
18
66
81
81
81
81
81
82
7C
ENDCHAR
STARTCHAR 014E
ENCODING 334
SWIDTH 780 0
DWIDTH 13 0
BBX 12 14 1 0
BITMAP
0100
0600
0F00
30C0
4020
8020
8010
8010
8010
8010
8010
8020
4040
3F80
ENDCHAR
STARTCHAR 014F
ENCODING 335
SWIDTH 600 0
DWIDTH 10 0
BBX 8 11 1 1
BITMAP
24
18
18
66
81
81
81
81
81
82
7C
ENDCHAR
STARTCHAR 0150
ENCODING 336
SWIDTH 780 0
DWIDTH 13 0
BBX 12 14 1 0
BITMAP
0580
0000
0F00
30C0
4020
8020
8010
8010
8010
8010
8010
8020
4040
3F80
ENDCHAR
STARTCHAR 0151
ENCODING 337
SWIDTH 600 0
DWIDTH 10 0
BBX 8 12 1 0
BITMAP
0A
14
00
18
66
81
81
81
81
81
82
7C
ENDCHAR
STARTCHAR 0152
ENCODING 338
SWIDTH 1080 0
DWIDTH 18 0
BBX 16 12 1 0
BITMAP
0FFF
3080
4080
8080
8080
8080
80BC
8080
8080
8080
4080
3F7E
ENDCHAR
STARTCHAR 0153
ENCODING 339
SWIDTH 1020 0
DWIDTH 17 0
BBX 16 9 1 0
BITMAP
1818
6666
8182
8101
80FF
8100
8080
8380
7C7C
ENDCHAR
STARTCHAR 0154
ENCODING 340
SWIDTH 660 0
DWIDTH 11 0
BBX 9 14 2 0
BITMAP
0800
0000
FC00
8300
8100
8080
8080
8080
8100
8200
FC00
8200
8100
8080
ENDCHAR
STARTCHAR 0155
ENCODING 341
SWIDTH 360 0
DWIDTH 6 0
BBX 4 10 2 1
BITMAP
20
00
30
C0
80
80
80
80
80
80
ENDCHAR
STARTCHAR 0156
ENCODING 342
SWIDTH 660 0
DWIDTH 11 0
BBX 9 15 2 -4
BITMAP
FC00
8300
8100
8080
8080
8080
8100
8200
FC00
8200
8100
8080
0000
0000
0800
ENDCHAR
STARTCHAR 0157
ENCODING 343
SWIDTH 360 0
DWIDTH 6 0
BBX 4 12 2 -4
BITMAP
30
C0
80
80
80
80
80
80
00
00
00
80
ENDCHAR
STARTCHAR 0158
ENCODING 344
SWIDTH 660 0
DWIDTH 11 0
BBX 9 14 2 0
BITMAP
2800
1000
FC00
8300
8100
8080
8080
8080
8100
8200
FC00
8200
8100
8080
ENDCHAR
STARTCHAR 0159
ENCODING 345
SWIDTH 360 0
DWIDTH 6 0
BBX 5 11 1 0
BITMAP
08
70
00
18
E0
40
80
80
80
80
80
ENDCHAR
STARTCHAR 015A
ENCODING 346
SWIDTH 600 0
DWIDTH 10 0
BBX 8 14 1 0
BITMAP
0C
00
3C
C2
80
80
80
40
3C
03
01
01
81
7E
ENDCHAR
STARTCHAR 015B
ENCODING 347
SWIDTH 420 0
DWIDTH 7 0
BBX 6 11 1 1
BITMAP
10
00
30
C8
80
80
60
1C
04
04
F8
ENDCHAR
STARTCHAR 015C
ENCODING 348
SWIDTH 600 0
DWIDTH 10 0
BBX 8 14 1 0
BITMAP
3C
00
3C
C2
80
80
80
40
3C
03
01
01
81
7E
ENDCHAR
STARTCHAR 015D
ENCODING 349
SWIDTH 420 0
DWIDTH 7 0
BBX 6 12 1 0
BITMAP
30
08
00
30
C8
80
80
60
1C
04
04
F8
ENDCHAR
STARTCHAR 015E
ENCODING 350
SWIDTH 600 0
DWIDTH 10 0
BBX 8 16 1 -4
BITMAP
3C
C2
80
80
80
40
3C
03
01
01
81
42
3C
08
04
08
ENDCHAR
STARTCHAR 015F
ENCODING 351
SWIDTH 420 0
DWIDTH 7 0
BBX 6 13 1 -4
BITMAP
30
C8
80
80
60
1C
04
04
88
70
10
10
20
ENDCHAR
STARTCHAR 0160
ENCODING 352
SWIDTH 600 0
DWIDTH 10 0
BBX 8 14 1 0
BITMAP
14
08
3C
C2
80
80
80
40
3C
03
01
01
81
7E
ENDCHAR
STARTCHAR 0161
ENCODING 353
SWIDTH 420 0
DWIDTH 7 0
BBX 6 12 1 0
BITMAP
48
30
00
30
C8
80
80
60
1C
04
04
F8
ENDCHAR
STARTCHAR 0162
ENCODING 354
SWIDTH 540 0
DWIDTH 9 0
BBX 9 16 0 -4
BITMAP
FF80
0800
0800
0800
0800
0800
0800
0800
0800
0800
0800
0800
0800
0400
0400
0800
ENDCHAR
STARTCHAR 0163
ENCODING 355
SWIDTH 360 0
DWIDTH 6 0
BBX 6 14 0 -3
BITMAP
40
F8
40
40
40
40
40
40
40
24
18
08
08
10
ENDCHAR
STARTCHAR 0164
ENCODING 356
SWIDTH 540 0
DWIDTH 9 0
BBX 9 14 0 0
BITMAP
1400
0800
FF80
0800
0800
0800
0800
0800
0800
0800
0800
0800
0800
0800
ENDCHAR
STARTCHAR 0165
ENCODING 357
SWIDTH 360 0
DWIDTH 6 0
BBX 6 12 0 1
BITMAP
10
00
40
F8
40
40
40
40
40
40
40
3C
ENDCHAR
STARTCHAR 0166
ENCODING 358
SWIDTH 540 0
DWIDTH 9 0
BBX 9 12 0 0
BITMAP
FF80
0800
0800
0800
0800
0800
1E00
0800
0800
0800
0800
0800
ENDCHAR
STARTCHAR 0167
ENCODING 359
SWIDTH 360 0
DWIDTH 6 0
BBX 6 10 0 1
BITMAP
40
F8
40
40
40
70
40
40
20
3C
ENDCHAR
STARTCHAR 0168
ENCODING 360
SWIDTH 780 0
DWIDTH 13 0
BBX 9 14 2 0
BITMAP
3A00
0400
0000
8080
8080
8080
8080
8080
8080
8080
8080
8080
8100
7E00
ENDCHAR
STARTCHAR 0169
ENCODING 361
SWIDTH 660 0
DWIDTH 11 0
BBX 7 12 2 0
BITMAP
24
58
00
00
82
82
82
82
82
82
86
78
ENDCHAR
STARTCHAR 016A
ENCODING 362
SWIDTH 780 0
DWIDTH 13 0
BBX 9 14 2 0
BITMAP
3E00
0000
0000
8080
8080
8080
8080
8080
8080
8080
8080
8080
8100
7E00
ENDCHAR
STARTCHAR 016B
ENCODING 363
SWIDTH 660 0
DWIDTH 11 0
BBX 7 11 2 0
BITMAP
38
00
00
82
82
82
82
82
82
86
78
ENDCHAR
STARTCHAR 016C
ENCODING 364
SWIDTH 780 0
DWIDTH 13 0
BBX 9 14 2 0
BITMAP
0200
1C00
0000
8080
8080
8080
8080
8080
8080
8080
8080
8080
8100
7E00
ENDCHAR
STARTCHAR 016D
ENCODING 365
SWIDTH 660 0
DWIDTH 11 0
BBX 7 12 2 0
BITMAP
44
28
10
00
82
82
82
82
82
82
86
78
ENDCHAR
STARTCHAR 016E
ENCODING 366
SWIDTH 780 0
DWIDTH 13 0
BBX 9 16 2 0
BITMAP
1C00
2400
1400
0800
0000
8080
8080
8080
8080
8080
8080
8080
8080
8080
8100
7E00
ENDCHAR
STARTCHAR 016F
ENCODING 367
SWIDTH 660 0
DWIDTH 11 0
BBX 7 13 2 0
BITMAP
38
48
28
10
00
82
82
82
82
82
82
86
78
ENDCHAR
STARTCHAR 0170
ENCODING 368
SWIDTH 780 0
DWIDTH 13 0
BBX 9 14 2 0
BITMAP
0A00
0000
0000
8080
8080
8080
8080
8080
8080
8080
8080
8080
8100
7E00
ENDCHAR
STARTCHAR 0171
ENCODING 369
SWIDTH 660 0
DWIDTH 11 0
BBX 7 12 2 0
BITMAP
10
24
00
00
82
82
82
82
82
82
86
78
ENDCHAR
STARTCHAR 0172
ENCODING 370
SWIDTH 780 0
DWIDTH 13 0
BBX 9 15 2 -3
BITMAP
8080
8080
8080
8080
8080
8080
8080
8080
8080
8100
6200
1C00
1000
1000
0800
ENDCHAR
STARTCHAR 0173
ENCODING 371
SWIDTH 660 0
DWIDTH 11 0
BBX 7 12 2 -3
BITMAP
82
82
82
82
82
82
86
48
34
08
08
06
ENDCHAR
STARTCHAR 0174
ENCODING 372
SWIDTH 1080 0
DWIDTH 18 0
BBX 16 14 1 0
BITMAP
0380
0000
0000
8181
8281
8282
4242
4444
4444
2424
2828
2828
1818
1010
ENDCHAR
STARTCHAR 0175
ENCODING 373
SWIDTH 780 0
DWIDTH 13 0
BBX 14 12 0 0
BITMAP
0300
0480
0000
8004
8308
8508
4508
4490
4890
2860
3060
1020
ENDCHAR
STARTCHAR 0176
ENCODING 374
SWIDTH 600 0
DWIDTH 10 0
BBX 10 13 0 0
BITMAP
1C00
0000
8000
80C0
4080
2100
2200
1200
1400
0C00
0800
0800
0800
ENDCHAR
STARTCHAR 0177
ENCODING 375
SWIDTH 480 0
DWIDTH 8 0
BBX 9 15 -1 -3
BITMAP
0C00
1200
0000
4000
4080
4100
2100
2200
1200
1200
0C00
0400
0800
0800
F000
ENDCHAR
STARTCHAR 0178
ENCODING 376
SWIDTH 600 0
DWIDTH 10 0
BBX 10 13 0 0
BITMAP
1200
0000
8000
80C0
4080
2100
2200
1200
1400
0C00
0800
0800
0800
ENDCHAR
STARTCHAR 0179
ENCODING 377
SWIDTH 600 0
DWIDTH 10 0
BBX 9 14 1 0
BITMAP
0C00
0000
FF80
0100
0200
0200
0400
0800
1000
1000
2000
4000
8000
FF00
ENDCHAR
STARTCHAR 017A
ENCODING 378
SWIDTH 480 0
DWIDTH 8 0
BBX 6 12 1 0
BITMAP
08
10
00
FC
04
08
10
20
20
40
80
F8
ENDCHAR
STARTCHAR 017B
ENCODING 379
SWIDTH 600 0
DWIDTH 10 0
BBX 9 14 1 0
BITMAP
0800
0000
FF80
0100
0200
0200
0400
0800
1000
1000
2000
4000
8000
FF00
ENDCHAR
STARTCHAR 017C
ENCODING 380
SWIDTH 480 0
DWIDTH 8 0
BBX 6 9 1 3
BITMAP
FC
04
08
10
20
20
40
80
F8
ENDCHAR
STARTCHAR 017D
ENCODING 381
SWIDTH 600 0
DWIDTH 10 0
BBX 9 14 1 0
BITMAP
1400
0800
FF80
0100
0200
0200
0400
0800
1000
1000
2000
4000
8000
FF00
ENDCHAR
STARTCHAR 017E
ENCODING 382
SWIDTH 480 0
DWIDTH 8 0
BBX 6 12 1 0
BITMAP
48
30
00
FC
04
08
10
20
20
40
80
F8
ENDCHAR
STARTCHAR 017F
ENCODING 383
SWIDTH 240 0
DWIDTH 4 0
BBX 4 12 1 0
BITMAP
30
40
40
C0
40
40
40
40
40
40
40
40
ENDCHAR
STARTCHAR 018F
ENCODING 399
SWIDTH 780 0
DWIDTH 13 0
BBX 12 12 1 0
BITMAP
0E00
1180
0040
0020
0020
0010
FFD0
8020
8020
8020
4040
3F80
ENDCHAR
STARTCHAR 0192
ENCODING 402
SWIDTH 360 0
DWIDTH 6 0
BBX 7 15 0 -3
BITMAP
0E
10
10
3E
10
20
20
20
20
20
20
20
20
40
C0
ENDCHAR
STARTCHAR 01A0
ENCODING 416
SWIDTH 780 0
DWIDTH 13 0
BBX 12 14 1 0
BITMAP
0010
0010
0FA0
3040
4020
8020
8010
8010
8010
8010
8010
8020
4040
3F80
ENDCHAR
STARTCHAR 01A1
ENCODING 417
SWIDTH 600 0
DWIDTH 10 0
BBX 8 10 1 1
BITMAP
01
1E
62
81
81
81
81
81
82
7C
ENDCHAR
STARTCHAR 01AF
ENCODING 431
SWIDTH 780 0
DWIDTH 13 0
BBX 11 14 2 0
BITMAP
0020
0020
0040
8080
8080
8080
8080
8080
8080
8080
8080
8080
8100
7E00
ENDCHAR
STARTCHAR 01B0
ENCODING 432
SWIDTH 660 0
DWIDTH 11 0
BBX 8 10 2 1
BITMAP
01
01
82
82
82
82
82
82
86
78
ENDCHAR
STARTCHAR 01B7
ENCODING 439
SWIDTH 540 0
DWIDTH 9 0
BBX 8 12 1 0
BITMAP
FE
02
04
08
10
20
1E
01
01
01
02
7C
ENDCHAR
STARTCHAR 01C4
ENCODING 452
SWIDTH 1440 0
DWIDTH 24 0
BBX 21 14 2 0
BITMAP
000140
000080
FC0FF8
838008
804010
804020
802040
802040
802080
802100
804200
804200
808400
FF0FF8
ENDCHAR
STARTCHAR 01C5
ENCODING 453
SWIDTH 1260 0
DWIDTH 21 0
BBX 19 12 2 0
BITMAP
FC0240
838180
804000
8047E0
802040
802040
802080
802100
804200
804200
808400
FF0FC0
ENDCHAR
STARTCHAR 01C6
ENCODING 454
SWIDTH 1140 0
DWIDTH 19 0
BBX 18 11 1 1
BITMAP
010700
010000
191FC0
670080
810100
810200
810200
810400
810800
831000
7C1F80
ENDCHAR
STARTCHAR 01C7
ENCODING 455
SWIDTH 1020 0
DWIDTH 17 0
BBX 14 12 2 0
BITMAP
807C
8004
8004
8004
8004
8004
8004
8004
8004
8008
8008
FEF8
ENDCHAR
STARTCHAR 01C8
ENCODING 456
SWIDTH 780 0
DWIDTH 13 0
BBX 10 15 2 -3
BITMAP
8040
8000
8000
8000
8040
8040
8040
8040
8040
8040
8040
8040
7E40
0040
03C0
ENDCHAR
STARTCHAR 01C9
ENCODING 457
SWIDTH 480 0
DWIDTH 8 0
BBX 5 15 2 -3
BITMAP
08
80
80
88
88
88
88
88
88
88
88
08
08
10
30
ENDCHAR
STARTCHAR 01CA
ENCODING 458
SWIDTH 1260 0
DWIDTH 21 0
BBX 17 12 2 0
BITMAP
800780
808080
C08080
A08080
908080
888080
888080
848080
828080
818080
818080
808F00
ENDCHAR
STARTCHAR 01CB
ENCODING 459
SWIDTH 1020 0
DWIDTH 17 0
BBX 14 15 2 -3
BITMAP
8004
8080
C080
A080
9084
8884
8884
8484
8284
8184
8184
8084
0004
0004
001C
ENDCHAR
STARTCHAR 01CC
ENCODING 460
SWIDTH 900 0
DWIDTH 15 0
BBX 12 15 2 -3
BITMAP
0010
0000
0000
1800
E620
8220
8220
8220
8220
8220
8220
0020
0020
0020
0060
ENDCHAR
STARTCHAR 01CD
ENCODING 461
SWIDTH 660 0
DWIDTH 11 0
BBX 11 14 0 0
BITMAP
0A00
0400
0400
0C00
0A00
1200
1100
1100
2080
2080
5F40
4040
8020
8000
ENDCHAR
STARTCHAR 01CE
ENCODING 462
SWIDTH 540 0
DWIDTH 9 0
BBX 7 11 1 1
BITMAP
38
00
38
C4
02
02
3E
C2
82
82
7E
ENDCHAR
STARTCHAR 01D3
ENCODING 467
SWIDTH 780 0
DWIDTH 13 0
BBX 9 14 2 0
BITMAP
1400
0800
0000
8080
8080
8080
8080
8080
8080
8080
8080
8080
8100
7E00
ENDCHAR
STARTCHAR 01D4
ENCODING 468
SWIDTH 660 0
DWIDTH 11 0
BBX 7 11 2 1
BITMAP
38
00
00
82
82
82
82
82
82
86
78
ENDCHAR
STARTCHAR 01E4
ENCODING 484
SWIDTH 780 0
DWIDTH 13 0
BBX 11 12 1 0
BITMAP
0F00
30C0
4000
8000
8000
8000
8000
8040
81E0
8040
4000
3F80
ENDCHAR
STARTCHAR 01E5
ENCODING 485
SWIDTH 660 0
DWIDTH 11 0
BBX 8 12 1 -3
BITMAP
18
67
81
81
81
81
81
43
3D
01
07
7E
ENDCHAR
STARTCHAR 01E6
ENCODING 486
SWIDTH 720 0
DWIDTH 12 0
BBX 10 14 1 0
BITMAP
0A00
0400
0F00
30C0
4000
8000
8000
8000
8000
8040
8040
8040
4000
3F80
ENDCHAR
STARTCHAR 01E7
ENCODING 487
SWIDTH 660 0
DWIDTH 11 0
BBX 8 15 1 -3
BITMAP
20
1C
00
18
67
81
81
81
81
81
43
3D
01
01
7E
ENDCHAR
STARTCHAR 01E8
ENCODING 488
SWIDTH 660 0
DWIDTH 11 0
BBX 9 14 2 0
BITMAP
2800
1000
8080
8100
8200
8400
8800
9000
B000
C800
8400
8200
8100
8080
ENDCHAR
STARTCHAR 01E9
ENCODING 489
SWIDTH 540 0
DWIDTH 9 0
BBX 8 15 1 1
BITMAP
C0
00
00
00
80
80
81
82
8C
90
A8
88
84
82
01
ENDCHAR
STARTCHAR 01EA
ENCODING 490
SWIDTH 780 0
DWIDTH 13 0
BBX 12 16 1 -4
BITMAP
0F00
30C0
4020
8020
8010
8010
8010
8010
8010
8020
4040
3080
0F00
0800
0800
0400
ENDCHAR
STARTCHAR 01EB
ENCODING 491
SWIDTH 600 0
DWIDTH 10 0
BBX 8 13 1 -4
BITMAP
18
66
81
81
81
81
81
82
64
18
10
20
18
ENDCHAR
STARTCHAR 01EE
ENCODING 494
SWIDTH 540 0
DWIDTH 9 0
BBX 8 14 1 0
BITMAP
28
10
FE
02
04
08
10
20
1E
01
01
01
02
7C
ENDCHAR
STARTCHAR 01EF
ENCODING 495
SWIDTH 480 0
DWIDTH 8 0
BBX 7 14 0 -2
BITMAP
38
00
FE
04
04
08
10
20
1C
02
02
02
02
FC
ENDCHAR
STARTCHAR 01FA
ENCODING 506
SWIDTH 660 0
DWIDTH 11 0
BBX 11 17 0 0
BITMAP
0100
0E00
0A00
0A00
0400
0400
0C00
0A00
1200
1100
1100
2080
2080
5F40
4040
8020
8000
ENDCHAR
STARTCHAR 01FB
ENCODING 507
SWIDTH 540 0
DWIDTH 9 0
BBX 7 14 1 0
BITMAP
04
38
48
28
10
38
C4
02
02
3E
C2
82
82
7E
ENDCHAR
STARTCHAR 01FC
ENCODING 508
SWIDTH 960 0
DWIDTH 16 0
BBX 15 14 0 0
BITMAP
0080
0000
01FE
0300
0300
0500
0900
0900
117C
2100
2F00
4100
8100
80FE
ENDCHAR
STARTCHAR 01FD
ENCODING 509
SWIDTH 960 0
DWIDTH 16 0
BBX 14 11 1 1
BITMAP
0300
0000
3870
C588
0204
0204
3FFC
C200
8200
8500
78F8
ENDCHAR
STARTCHAR 01FE
ENCODING 510
SWIDTH 780 0
DWIDTH 13 0
BBX 12 15 1 -1
BITMAP
0200
0000
0F60
30C0
40A0
8120
8210
8210
8410
8810
9010
9020
6040
5080
4F00
ENDCHAR
STARTCHAR 01FF
ENCODING 511
SWIDTH 600 0
DWIDTH 10 0
BBX 8 13 1 -1
BITMAP
04
08
01
1A
66
85
89
91
91
A1
C2
64
18
ENDCHAR
STARTCHAR 0200
ENCODING 512
SWIDTH 660 0
DWIDTH 11 0
BBX 11 14 0 0
BITMAP
1400
0200
0400
0C00
0A00
1200
1100
1100
2080
2080
5F40
4040
8020
8000
ENDCHAR
STARTCHAR 0201
ENCODING 513
SWIDTH 540 0
DWIDTH 9 0
BBX 7 12 1 0
BITMAP
10
48
00
38
C4
02
02
3E
C2
82
82
7E
ENDCHAR
STARTCHAR 0202
ENCODING 514
SWIDTH 660 0
DWIDTH 11 0
BBX 11 14 0 1
BITMAP
0700
0000
0400
0C00
0A00
1200
1100
1100
2080
2080
5F40
4040
8020
8000
ENDCHAR
STARTCHAR 0203
ENCODING 515
SWIDTH 540 0
DWIDTH 9 0
BBX 7 12 1 0
BITMAP
38
44
00
38
C4
02
02
3E
C2
82
82
7E
ENDCHAR
STARTCHAR 0204
ENCODING 516
SWIDTH 660 0
DWIDTH 11 0
BBX 8 14 2 0
BITMAP
50
28
FF
80
80
80
80
80
FC
80
80
80
80
FE
ENDCHAR
STARTCHAR 0205
ENCODING 517
SWIDTH 540 0
DWIDTH 9 0
BBX 8 12 1 0
BITMAP
50
28
00
18
66
82
81
FF
80
80
80
7C
ENDCHAR
STARTCHAR 0206
ENCODING 518
SWIDTH 660 0
DWIDTH 11 0
BBX 8 14 2 1
BITMAP
18
00
FF
80
80
80
80
80
FC
80
80
80
80
FE
ENDCHAR
STARTCHAR 0207
ENCODING 519
SWIDTH 540 0
DWIDTH 9 0
BBX 8 12 1 0
BITMAP
38
00
00
18
66
82
81
FF
80
80
80
7C
ENDCHAR
STARTCHAR 0208
ENCODING 520
SWIDTH 240 0
DWIDTH 4 0
BBX 3 14 0 0
BITMAP
A0
00
20
20
20
20
20
20
20
20
20
20
20
20
ENDCHAR
STARTCHAR 0209
ENCODING 521
SWIDTH 240 0
DWIDTH 4 0
BBX 4 11 -1 0
BITMAP
80
50
00
00
20
20
20
20
20
20
20
ENDCHAR
STARTCHAR 020A
ENCODING 522
SWIDTH 240 0
DWIDTH 4 0
BBX 4 14 0 1
BITMAP
F0
00
20
20
20
20
20
20
20
20
20
20
20
20
ENDCHAR
STARTCHAR 020B
ENCODING 523
SWIDTH 240 0
DWIDTH 4 0
BBX 3 11 0 0
BITMAP
E0
80
00
00
40
40
40
40
40
40
40
ENDCHAR
STARTCHAR 020C
ENCODING 524
SWIDTH 780 0
DWIDTH 13 0
BBX 12 14 1 0
BITMAP
1400
0A00
0F00
30C0
4020
8020
8010
8010
8010
8010
8010
8020
4040
3F80
ENDCHAR
STARTCHAR 020D
ENCODING 525
SWIDTH 600 0
DWIDTH 10 0
BBX 8 12 1 0
BITMAP
40
28
00
18
66
81
81
81
81
81
82
7C
ENDCHAR
STARTCHAR 020E
ENCODING 526
SWIDTH 780 0
DWIDTH 13 0
BBX 12 14 1 1
BITMAP
0600
0000
0F00
30C0
4020
8020
8010
8010
8010
8010
8010
8020
4040
3F80
ENDCHAR
STARTCHAR 020F
ENCODING 527
SWIDTH 600 0
DWIDTH 10 0
BBX 8 12 1 0
BITMAP
3C
00
00
18
66
81
81
81
81
81
82
7C
ENDCHAR
STARTCHAR 0210
ENCODING 528
SWIDTH 660 0
DWIDTH 11 0
BBX 9 14 2 0
BITMAP
4800
2000
FC00
8300
8100
8080
8080
8080
8100
8200
FC00
8200
8100
8080
ENDCHAR
STARTCHAR 0211
ENCODING 529
SWIDTH 360 0
DWIDTH 6 0
BBX 5 11 1 0
BITMAP
20
90
00
18
E0
40
80
80
80
80
80
ENDCHAR
STARTCHAR 0212
ENCODING 530
SWIDTH 660 0
DWIDTH 11 0
BBX 9 14 2 1
BITMAP
3800
0000
FC00
8300
8100
8080
8080
8080
8100
8200
FC00
8200
8100
8080
ENDCHAR
STARTCHAR 0213
ENCODING 531
SWIDTH 360 0
DWIDTH 6 0
BBX 4 11 2 0
BITMAP
E0
00
00
30
C0
80
80
80
80
80
80
ENDCHAR
STARTCHAR 0214
ENCODING 532
SWIDTH 780 0
DWIDTH 13 0
BBX 9 14 2 0
BITMAP
2800
0400
0000
8080
8080
8080
8080
8080
8080
8080
8080
8080
8100
7E00
ENDCHAR
STARTCHAR 0215
ENCODING 533
SWIDTH 660 0
DWIDTH 11 0
BBX 7 11 2 1
BITMAP
50
00
00
82
82
82
82
82
82
86
78
ENDCHAR
STARTCHAR 0216
ENCODING 534
SWIDTH 780 0
DWIDTH 13 0
BBX 9 14 2 1
BITMAP
1E00
0000
0000
8080
8080
8080
8080
8080
8080
8080
8080
8080
8100
7E00
ENDCHAR
STARTCHAR 0217
ENCODING 535
SWIDTH 660 0
DWIDTH 11 0
BBX 7 12 2 0
BITMAP
38
44
00
00
82
82
82
82
82
82
86
78
ENDCHAR
STARTCHAR 0218
ENCODING 536
SWIDTH 600 0
DWIDTH 10 0
BBX 8 15 1 -4
BITMAP
3C
C2
80
80
80
40
3C
03
01
01
81
42
3C
00
08
ENDCHAR
STARTCHAR 0219
ENCODING 537
SWIDTH 420 0
DWIDTH 7 0
BBX 6 12 1 -4
BITMAP
30
C8
80
80
60
1C
04
04
88
70
00
20
ENDCHAR
STARTCHAR 021A
ENCODING 538
SWIDTH 540 0
DWIDTH 9 0
BBX 9 16 0 -4
BITMAP
FF80
0800
0800
0800
0800
0800
0800
0800
0800
0800
0800
0800
0000
0000
0800
0800
ENDCHAR
STARTCHAR 021B
ENCODING 539
SWIDTH 360 0
DWIDTH 6 0
BBX 6 11 0 -3
BITMAP
40
F8
40
40
40
40
40
40
40
24
18
ENDCHAR
STARTCHAR 021E
ENCODING 542
SWIDTH 780 0
DWIDTH 13 0
BBX 9 14 2 0
BITMAP
1400
0800
8000
8080
8080
8080
8080
8080
FF80
8080
8080
8080
8080
8000
ENDCHAR
STARTCHAR 021F
ENCODING 543
SWIDTH 660 0
DWIDTH 11 0
BBX 8 14 1 1
BITMAP
C0
00
00
00
80
80
8C
F3
41
81
81
81
81
81
ENDCHAR
STARTCHAR 022A
ENCODING 554
SWIDTH 780 0
DWIDTH 13 0
BBX 12 15 1 0
BITMAP
0600
0900
0000
0F00
30C0
4020
8020
8010
8010
8010
8010
8010
8020
4040
3F80
ENDCHAR
STARTCHAR 022B
ENCODING 555
SWIDTH 600 0
DWIDTH 10 0
BBX 8 13 1 0
BITMAP
18
04
00
00
18
66
81
81
81
81
81
82
7C
ENDCHAR
STARTCHAR 022C
ENCODING 556
SWIDTH 780 0
DWIDTH 13 0
BBX 12 15 1 0
BITMAP
0600
0400
0200
0F00
30C0
4020
8020
8010
8010
8010
8010
8010
8020
4040
3F80
ENDCHAR
STARTCHAR 022D
ENCODING 557
SWIDTH 600 0
DWIDTH 10 0
BBX 8 13 1 0
BITMAP
18
10
0C
00
18
66
81
81
81
81
81
82
7C
ENDCHAR
STARTCHAR 0230
ENCODING 560
SWIDTH 780 0
DWIDTH 13 0
BBX 12 15 1 0
BITMAP
0600
0000
0000
0F00
30C0
4020
8020
8010
8010
8010
8010
8010
8020
4040
3F80
ENDCHAR
STARTCHAR 0231
ENCODING 561
SWIDTH 600 0
DWIDTH 10 0
BBX 8 13 1 0
BITMAP
18
00
00
00
18
66
81
81
81
81
81
82
7C
ENDCHAR
STARTCHAR 0232
ENCODING 562
SWIDTH 600 0
DWIDTH 10 0
BBX 10 13 0 0
BITMAP
1E00
0000
8000
80C0
4080
2100
2200
1200
1400
0C00
0800
0800
0800
ENDCHAR
STARTCHAR 0233
ENCODING 563
SWIDTH 480 0
DWIDTH 8 0
BBX 9 14 -1 -3
BITMAP
0C00
0000
4000
4080
4100
2100
2200
1200
1200
0C00
0400
0800
0800
F000
ENDCHAR
STARTCHAR 0237
ENCODING 567
SWIDTH 240 0
DWIDTH 4 0
BBX 2 11 0 -2
BITMAP
40
40
40
40
40
40
40
40
40
40
C0
ENDCHAR
STARTCHAR 0259
ENCODING 601
SWIDTH 540 0
DWIDTH 9 0
BBX 8 9 1 0
BITMAP
38
46
02
01
01
FF
81
82
7C
ENDCHAR
STARTCHAR 0292
ENCODING 658
SWIDTH 480 0
DWIDTH 8 0
BBX 7 12 0 -3
BITMAP
FE
04
04
08
10
20
1C
02
02
02
02
FC
ENDCHAR
STARTCHAR 02B9
ENCODING 697
SWIDTH 180 0
DWIDTH 3 0
BBX 1 5 1 7
BITMAP
80
80
80
80
80
ENDCHAR
STARTCHAR 02BA
ENCODING 698
SWIDTH 300 0
DWIDTH 5 0
BBX 3 5 1 7
BITMAP
80
A0
A0
A0
80
ENDCHAR
STARTCHAR 02BB
ENCODING 699
SWIDTH 240 0
DWIDTH 4 0
BBX 1 1 2 11
BITMAP
80
ENDCHAR
STARTCHAR 02BC
ENCODING 700
SWIDTH 180 0
DWIDTH 3 0
BBX 1 1 1 10
BITMAP
80
ENDCHAR
STARTCHAR 02BE
ENCODING 702
SWIDTH 600 0
DWIDTH 10 0
BBX 1 1 6 11
BITMAP
80
ENDCHAR
STARTCHAR 02BF
ENCODING 703
SWIDTH 600 0
DWIDTH 10 0
BBX 1 1 3 11
BITMAP
80
ENDCHAR
STARTCHAR 02C6
ENCODING 710
SWIDTH 600 0
DWIDTH 10 0
BBX 4 2 3 10
BITMAP
60
90
ENDCHAR
STARTCHAR 02C7
ENCODING 711
SWIDTH 600 0
DWIDTH 10 0
BBX 4 2 3 10
BITMAP
90
60
ENDCHAR
STARTCHAR 02C8
ENCODING 712
SWIDTH 120 0
DWIDTH 2 0
BBX 1 1 1 10
BITMAP
80
ENDCHAR
STARTCHAR 02C9
ENCODING 713
SWIDTH 600 0
DWIDTH 10 0
BBX 2 1 4 11
BITMAP
C0
ENDCHAR
STARTCHAR 02CA
ENCODING 714
SWIDTH 600 0
DWIDTH 10 0
BBX 2 2 5 10
BITMAP
40
80
ENDCHAR
STARTCHAR 02CB
ENCODING 715
SWIDTH 600 0
DWIDTH 10 0
BBX 2 2 3 10
BITMAP
80
40
ENDCHAR
STARTCHAR 02CC
ENCODING 716
SWIDTH 120 0
DWIDTH 2 0
BBX 1 2 1 -3
BITMAP
80
80
ENDCHAR
STARTCHAR 02D8
ENCODING 728
SWIDTH 600 0
DWIDTH 10 0
BBX 3 1 3 11
BITMAP
E0
ENDCHAR
STARTCHAR 02D9
ENCODING 729
SWIDTH 600 0
DWIDTH 10 0
BBX 0 0 5 11
BITMAP
ENDCHAR
STARTCHAR 02DA
ENCODING 730
SWIDTH 600 0
DWIDTH 10 0
BBX 4 3 3 10
BITMAP
E0
90
E0
ENDCHAR
STARTCHAR 02DB
ENCODING 731
SWIDTH 600 0
DWIDTH 10 0
BBX 2 4 3 -4
BITMAP
80
80
80
40
ENDCHAR
STARTCHAR 02DC
ENCODING 732
SWIDTH 600 0
DWIDTH 10 0
BBX 4 2 3 10
BITMAP
C0
30
ENDCHAR
STARTCHAR 02DD
ENCODING 733
SWIDTH 600 0
DWIDTH 10 0
BBX 3 2 5 10
BITMAP
A0
40
ENDCHAR
STARTCHAR 0300
ENCODING 768
SWIDTH 0 0
DWIDTH 0 0
BBX 2 2 3 10
BITMAP
80
40
ENDCHAR
STARTCHAR 0301
ENCODING 769
SWIDTH 0 0
DWIDTH 0 0
BBX 2 2 5 10
BITMAP
40
80
ENDCHAR
STARTCHAR 0302
ENCODING 770
SWIDTH 0 0
DWIDTH 0 0
BBX 4 2 3 10
BITMAP
60
90
ENDCHAR
STARTCHAR 0303
ENCODING 771
SWIDTH 0 0
DWIDTH 0 0
BBX 4 2 3 10
BITMAP
C0
30
ENDCHAR
STARTCHAR 0304
ENCODING 772
SWIDTH 0 0
DWIDTH 0 0
BBX 2 1 4 11
BITMAP
C0
ENDCHAR
STARTCHAR 0306
ENCODING 774
SWIDTH 0 0
DWIDTH 0 0
BBX 3 1 3 11
BITMAP
E0
ENDCHAR
STARTCHAR 0307
ENCODING 775
SWIDTH 0 0
DWIDTH 0 0
BBX 0 0 5 11
BITMAP
ENDCHAR
STARTCHAR 0308
ENCODING 776
SWIDTH 0 0
DWIDTH 0 0
BBX 4 1 3 11
BITMAP
90
ENDCHAR
STARTCHAR 0309
ENCODING 777
SWIDTH 0 0
DWIDTH 0 0
BBX 2 3 4 10
BITMAP
C0
40
40
ENDCHAR
STARTCHAR 030A
ENCODING 778
SWIDTH 0 0
DWIDTH 0 0
BBX 4 3 3 10
BITMAP
E0
90
E0
ENDCHAR
STARTCHAR 030B
ENCODING 779
SWIDTH 0 0
DWIDTH 0 0
BBX 3 2 5 10
BITMAP
A0
40
ENDCHAR
STARTCHAR 030C
ENCODING 780
SWIDTH 0 0
DWIDTH 0 0
BBX 4 2 3 10
BITMAP
90
60
ENDCHAR
STARTCHAR 030F
ENCODING 783
SWIDTH 0 0
DWIDTH 0 0
BBX 4 2 2 10
BITMAP
A0
50
ENDCHAR
STARTCHAR 0311
ENCODING 785
SWIDTH 0 0
DWIDTH 0 0
BBX 4 1 3 10
BITMAP
F0
ENDCHAR
STARTCHAR 0312
ENCODING 786
SWIDTH 0 0
DWIDTH 0 0
BBX 1 1 5 11
BITMAP
80
ENDCHAR
STARTCHAR 031B
ENCODING 795
SWIDTH 0 0
DWIDTH 0 0
BBX 1 2 5 9
BITMAP
80
80
ENDCHAR
STARTCHAR 0323
ENCODING 803
SWIDTH 0 0
DWIDTH 0 0
BBX 0 0 5 -3
BITMAP
ENDCHAR
STARTCHAR 0324
ENCODING 804
SWIDTH 0 0
DWIDTH 0 0
BBX 4 1 3 -3
BITMAP
90
ENDCHAR
STARTCHAR 0326
ENCODING 806
SWIDTH 0 0
DWIDTH 0 0
BBX 0 0 5 -4
BITMAP
ENDCHAR
STARTCHAR 0327
ENCODING 807
SWIDTH 0 0
DWIDTH 0 0
BBX 2 3 4 -3
BITMAP
40
40
80
ENDCHAR
STARTCHAR 0328
ENCODING 808
SWIDTH 0 0
DWIDTH 0 0
BBX 2 4 3 -4
BITMAP
80
80
80
40
ENDCHAR
STARTCHAR 032E
ENCODING 814
SWIDTH 0 0
DWIDTH 0 0
BBX 4 1 3 -2
BITMAP
F0
ENDCHAR
STARTCHAR 0331
ENCODING 817
SWIDTH 0 0
DWIDTH 0 0
BBX 4 1 3 -3
BITMAP
F0
ENDCHAR
STARTCHAR 0335
ENCODING 821
SWIDTH 0 0
DWIDTH 0 0
BBX 6 1 2 7
BITMAP
FC
ENDCHAR
STARTCHAR 0336
ENCODING 822
SWIDTH 0 0
DWIDTH 0 0
BBX 13 1 0 7
BITMAP
FFF8
ENDCHAR
STARTCHAR 0337
ENCODING 823
SWIDTH 0 0
DWIDTH 0 0
BBX 2 2 1 6
BITMAP
40
80
ENDCHAR
STARTCHAR 0338
ENCODING 824
SWIDTH 0 0
DWIDTH 0 0
BBX 7 10 2 -1
BITMAP
02
04
08
08
10
20
20
40
80
80
ENDCHAR
STARTCHAR 0394
ENCODING 916
SWIDTH 660 0
DWIDTH 11 0
BBX 11 12 0 0
BITMAP
0400
0C00
0A00
1200
1100
1100
2080
2080
4040
4040
8020
FFE0
ENDCHAR
STARTCHAR 03A9
ENCODING 937
SWIDTH 900 0
DWIDTH 15 0
BBX 13 12 1 0
BITMAP
0700
38C0
4020
4010
8010
8008
8008
8010
8010
4010
2020
F078
ENDCHAR
STARTCHAR 03BC
ENCODING 956
SWIDTH 660 0
DWIDTH 11 0
BBX 7 10 2 -2
BITMAP
82
82
82
82
82
82
82
C4
B8
80
ENDCHAR
STARTCHAR 03C0
ENCODING 960
SWIDTH 660 0
DWIDTH 11 0
BBX 12 9 0 0
BITMAP
3FF0
D080
9080
9080
1080
1080
1080
1080
1080
ENDCHAR
STARTCHAR 0400
ENCODING 1024
SWIDTH 600 0
DWIDTH 10 0
BBX 8 14 2 0
BITMAP
10
00
FF
80
80
80
80
80
BC
80
80
80
80
FE
ENDCHAR
STARTCHAR 0401
ENCODING 1025
SWIDTH 600 0
DWIDTH 10 0
BBX 8 14 2 0
BITMAP
24
00
FF
80
80
80
80
80
BC
80
80
80
80
FE
ENDCHAR
STARTCHAR 0402
ENCODING 1026
SWIDTH 780 0
DWIDTH 13 0
BBX 13 12 0 0
BITMAP
FF80
0800
0800
0800
0800
0BE0
0810
0808
0808
0808
0810
0860
ENDCHAR
STARTCHAR 0403
ENCODING 1027
SWIDTH 540 0
DWIDTH 9 0
BBX 7 14 2 0
BITMAP
08
00
FE
80
80
80
80
80
80
80
80
80
80
80
ENDCHAR
STARTCHAR 0404
ENCODING 1028
SWIDTH 660 0
DWIDTH 11 0
BBX 10 12 1 0
BITMAP
0F00
30C0
4000
8000
8000
8000
FC00
8000
8000
4000
4000
3F80
ENDCHAR
STARTCHAR 0405
ENCODING 1029
SWIDTH 600 0
DWIDTH 10 0
BBX 8 12 1 0
BITMAP
1C
E3
80
80
80
40
3C
03
01
01
81
7E
ENDCHAR
STARTCHAR 0406
ENCODING 1030
SWIDTH 240 0
DWIDTH 4 0
BBX 1 12 2 0
BITMAP
80
80
80
80
80
80
80
80
80
80
80
80
ENDCHAR
STARTCHAR 0407
ENCODING 1031
SWIDTH 240 0
DWIDTH 4 0
BBX 2 14 2 0
BITMAP
40
00
80
80
80
80
80
80
80
80
80
80
80
80
ENDCHAR
STARTCHAR 0408
ENCODING 1032
SWIDTH 480 0
DWIDTH 8 0
BBX 5 12 1 0
BITMAP
78
08
08
08
08
08
08
08
08
08
08
F0
ENDCHAR
STARTCHAR 0409
ENCODING 1033
SWIDTH 1140 0
DWIDTH 19 0
BBX 18 12 1 0
BITMAP
3FC000
204000
204000
204000
204000
207F80
404080
404040
404040
404040
404080
807F00
ENDCHAR
STARTCHAR 040A
ENCODING 1034
SWIDTH 1140 0
DWIDTH 19 0
BBX 17 12 2 0
BITMAP
808000
808000
808000
808000
808000
FFFC00
808300
808080
808080
808080
808080
80FF00
ENDCHAR
STARTCHAR 040B
ENCODING 1035
SWIDTH 780 0
DWIDTH 13 0
BBX 13 12 0 0
BITMAP
FF80
0800
0800
0800
0800
0BE0
0C10
0808
0808
0808
0808
0808
ENDCHAR
STARTCHAR 040C
ENCODING 1036
SWIDTH 660 0
DWIDTH 11 0
BBX 9 14 2 0
BITMAP
0800
0000
8000
8100
8200
8400
8800
8000
E000
8800
8400
8200
8100
8080
ENDCHAR
STARTCHAR 040D
ENCODING 1037
SWIDTH 780 0
DWIDTH 13 0
BBX 9 14 2 0
BITMAP
1000
0800
8000
8080
8180
8280
8480
8480
8880
9080
A080
C080
C080
8000
ENDCHAR
STARTCHAR 040E
ENCODING 1038
SWIDTH 600 0
DWIDTH 10 0
BBX 11 14 0 0
BITMAP
1000
0E00
0020
8040
4080
2080
2100
1100
1200
0A00
0C00
0400
0800
3000
ENDCHAR
STARTCHAR 040F
ENCODING 1039
SWIDTH 780 0
DWIDTH 13 0
BBX 9 14 2 -3
BITMAP
8000
8080
8080
8080
8080
8080
8080
8080
8080
8080
8080
8080
7F00
0800
ENDCHAR
STARTCHAR 0410
ENCODING 1040
SWIDTH 660 0
DWIDTH 11 0
BBX 11 10 0 1
BITMAP
0600
0A00
0900
1100
1080
2080
2080
5F40
4040
8020
ENDCHAR
STARTCHAR 0411
ENCODING 1041
SWIDTH 660 0
DWIDTH 11 0
BBX 9 12 2 0
BITMAP
FF00
8000
8000
8000
8000
FC00
8300
8080
8080
8080
8100
FE00
ENDCHAR
STARTCHAR 0412
ENCODING 1042
SWIDTH 720 0
DWIDTH 12 0
BBX 9 12 2 0
BITMAP
FC00
8300
8100
8080
8100
8200
FD00
8080
8080
8080
8080
FF00
ENDCHAR
STARTCHAR 0413
ENCODING 1043
SWIDTH 540 0
DWIDTH 9 0
BBX 7 12 2 0
BITMAP
FE
80
80
80
80
80
80
80
80
80
80
80
ENDCHAR
STARTCHAR 0414
ENCODING 1044
SWIDTH 720 0
DWIDTH 12 0
BBX 12 14 0 -3
BITMAP
1FC0
2040
2040
2040
2040
2040
2040
2040
2040
2040
2040
4000
BFF0
8010
ENDCHAR
STARTCHAR 0415
ENCODING 1045
SWIDTH 600 0
DWIDTH 10 0
BBX 8 12 2 0
BITMAP
FF
80
80
80
80
80
BC
80
80
80
80
FE
ENDCHAR
STARTCHAR 0416
ENCODING 1046
SWIDTH 960 0
DWIDTH 16 0
BBX 14 10 1 1
BITMAP
8204
4208
2210
2220
1220
06A0
3220
2210
4208
8204
ENDCHAR
STARTCHAR 0417
ENCODING 1047
SWIDTH 600 0
DWIDTH 10 0
BBX 7 12 2 0
BITMAP
70
8C
04
02
04
08
34
02
02
02
04
F8
ENDCHAR
STARTCHAR 0418
ENCODING 1048
SWIDTH 780 0
DWIDTH 13 0
BBX 9 12 2 0
BITMAP
8000
8080
8180
8280
8480
8480
8880
9080
A080
C080
C080
8000
ENDCHAR
STARTCHAR 0419
ENCODING 1049
SWIDTH 780 0
DWIDTH 13 0
BBX 9 14 2 0
BITMAP
0200
1C00
8000
8080
8180
8280
8480
8480
8880
9080
A080
C080
C080
8000
ENDCHAR
STARTCHAR 041A
ENCODING 1050
SWIDTH 660 0
DWIDTH 11 0
BBX 9 12 2 0
BITMAP
8000
8100
8200
8400
8800
8000
E000
8800
8400
8200
8100
8080
ENDCHAR
STARTCHAR 041B
ENCODING 1051
SWIDTH 720 0
DWIDTH 12 0
BBX 10 12 1 0
BITMAP
3FC0
2040
2040
2040
2040
2040
4040
4040
4040
4040
4040
8040
ENDCHAR
STARTCHAR 041C
ENCODING 1052
SWIDTH 960 0
DWIDTH 16 0
BBX 12 12 2 0
BITMAP
8010
8010
C030
C050
A090
9090
9110
8910
8A10
8610
8010
8010
ENDCHAR
STARTCHAR 041D
ENCODING 1053
SWIDTH 780 0
DWIDTH 13 0
BBX 9 12 2 0
BITMAP
8000
8080
8080
8080
8080
8080
BF80
8080
8080
8080
8080
8000
ENDCHAR
STARTCHAR 041E
ENCODING 1054
SWIDTH 840 0
DWIDTH 14 0
BBX 12 12 1 0
BITMAP
0F00
30C0
4020
8010
8010
8010
8010
8010
8010
4020
2040
1F80
ENDCHAR
STARTCHAR 041F
ENCODING 1055
SWIDTH 780 0
DWIDTH 13 0
BBX 10 12 2 0
BITMAP
FFC0
8040
8040
8040
8040
8040
8040
8040
8040
8040
8040
8040
ENDCHAR
STARTCHAR 0420
ENCODING 1056
SWIDTH 660 0
DWIDTH 11 0
BBX 9 12 2 0
BITMAP
FC00
8300
8100
8080
8080
8080
8100
8200
FC00
8000
8000
8000
ENDCHAR
STARTCHAR 0421
ENCODING 1057
SWIDTH 660 0
DWIDTH 11 0
BBX 10 12 1 0
BITMAP
0F00
30C0
4000
8000
8000
8000
8000
8000
8000
4000
2000
1F80
ENDCHAR
STARTCHAR 0422
ENCODING 1058
SWIDTH 540 0
DWIDTH 9 0
BBX 9 12 0 0
BITMAP
FF80
0800
0800
0800
0800
0800
0800
0800
0800
0800
0800
0800
ENDCHAR
STARTCHAR 0423
ENCODING 1059
SWIDTH 600 0
DWIDTH 10 0
BBX 11 12 0 0
BITMAP
0020
8040
4080
2080
2100
1100
1200
0A00
0C00
0400
0800
3000
ENDCHAR
STARTCHAR 0424
ENCODING 1060
SWIDTH 840 0
DWIDTH 14 0
BBX 13 12 1 0
BITMAP
0200
0F80
7260
8210
8208
8208
8208
8208
8210
4210
3260
0F80
ENDCHAR
STARTCHAR 0425
ENCODING 1061
SWIDTH 600 0
DWIDTH 10 0
BBX 8 10 1 1
BITMAP
81
42
24
28
18
08
38
44
42
81
ENDCHAR
STARTCHAR 0426
ENCODING 1062
SWIDTH 780 0
DWIDTH 13 0
BBX 11 14 2 -3
BITMAP
8000
8080
8080
8080
8080
8080
8080
8080
8080
8080
8080
8080
7F20
0020
ENDCHAR
STARTCHAR 0427
ENCODING 1063
SWIDTH 720 0
DWIDTH 12 0
BBX 9 12 1 0
BITMAP
8080
8080
8080
8080
8080
8080
8080
7F80
0080
0080
0080
0080
ENDCHAR
STARTCHAR 0428
ENCODING 1064
SWIDTH 1080 0
DWIDTH 18 0
BBX 14 12 2 0
BITMAP
8000
8204
8204
8204
8204
8204
8204
8204
8204
8204
8204
FFFC
ENDCHAR
STARTCHAR 0429
ENCODING 1065
SWIDTH 1080 0
DWIDTH 18 0
BBX 16 14 2 -3
BITMAP
8000
8204
8204
8204
8204
8204
8204
8204
8204
8204
8204
8204
7DF9
0001
ENDCHAR
STARTCHAR 042A
ENCODING 1066
SWIDTH 780 0
DWIDTH 13 0
BBX 13 12 0 0
BITMAP
F000
1000
1000
1000
1000
1FE0
1010
1010
1008
1010
1010
1FE0
ENDCHAR
STARTCHAR 042B
ENCODING 1067
SWIDTH 900 0
DWIDTH 15 0
BBX 12 12 2 0
BITMAP
8010
8010
8010
8010
8010
FF10
8110
8090
8090
8090
8110
FE10
ENDCHAR
STARTCHAR 042C
ENCODING 1068
SWIDTH 660 0
DWIDTH 11 0
BBX 9 12 2 0
BITMAP
8000
8000
8000
8000
8000
FF00
8100
8080
8080
8080
8100
FE00
ENDCHAR
STARTCHAR 042D
ENCODING 1069
SWIDTH 660 0
DWIDTH 11 0
BBX 10 12 1 0
BITMAP
3C00
C200
0100
0080
0080
0040
1F40
0080
0080
0080
0100
7E00
ENDCHAR
STARTCHAR 042E
ENCODING 1070
SWIDTH 1080 0
DWIDTH 18 0
BBX 15 12 2 0
BITMAP
80E0
8718
8804
9004
9002
9002
F002
9002
9004
8804
8408
83F0
ENDCHAR
STARTCHAR 042F
ENCODING 1071
SWIDTH 720 0
DWIDTH 12 0
BBX 9 11 1 0
BITMAP
1F80
6080
8080
8080
8080
8080
8080
6080
1F80
2080
4080
ENDCHAR
STARTCHAR 0430
ENCODING 1072
SWIDTH 540 0
DWIDTH 9 0
BBX 7 9 1 0
BITMAP
38
C4
02
02
3E
C2
82
82
7E
ENDCHAR
STARTCHAR 0431
ENCODING 1073
SWIDTH 600 0
DWIDTH 10 0
BBX 9 12 1 1
BITMAP
0E00
3000
4000
8000
BE00
C100
8080
8080
8080
8100
4100
3E00
ENDCHAR
STARTCHAR 0432
ENCODING 1074
SWIDTH 540 0
DWIDTH 9 0
BBX 7 9 2 0
BITMAP
F0
84
84
84
F8
84
82
84
FC
ENDCHAR
STARTCHAR 0433
ENCODING 1075
SWIDTH 420 0
DWIDTH 7 0
BBX 6 8 2 0
BITMAP
FC
80
80
80
80
80
80
80
ENDCHAR
STARTCHAR 0434
ENCODING 1076
SWIDTH 600 0
DWIDTH 10 0
BBX 10 11 0 -2
BITMAP
1F00
2100
2100
2100
2100
2100
4100
4100
4000
BFC0
8040
ENDCHAR
STARTCHAR 0435
ENCODING 1077
SWIDTH 540 0
DWIDTH 9 0
BBX 8 9 1 0
BITMAP
18
66
81
81
FF
80
80
80
7E
ENDCHAR
STARTCHAR 0436
ENCODING 1078
SWIDTH 720 0
DWIDTH 12 0
BBX 11 9 1 0
BITMAP
0400
8460
4440
4480
3F00
2480
4440
8440
0420
ENDCHAR
STARTCHAR 0437
ENCODING 1079
SWIDTH 480 0
DWIDTH 8 0
BBX 6 9 1 0
BITMAP
30
4C
04
04
38
0C
04
04
F8
ENDCHAR
STARTCHAR 0438
ENCODING 1080
SWIDTH 660 0
DWIDTH 11 0
BBX 7 8 2 1
BITMAP
86
86
8A
92
A2
C2
82
80
ENDCHAR
STARTCHAR 0439
ENCODING 1081
SWIDTH 660 0
DWIDTH 11 0
BBX 7 12 2 0
BITMAP
44
28
10
00
86
86
8A
92
A2
C2
82
80
ENDCHAR
STARTCHAR 043A
ENCODING 1082
SWIDTH 540 0
DWIDTH 9 0
BBX 6 8 2 1
BITMAP
84
88
90
E0
90
88
88
04
ENDCHAR
STARTCHAR 043B
ENCODING 1083
SWIDTH 600 0
DWIDTH 10 0
BBX 7 9 1 0
BITMAP
3E
42
42
42
42
42
82
82
80
ENDCHAR
STARTCHAR 043C
ENCODING 1084
SWIDTH 720 0
DWIDTH 12 0
BBX 9 7 2 1
BITMAP
8180
C180
C280
A280
A480
9880
8880
ENDCHAR
STARTCHAR 043D
ENCODING 1085
SWIDTH 660 0
DWIDTH 11 0
BBX 7 7 2 1
BITMAP
82
82
82
FE
82
82
82
ENDCHAR
STARTCHAR 043E
ENCODING 1086
SWIDTH 600 0
DWIDTH 10 0
BBX 8 9 1 0
BITMAP
18
66
81
81
81
81
81
81
7E
ENDCHAR
STARTCHAR 043F
ENCODING 1087
SWIDTH 660 0
DWIDTH 11 0
BBX 7 8 2 0
BITMAP
FE
82
82
82
82
82
82
82
ENDCHAR
STARTCHAR 0440
ENCODING 1088
SWIDTH 660 0
DWIDTH 11 0
BBX 8 11 2 -3
BITMAP
18
E6
81
81
81
81
81
82
E4
98
80
ENDCHAR
STARTCHAR 0441
ENCODING 1089
SWIDTH 540 0
DWIDTH 9 0
BBX 6 9 1 0
BITMAP
1C
60
80
80
80
80
80
80
7C
ENDCHAR
STARTCHAR 0442
ENCODING 1090
SWIDTH 420 0
DWIDTH 7 0
BBX 7 9 0 0
BITMAP
FE
10
10
10
10
10
10
10
10
ENDCHAR
STARTCHAR 0443
ENCODING 1091
SWIDTH 480 0
DWIDTH 8 0
BBX 8 12 0 -3
BITMAP
80
81
41
42
22
24
24
18
08
10
10
60
ENDCHAR
STARTCHAR 0444
ENCODING 1092
SWIDTH 720 0
DWIDTH 12 0
BBX 10 13 1 -2
BITMAP
0800
0800
1E00
6980
8840
8840
8840
8840
8840
8880
6900
1E00
0800
ENDCHAR
STARTCHAR 0445
ENCODING 1093
SWIDTH 480 0
DWIDTH 8 0
BBX 6 7 1 1
BITMAP
84
48
30
20
30
48
84
ENDCHAR
STARTCHAR 0446
ENCODING 1094
SWIDTH 660 0
DWIDTH 11 0
BBX 7 9 2 -1
BITMAP
82
82
82
82
82
82
82
82
7C
ENDCHAR
STARTCHAR 0447
ENCODING 1095
SWIDTH 540 0
DWIDTH 9 0
BBX 7 9 1 0
BITMAP
02
82
82
82
82
4E
32
02
02
ENDCHAR
STARTCHAR 0448
ENCODING 1096
SWIDTH 900 0
DWIDTH 15 0
BBX 11 9 2 0
BITMAP
0400
8420
8420
8420
8420
8420
8420
8420
FFE0
ENDCHAR
STARTCHAR 0449
ENCODING 1097
SWIDTH 900 0
DWIDTH 15 0
BBX 13 11 2 -2
BITMAP
0400
8420
8420
8420
8420
8420
8420
8420
8420
7BC8
0008
ENDCHAR
STARTCHAR 044A
ENCODING 1098
SWIDTH 540 0
DWIDTH 9 0
BBX 9 9 0 0
BITMAP
E000
2000
2000
2000
3F00
2080
2080
2080
3F00
ENDCHAR
STARTCHAR 044B
ENCODING 1099
SWIDTH 720 0
DWIDTH 12 0
BBX 8 8 2 1
BITMAP
81
81
81
FD
85
85
85
F8
ENDCHAR
STARTCHAR 044C
ENCODING 1100
SWIDTH 480 0
DWIDTH 8 0
BBX 6 8 2 1
BITMAP
80
80
80
FC
84
84
84
F8
ENDCHAR
STARTCHAR 044D
ENCODING 1101
SWIDTH 540 0
DWIDTH 9 0
BBX 7 9 1 0
BITMAP
30
4C
02
02
3E
02
02
04
F8
ENDCHAR
STARTCHAR 044E
ENCODING 1102
SWIDTH 840 0
DWIDTH 14 0
BBX 11 9 2 0
BITMAP
0300
9CC0
9020
A020
E020
A020
A020
9040
0F80
ENDCHAR
STARTCHAR 044F
ENCODING 1103
SWIDTH 540 0
DWIDTH 9 0
BBX 7 8 1 0
BITMAP
3E
C2
82
82
82
62
1E
42
ENDCHAR
STARTCHAR 0450
ENCODING 1104
SWIDTH 600 0
DWIDTH 10 0
BBX 8 12 1 0
BITMAP
20
10
00
18
66
81
81
FF
80
80
80
7E
ENDCHAR
STARTCHAR 0451
ENCODING 1105
SWIDTH 540 0
DWIDTH 9 0
BBX 8 12 1 0
BITMAP
24
00
00
18
66
81
81
FF
80
80
80
7E
ENDCHAR
STARTCHAR 0452
ENCODING 1106
SWIDTH 660 0
DWIDTH 11 0
BBX 9 14 0 -2
BITMAP
FE00
4000
4600
7980
2080
4080
4080
4080
4080
4080
0080
0080
0080
0180
ENDCHAR
STARTCHAR 0453
ENCODING 1107
SWIDTH 420 0
DWIDTH 7 0
BBX 6 10 2 1
BITMAP
10
00
FC
80
80
80
80
80
80
80
ENDCHAR
STARTCHAR 0454
ENCODING 1108
SWIDTH 540 0
DWIDTH 9 0
BBX 8 9 1 0
BITMAP
1C
63
80
80
80
F8
80
80
7E
ENDCHAR
STARTCHAR 0455
ENCODING 1109
SWIDTH 480 0
DWIDTH 8 0
BBX 7 9 1 0
BITMAP
38
C0
80
80
60
1C
02
04
7C
ENDCHAR
STARTCHAR 0456
ENCODING 1110
SWIDTH 240 0
DWIDTH 4 0
BBX 1 11 2 0
BITMAP
80
00
00
00
80
80
80
80
80
80
80
ENDCHAR
STARTCHAR 0457
ENCODING 1111
SWIDTH 240 0
DWIDTH 4 0
BBX 1 7 1 4
BITMAP
80
80
80
80
80
80
80
ENDCHAR
STARTCHAR 0458
ENCODING 1112
SWIDTH 240 0
DWIDTH 4 0
BBX 3 15 0 -3
BITMAP
20
00
00
00
40
40
40
40
40
40
40
40
40
40
C0
ENDCHAR
STARTCHAR 0459
ENCODING 1113
SWIDTH 840 0
DWIDTH 14 0
BBX 13 9 1 0
BITMAP
3E00
4200
4200
4200
43F8
4208
8208
8208
83F0
ENDCHAR
STARTCHAR 045A
ENCODING 1114
SWIDTH 900 0
DWIDTH 15 0
BBX 13 8 2 1
BITMAP
8200
8200
8200
FFF0
8208
8208
8208
03F0
ENDCHAR
STARTCHAR 045B
ENCODING 1115
SWIDTH 660 0
DWIDTH 11 0
BBX 9 10 0 1
BITMAP
FE00
4000
4600
7980
2080
4080
4080
4080
4080
4080
ENDCHAR
STARTCHAR 045C
ENCODING 1116
SWIDTH 540 0
DWIDTH 9 0
BBX 6 11 2 1
BITMAP
30
00
00
84
88
90
E0
90
88
88
04
ENDCHAR
STARTCHAR 045D
ENCODING 1117
SWIDTH 660 0
DWIDTH 11 0
BBX 7 12 2 0
BITMAP
20
10
00
00
86
86
8A
92
A2
C2
82
80
ENDCHAR
STARTCHAR 045E
ENCODING 1118
SWIDTH 480 0
DWIDTH 8 0
BBX 8 14 0 -2
BITMAP
24
18
80
81
41
42
22
24
24
18
08
10
10
60
ENDCHAR
STARTCHAR 045F
ENCODING 1119
SWIDTH 600 0
DWIDTH 10 0
BBX 7 10 2 -2
BITMAP
02
82
82
82
82
82
82
82
82
7C
ENDCHAR
STARTCHAR 0462
ENCODING 1122
SWIDTH 780 0
DWIDTH 13 0
BBX 11 11 1 1
BITMAP
2000
FC00
2000
2000
3FC0
2020
2020
2020
2020
2020
3FC0
ENDCHAR
STARTCHAR 0463
ENCODING 1123
SWIDTH 540 0
DWIDTH 9 0
BBX 9 12 0 0
BITMAP
2000
2000
2000
FC00
2000
2000
2000
3F00
2080
2080
2100
3F00
ENDCHAR
STARTCHAR 046A
ENCODING 1130
SWIDTH 840 0
DWIDTH 14 0
BBX 12 11 1 0
BITMAP
7FF0
4020
2040
1080
0900
0600
1D80
6440
4420
8420
8410
ENDCHAR
STARTCHAR 046B
ENCODING 1131
SWIDTH 600 0
DWIDTH 10 0
BBX 9 9 1 0
BITMAP
FF00
8200
4200
2400
1800
7600
9100
9100
0080
ENDCHAR
STARTCHAR 0472
ENCODING 1138
SWIDTH 840 0
DWIDTH 14 0
BBX 12 12 1 0
BITMAP
0F00
30C0
4020
8010
8010
8010
FFF0
8010
8010
4020
2040
1F80
ENDCHAR
STARTCHAR 0473
ENCODING 1139
SWIDTH 600 0
DWIDTH 10 0
BBX 9 9 1 0
BITMAP
1C00
6200
8100
8100
8080
FF80
8100
8100
7E00
ENDCHAR
STARTCHAR 0474
ENCODING 1140
SWIDTH 720 0
DWIDTH 12 0
BBX 12 12 0 0
BITMAP
0030
8040
4080
4080
2100
2100
2100
1200
1200
0A00
0C00
0400
ENDCHAR
STARTCHAR 0475
ENCODING 1141
SWIDTH 480 0
DWIDTH 8 0
BBX 9 9 0 0
BITMAP
8080
8300
4200
4200
4400
2400
2800
1800
0800
ENDCHAR
STARTCHAR 048A
ENCODING 1162
SWIDTH 840 0
DWIDTH 14 0
BBX 11 16 2 -3
BITMAP
0200
1C00
8000
8080
8180
8280
8480
8480
8880
9080
A080
C080
C080
8000
0020
0020
ENDCHAR
STARTCHAR 048B
ENCODING 1163
SWIDTH 660 0
DWIDTH 11 0
BBX 9 13 2 -2
BITMAP
4400
2800
1000
0000
8600
8600
8A00
9200
A200
C200
8200
8000
0080
ENDCHAR
STARTCHAR 048C
ENCODING 1164
SWIDTH 720 0
DWIDTH 12 0
BBX 9 11 2 1
BITMAP
8000
F000
8000
8000
FF00
8080
8080
8080
8080
8080
FF00
ENDCHAR
STARTCHAR 048D
ENCODING 1165
SWIDTH 540 0
DWIDTH 9 0
BBX 8 9 1 0
BITMAP
40
40
F0
40
7E
41
41
41
7E
ENDCHAR
STARTCHAR 048E
ENCODING 1166
SWIDTH 720 0
DWIDTH 12 0
BBX 9 12 2 0
BITMAP
FC00
8300
8100
8080
8880
8880
8500
8200
FD00
8000
8000
8000
ENDCHAR
STARTCHAR 048F
ENCODING 1167
SWIDTH 660 0
DWIDTH 11 0
BBX 8 11 2 -3
BITMAP
18
E6
81
81
81
81
81
86
E6
99
80
ENDCHAR
STARTCHAR 0490
ENCODING 1168
SWIDTH 540 0
DWIDTH 9 0
BBX 7 13 2 1
BITMAP
02
FE
80
80
80
80
80
80
80
80
80
80
80
ENDCHAR
STARTCHAR 0491
ENCODING 1169
SWIDTH 360 0
DWIDTH 6 0
BBX 5 8 2 1
BITMAP
F8
80
80
80
80
80
80
80
ENDCHAR
STARTCHAR 0492
ENCODING 1170
SWIDTH 540 0
DWIDTH 9 0
BBX 9 11 1 0
BITMAP
3F80
4000
4000
4000
4000
4000
FE00
4000
4000
4000
4000
ENDCHAR
STARTCHAR 0493
ENCODING 1171
SWIDTH 420 0
DWIDTH 7 0
BBX 6 9 2 0
BITMAP
FC
80
80
80
80
F0
80
80
80
ENDCHAR
STARTCHAR 0494
ENCODING 1172
SWIDTH 660 0
DWIDTH 11 0
BBX 9 14 2 -2
BITMAP
FF00
8000
8000
8000
8000
9C00
E200
8100
8100
8080
8100
8100
0100
0E00
ENDCHAR
STARTCHAR 0495
ENCODING 1173
SWIDTH 540 0
DWIDTH 9 0
BBX 7 12 2 -3
BITMAP
F8
80
80
80
90
EC
82
82
02
02
04
1C
ENDCHAR
STARTCHAR 0496
ENCODING 1174
SWIDTH 1020 0
DWIDTH 17 0
BBX 16 14 1 -2
BITMAP
8204
4208
2210
2220
1220
06A0
3220
2210
4208
8204
0000
0001
0001
0001
ENDCHAR
STARTCHAR 0497
ENCODING 1175
SWIDTH 780 0
DWIDTH 13 0
BBX 13 11 1 -2
BITMAP
0400
8460
4440
4480
3F00
2480
4440
8440
0420
0008
0008
ENDCHAR
STARTCHAR 0498
ENCODING 1176
SWIDTH 600 0
DWIDTH 10 0
BBX 7 14 2 -3
BITMAP
70
8C
04
02
04
08
34
02
02
02
04
88
70
20
ENDCHAR
STARTCHAR 0499
ENCODING 1177
SWIDTH 480 0
DWIDTH 8 0
BBX 6 10 1 -2
BITMAP
30
4C
04
04
38
0C
04
04
88
70
ENDCHAR
STARTCHAR 049A
ENCODING 1178
SWIDTH 720 0
DWIDTH 12 0
BBX 10 14 2 -3
BITMAP
8000
8100
8200
8400
8800
8000
E000
8800
8400
8200
8100
8080
0000
0040
ENDCHAR
STARTCHAR 049B
ENCODING 1179
SWIDTH 540 0
DWIDTH 9 0
BBX 8 9 2 -1
BITMAP
84
88
90
E0
90
88
88
04
03
ENDCHAR
STARTCHAR 049C
ENCODING 1180
SWIDTH 660 0
DWIDTH 11 0
BBX 9 12 2 0
BITMAP
8080
8100
8200
8400
A400
A000
E800
A400
8400
8200
8100
8080
ENDCHAR
STARTCHAR 049D
ENCODING 1181
SWIDTH 540 0
DWIDTH 9 0
BBX 7 9 2 0
BITMAP
02
84
88
D0
E0
D0
88
84
02
ENDCHAR
STARTCHAR 049E
ENCODING 1182
SWIDTH 660 0
DWIDTH 11 0
BBX 9 12 2 0
BITMAP
0080
8100
F200
8400
8400
8800
A800
8400
8400
8200
8100
0080
ENDCHAR
STARTCHAR 049F
ENCODING 1183
SWIDTH 540 0
DWIDTH 9 0
BBX 8 11 0 1
BITMAP
F8
40
40
41
42
44
38
44
42
42
01
ENDCHAR
STARTCHAR 04A0
ENCODING 1184
SWIDTH 780 0
DWIDTH 13 0
BBX 12 12 0 0
BITMAP
F000
1020
1020
1040
1080
1000
1600
1080
1040
1020
1020
0010
ENDCHAR
STARTCHAR 04A1
ENCODING 1185
SWIDTH 540 0
DWIDTH 9 0
BBX 9 9 0 0
BITMAP
E000
2100
2100
2200
1C00
2400
2200
2100
0080
ENDCHAR
STARTCHAR 04A2
ENCODING 1186
SWIDTH 840 0
DWIDTH 14 0
BBX 11 14 2 -3
BITMAP
8000
8080
8080
8080
8080
8080
BF80
8080
8080
8080
8080
8000
0020
0020
ENDCHAR
STARTCHAR 04A3
ENCODING 1187
SWIDTH 660 0
DWIDTH 11 0
BBX 9 10 2 -1
BITMAP
8200
8200
8200
FE00
8200
8200
8200
0000
0080
0080
ENDCHAR
STARTCHAR 04A4
ENCODING 1188
SWIDTH 1080 0
DWIDTH 18 0
BBX 16 12 2 0
BITMAP
807F
8080
8080
8080
8080
8080
BF80
8080
8080
8080
8080
8000
ENDCHAR
STARTCHAR 04A5
ENCODING 1189
SWIDTH 840 0
DWIDTH 14 0
BBX 12 9 2 0
BITMAP
01F0
8200
8200
8200
FE00
8200
8200
8200
0200
ENDCHAR
STARTCHAR 04A6
ENCODING 1190
SWIDTH 1200 0
DWIDTH 20 0
BBX 17 14 2 -2
BITMAP
FFC000
804000
804000
804000
804000
804E00
807100
804080
804080
804080
804080
804080
000080
000700
ENDCHAR
STARTCHAR 04A7
ENCODING 1191
SWIDTH 900 0
DWIDTH 15 0
BBX 13 12 2 -3
BITMAP
FE00
8200
8200
8200
8260
8290
8208
8208
0208
0008
0008
0070
ENDCHAR
STARTCHAR 04A8
ENCODING 1192
SWIDTH 960 0
DWIDTH 16 0
BBX 14 12 1 0
BITMAP
10E0
6310
4408
8808
8808
8808
8808
8808
8408
4210
2120
1FFC
ENDCHAR
STARTCHAR 04A9
ENCODING 1193
SWIDTH 720 0
DWIDTH 12 0
BBX 10 9 1 0
BITMAP
2300
4CC0
9040
9040
9040
9040
8840
4880
3FC0
ENDCHAR
STARTCHAR 04AA
ENCODING 1194
SWIDTH 660 0
DWIDTH 11 0
BBX 10 14 1 -3
BITMAP
0F00
30C0
4000
8000
8000
8000
8000
8000
8000
4000
2000
1080
0F00
0400
ENDCHAR
STARTCHAR 04AB
ENCODING 1195
SWIDTH 540 0
DWIDTH 9 0
BBX 6 10 1 -2
BITMAP
1C
60
80
80
80
80
80
80
64
18
ENDCHAR
STARTCHAR 04AC
ENCODING 1196
SWIDTH 540 0
DWIDTH 9 0
BBX 9 15 0 -3
BITMAP
FF80
0800
0800
0800
0800
0800
0800
0800
0800
0800
0800
0800
0600
0200
0200
ENDCHAR
STARTCHAR 04AD
ENCODING 1197
SWIDTH 420 0
DWIDTH 7 0
BBX 7 10 0 -2
BITMAP
FE
10
10
10
10
10
10
10
10
08
ENDCHAR
STARTCHAR 04AE
ENCODING 1198
SWIDTH 600 0
DWIDTH 10 0
BBX 10 11 0 0
BITMAP
8000
80C0
4080
2100
2100
1200
1400
0C00
0800
0800
0800
ENDCHAR
STARTCHAR 04AF
ENCODING 1199
SWIDTH 480 0
DWIDTH 8 0
BBX 8 12 0 -3
BITMAP
80
81
41
42
22
24
24
18
08
08
08
08
ENDCHAR
STARTCHAR 04B0
ENCODING 1200
SWIDTH 600 0
DWIDTH 10 0
BBX 10 11 0 0
BITMAP
8000
80C0
4080
2100
2100
1200
1400
0C00
1B00
0800
0800
ENDCHAR
STARTCHAR 04B1
ENCODING 1201
SWIDTH 480 0
DWIDTH 8 0
BBX 8 12 0 -3
BITMAP
80
81
41
42
22
24
24
18
08
3E
08
08
ENDCHAR
STARTCHAR 04B2
ENCODING 1202
SWIDTH 660 0
DWIDTH 11 0
BBX 10 14 1 -2
BITMAP
8100
4200
2400
2800
1800
0800
3800
4400
4200
8100
0000
00C0
0040
0040
ENDCHAR
STARTCHAR 04B3
ENCODING 1203
SWIDTH 480 0
DWIDTH 8 0
BBX 8 10 1 -1
BITMAP
84
48
30
20
30
48
84
00
01
01
ENDCHAR
STARTCHAR 04B4
ENCODING 1204
SWIDTH 900 0
DWIDTH 15 0
BBX 15 14 0 -3
BITMAP
FF80
0808
0808
0808
0808
0808
0808
0808
0808
0808
0808
0808
07F2
0002
ENDCHAR
STARTCHAR 04B5
ENCODING 1205
SWIDTH 720 0
DWIDTH 12 0
BBX 10 10 0 -2
BITMAP
FE00
1040
1040
1040
1040
1040
1040
1040
1040
0F80
ENDCHAR
STARTCHAR 04B6
ENCODING 1206
SWIDTH 720 0
DWIDTH 12 0
BBX 11 15 1 -3
BITMAP
8080
8080
8080
8080
8080
8080
8080
7F80
0080
0080
0080
0080
0060
0020
0020
ENDCHAR
STARTCHAR 04B7
ENCODING 1207
SWIDTH 540 0
DWIDTH 9 0
BBX 8 10 1 -2
BITMAP
02
82
82
82
82
4E
32
02
02
01
ENDCHAR
STARTCHAR 04B8
ENCODING 1208
SWIDTH 720 0
DWIDTH 12 0
BBX 9 12 1 0
BITMAP
8080
8080
8080
8080
8080
8880
8880
7F80
0880
0880
0880
0080
ENDCHAR
STARTCHAR 04B9
ENCODING 1209
SWIDTH 540 0
DWIDTH 9 0
BBX 7 9 1 0
BITMAP
02
82
82
92
92
5E
32
12
02
ENDCHAR
STARTCHAR 04BA
ENCODING 1210
SWIDTH 720 0
DWIDTH 12 0
BBX 9 12 2 0
BITMAP
8000
8000
8000
8000
8000
FF00
8080
8080
8080
8080
8080
8080
ENDCHAR
STARTCHAR 04BB
ENCODING 1211
SWIDTH 660 0
DWIDTH 11 0
BBX 7 10 2 1
BITMAP
80
80
98
E6
82
82
82
82
82
82
ENDCHAR
STARTCHAR 04BC
ENCODING 1212
SWIDTH 900 0
DWIDTH 15 0
BBX 14 12 1 0
BITMAP
01C0
0E30
1008
2008
A004
A004
7FF8
2000
2000
1000
0808
07F0
ENDCHAR
STARTCHAR 04BD
ENCODING 1213
SWIDTH 660 0
DWIDTH 11 0
BBX 11 9 0 0
BITMAP
0300
1CC0
1020
A020
7FE0
2000
2000
1000
0F80
ENDCHAR
STARTCHAR 04BE
ENCODING 1214
SWIDTH 900 0
DWIDTH 15 0
BBX 14 14 1 -3
BITMAP
01C0
0E30
1008
2008
A004
A004
7FF8
2000
2000
1000
0808
0630
01C0
0100
ENDCHAR
STARTCHAR 04BF
ENCODING 1215
SWIDTH 660 0
DWIDTH 11 0
BBX 11 10 0 -2
BITMAP
0300
1CC0
1020
A020
7FE0
2000
2000
1000
0C80
0300
ENDCHAR
STARTCHAR 04C0
ENCODING 1216
SWIDTH 240 0
DWIDTH 4 0
BBX 1 12 2 0
BITMAP
80
80
80
80
80
80
80
80
80
80
80
80
ENDCHAR
STARTCHAR 04C1
ENCODING 1217
SWIDTH 960 0
DWIDTH 16 0
BBX 14 12 1 1
BITMAP
0380
0000
8204
4208
2210
2220
1220
06A0
3220
2210
4208
8204
ENDCHAR
STARTCHAR 04C2
ENCODING 1218
SWIDTH 720 0
DWIDTH 12 0
BBX 11 12 1 0
BITMAP
1100
0A00
0400
0400
8460
4440
4480
3F00
2480
4440
8440
0420
ENDCHAR
STARTCHAR 04C3
ENCODING 1219
SWIDTH 660 0
DWIDTH 11 0
BBX 9 15 2 -3
BITMAP
8000
8100
8200
8400
8800
8000
E000
8400
8400
8200
8100
8100
0080
0080
0300
ENDCHAR
STARTCHAR 04C4
ENCODING 1220
SWIDTH 540 0
DWIDTH 9 0
BBX 7 11 2 -2
BITMAP
84
88
90
E0
90
88
84
04
02
02
0C
ENDCHAR
STARTCHAR 04C6
ENCODING 1222
SWIDTH 600 0
DWIDTH 10 0
BBX 9 10 1 -2
BITMAP
3E00
4200
4200
4200
4200
4200
8200
8200
8000
0080
ENDCHAR
STARTCHAR 04C7
ENCODING 1223
SWIDTH 780 0
DWIDTH 13 0
BBX 9 15 2 -3
BITMAP
8000
8080
8080
8080
8080
8080
FF80
8080
8080
8080
8080
8080
0080
0080
0180
ENDCHAR
STARTCHAR 04C8
ENCODING 1224
SWIDTH 660 0
DWIDTH 11 0
BBX 7 11 2 -2
BITMAP
82
82
82
FE
82
82
82
02
02
02
0E
ENDCHAR
STARTCHAR 04C9
ENCODING 1225
SWIDTH 780 0
DWIDTH 13 0
BBX 11 14 2 -3
BITMAP
8000
8080
8080
8080
8080
8080
BF80
8080
8080
8080
8080
8000
0020
0020
ENDCHAR
STARTCHAR 04CA
ENCODING 1226
SWIDTH 660 0
DWIDTH 11 0
BBX 7 7 2 -1
BITMAP
82
82
82
FE
82
82
82
ENDCHAR
STARTCHAR 04CB
ENCODING 1227
SWIDTH 720 0
DWIDTH 12 0
BBX 9 15 1 -3
BITMAP
8080
8080
8080
8080
8080
8080
8080
7F80
0080
0080
0080
0080
0300
0200
0200
ENDCHAR
STARTCHAR 04CC
ENCODING 1228
SWIDTH 540 0
DWIDTH 9 0
BBX 7 10 1 -2
BITMAP
02
82
82
82
82
4A
32
02
02
04
ENDCHAR
STARTCHAR 04CD
ENCODING 1229
SWIDTH 960 0
DWIDTH 16 0
BBX 13 15 2 -3
BITMAP
8010
8010
C030
C050
A090
9090
9110
8910
8A10
8610
8010
8010
0008
0008
0008
ENDCHAR
STARTCHAR 04CE
ENCODING 1230
SWIDTH 780 0
DWIDTH 13 0
BBX 9 7 2 -1
BITMAP
8180
C180
C280
A280
A480
9880
8880
ENDCHAR
STARTCHAR 04CF
ENCODING 1231
SWIDTH 240 0
DWIDTH 4 0
BBX 1 10 2 1
BITMAP
80
80
80
80
80
80
80
80
80
80
ENDCHAR
STARTCHAR 04D0
ENCODING 1232
SWIDTH 660 0
DWIDTH 11 0
BBX 11 12 0 1
BITMAP
0600
0000
0600
0A00
0900
1100
1080
2080
2080
5F40
4040
8020
ENDCHAR
STARTCHAR 04D1
ENCODING 1233
SWIDTH 540 0
DWIDTH 9 0
BBX 7 12 1 0
BITMAP
44
28
10
38
C4
02
02
3E
C2
82
82
7E
ENDCHAR
STARTCHAR 04D2
ENCODING 1234
SWIDTH 660 0
DWIDTH 11 0
BBX 11 13 0 0
BITMAP
0900
0000
0000
0600
0A00
0900
1100
1080
2080
2080
5F40
4040
8020
ENDCHAR
STARTCHAR 04D3
ENCODING 1235
SWIDTH 540 0
DWIDTH 9 0
BBX 7 9 1 3
BITMAP
38
C4
02
02
3E
C2
82
82
7E
ENDCHAR
STARTCHAR 04D4
ENCODING 1236
SWIDTH 960 0
DWIDTH 16 0
BBX 14 12 1 0
BITMAP
01FC
0600
0600
0A00
1200
1200
22F8
4200
5E00
8200
8200
01FC
ENDCHAR
STARTCHAR 04D5
ENCODING 1237
SWIDTH 960 0
DWIDTH 16 0
BBX 14 9 1 0
BITMAP
3870
C588
0204
0204
3FFC
C200
8200
8500
78F8
ENDCHAR
STARTCHAR 04D6
ENCODING 1238
SWIDTH 600 0
DWIDTH 10 0
BBX 8 13 2 1
BITMAP
18
FF
80
80
80
80
80
BC
80
80
80
80
FE
ENDCHAR
STARTCHAR 04D7
ENCODING 1239
SWIDTH 600 0
DWIDTH 10 0
BBX 8 11 1 1
BITMAP
28
10
18
66
81
81
FF
80
80
80
7E
ENDCHAR
STARTCHAR 04D8
ENCODING 1240
SWIDTH 780 0
DWIDTH 13 0
BBX 12 12 1 0
BITMAP
0E00
7180
0040
0020
0020
0010
FFD0
8020
8020
8020
4040
3F80
ENDCHAR
STARTCHAR 04D9
ENCODING 1241
SWIDTH 540 0
DWIDTH 9 0
BBX 8 9 1 0
BITMAP
38
46
02
01
01
FF
81
82
7C
ENDCHAR
STARTCHAR 04DA
ENCODING 1242
SWIDTH 780 0
DWIDTH 13 0
BBX 12 14 1 0
BITMAP
0900
0000
0E00
7180
0040
0020
0020
0010
FFD0
8020
8020
8020
4040
3F80
ENDCHAR
STARTCHAR 04DB
ENCODING 1243
SWIDTH 540 0
DWIDTH 9 0
BBX 8 12 1 0
BITMAP
20
00
00
38
46
02
01
01
FF
81
82
7C
ENDCHAR
STARTCHAR 04DC
ENCODING 1244
SWIDTH 960 0
DWIDTH 16 0
BBX 14 13 1 0
BITMAP
0480
0000
0000
8204
4208
2210
2220
1220
06A0
3220
2210
4208
8204
ENDCHAR
STARTCHAR 04DD
ENCODING 1245
SWIDTH 720 0
DWIDTH 12 0
BBX 11 9 1 3
BITMAP
0400
8460
4440
4480
3F00
2480
4440
8440
0420
ENDCHAR
STARTCHAR 04DE
ENCODING 1246
SWIDTH 600 0
DWIDTH 10 0
BBX 7 14 2 0
BITMAP
48
00
70
8C
04
02
04
08
34
02
02
02
04
F8
ENDCHAR
STARTCHAR 04DF
ENCODING 1247
SWIDTH 480 0
DWIDTH 8 0
BBX 6 12 1 0
BITMAP
48
00
00
30
4C
04
04
38
0C
04
04
F8
ENDCHAR
STARTCHAR 04E0
ENCODING 1248
SWIDTH 540 0
DWIDTH 9 0
BBX 8 12 1 0
BITMAP
FE
02
04
08
10
20
1E
01
01
01
02
7C
ENDCHAR
STARTCHAR 04E1
ENCODING 1249
SWIDTH 480 0
DWIDTH 8 0
BBX 7 12 0 -3
BITMAP
FE
04
04
08
10
20
1C
02
02
02
02
FC
ENDCHAR
STARTCHAR 04E2
ENCODING 1250
SWIDTH 780 0
DWIDTH 13 0
BBX 9 14 2 0
BITMAP
1E00
0000
8000
8080
8180
8280
8480
8480
8880
9080
A080
C080
C080
8000
ENDCHAR
STARTCHAR 04E3
ENCODING 1251
SWIDTH 660 0
DWIDTH 11 0
BBX 7 11 2 0
BITMAP
38
00
00
86
86
8A
92
A2
C2
82
80
ENDCHAR
STARTCHAR 04E4
ENCODING 1252
SWIDTH 780 0
DWIDTH 13 0
BBX 9 14 2 0
BITMAP
1200
0000
8000
8080
8180
8280
8480
8480
8880
9080
A080
C080
C080
8000
ENDCHAR
STARTCHAR 04E5
ENCODING 1253
SWIDTH 660 0
DWIDTH 11 0
BBX 7 8 2 4
BITMAP
86
86
8A
92
A2
C2
82
80
ENDCHAR
STARTCHAR 04E6
ENCODING 1254
SWIDTH 840 0
DWIDTH 14 0
BBX 12 14 1 0
BITMAP
0900
0000
0F00
30C0
4020
8010
8010
8010
8010
8010
8010
4020
2040
1F80
ENDCHAR
STARTCHAR 04E7
ENCODING 1255
SWIDTH 600 0
DWIDTH 10 0
BBX 8 12 1 0
BITMAP
04
00
00
18
66
81
81
81
81
81
81
7E
ENDCHAR
STARTCHAR 04E8
ENCODING 1256
SWIDTH 840 0
DWIDTH 14 0
BBX 12 12 1 0
BITMAP
0F00
30C0
4020
8010
8010
8010
FFF0
8010
8010
4020
2040
1F80
ENDCHAR
STARTCHAR 04E9
ENCODING 1257
SWIDTH 600 0
DWIDTH 10 0
BBX 9 9 1 0
BITMAP
1C00
6200
8100
8100
8080
FF80
8100
8100
7E00
ENDCHAR
STARTCHAR 04EA
ENCODING 1258
SWIDTH 840 0
DWIDTH 14 0
BBX 12 14 1 0
BITMAP
0900
0000
0F00
30C0
4020
8010
8010
8010
FFF0
8010
8010
4020
2040
1F80
ENDCHAR
STARTCHAR 04EB
ENCODING 1259
SWIDTH 600 0
DWIDTH 10 0
BBX 9 12 1 0
BITMAP
0400
0000
0000
1C00
6200
8100
8100
8080
FF80
8100
8100
7E00
ENDCHAR
STARTCHAR 04EC
ENCODING 1260
SWIDTH 660 0
DWIDTH 11 0
BBX 10 14 1 0
BITMAP
2400
0000
3C00
C200
0100
0080
0080
0040
1F40
0080
0080
0080
0100
7E00
ENDCHAR
STARTCHAR 04ED
ENCODING 1261
SWIDTH 540 0
DWIDTH 9 0
BBX 7 12 1 0
BITMAP
08
00
00
30
4C
02
02
3E
02
02
04
F8
ENDCHAR
STARTCHAR 04EE
ENCODING 1262
SWIDTH 600 0
DWIDTH 10 0
BBX 11 14 0 0
BITMAP
1F00
0000
0020
8040
4080
2080
2100
1100
1200
0A00
0C00
0400
0800
3000
ENDCHAR
STARTCHAR 04EF
ENCODING 1263
SWIDTH 480 0
DWIDTH 8 0
BBX 8 14 0 -3
BITMAP
18
00
80
81
41
42
22
24
24
18
08
10
10
60
ENDCHAR
STARTCHAR 04F0
ENCODING 1264
SWIDTH 600 0
DWIDTH 10 0
BBX 11 14 0 0
BITMAP
0200
0000
0020
8040
4080
2080
2100
1100
1200
0A00
0C00
0400
0800
3000
ENDCHAR
STARTCHAR 04F1
ENCODING 1265
SWIDTH 480 0
DWIDTH 8 0
BBX 8 15 0 -3
BITMAP
04
00
00
80
81
41
42
22
24
24
18
08
10
10
60
ENDCHAR
STARTCHAR 04F2
ENCODING 1266
SWIDTH 600 0
DWIDTH 10 0
BBX 11 14 0 0
BITMAP
0500
0000
0020
8040
4080
2080
2100
1100
1200
0A00
0C00
0400
0800
3000
ENDCHAR
STARTCHAR 04F3
ENCODING 1267
SWIDTH 480 0
DWIDTH 8 0
BBX 8 15 0 -3
BITMAP
0A
14
00
80
81
41
42
22
24
24
18
08
10
10
60
ENDCHAR
STARTCHAR 04F4
ENCODING 1268
SWIDTH 720 0
DWIDTH 12 0
BBX 9 14 1 0
BITMAP
1400
0000
8080
8080
8080
8080
8080
8080
8080
7F80
0080
0080
0080
0080
ENDCHAR
STARTCHAR 04F5
ENCODING 1269
SWIDTH 540 0
DWIDTH 9 0
BBX 7 12 1 0
BITMAP
08
00
00
02
82
82
82
82
4E
32
02
02
ENDCHAR
STARTCHAR 04F6
ENCODING 1270
SWIDTH 540 0
DWIDTH 9 0
BBX 7 15 2 -3
BITMAP
FE
80
80
80
80
80
80
80
80
80
80
80
60
20
20
ENDCHAR
STARTCHAR 04F7
ENCODING 1271
SWIDTH 420 0
DWIDTH 7 0
BBX 6 11 2 -2
BITMAP
FC
80
80
80
80
80
80
80
00
40
40
ENDCHAR
STARTCHAR 04F8
ENCODING 1272
SWIDTH 900 0
DWIDTH 15 0
BBX 12 14 2 0
BITMAP
0900
0000
8010
8010
8010
8010
8010
FF10
8110
8090
8090
8090
8110
FE10
ENDCHAR
STARTCHAR 04F9
ENCODING 1273
SWIDTH 720 0
DWIDTH 12 0
BBX 8 8 2 4
BITMAP
81
81
81
FD
85
85
85
F8
ENDCHAR
STARTCHAR 04FA
ENCODING 1274
SWIDTH 540 0
DWIDTH 9 0
BBX 9 15 1 -3
BITMAP
3F80
4000
4000
4000
4000
4000
FE00
4000
4000
4000
4000
0000
1000
1000
7000
ENDCHAR
STARTCHAR 04FB
ENCODING 1275
SWIDTH 420 0
DWIDTH 7 0
BBX 7 12 0 -3
BITMAP
3E
20
20
20
20
3C
20
20
20
10
10
F0
ENDCHAR
STARTCHAR 04FC
ENCODING 1276
SWIDTH 600 0
DWIDTH 10 0
BBX 9 14 1 -2
BITMAP
8100
4200
2400
2800
1800
0800
3800
4400
4200
8100
0100
0080
0080
0300
ENDCHAR
STARTCHAR 04FD
ENCODING 1277
SWIDTH 480 0
DWIDTH 8 0
BBX 7 11 1 -2
BITMAP
84
48
50
20
30
48
84
04
02
02
0C
ENDCHAR
STARTCHAR 04FE
ENCODING 1278
SWIDTH 600 0
DWIDTH 10 0
BBX 9 12 1 0
BITMAP
8000
8100
4200
2400
2400
1800
3E00
2400
2400
4200
8100
8080
ENDCHAR
STARTCHAR 04FF
ENCODING 1279
SWIDTH 480 0
DWIDTH 8 0
BBX 7 9 1 0
BITMAP
02
84
48
30
7C
30
48
84
82
ENDCHAR
STARTCHAR 0510
ENCODING 1296
SWIDTH 600 0
DWIDTH 10 0
BBX 9 12 1 0
BITMAP
1C00
6200
8000
8000
8000
6000
5C00
8000
8000
8000
8080
7F00
ENDCHAR
STARTCHAR 0511
ENCODING 1297
SWIDTH 480 0
DWIDTH 8 0
BBX 6 9 1 0
BITMAP
38
C4
80
80
78
C0
80
80
7C
ENDCHAR
STARTCHAR 0512
ENCODING 1298
SWIDTH 720 0
DWIDTH 12 0
BBX 10 15 1 -3
BITMAP
3FC0
2040
2040
2040
2040
2040
4040
4040
4040
4040
4040
0040
8040
0040
0180
ENDCHAR
STARTCHAR 0513
ENCODING 1299
SWIDTH 600 0
DWIDTH 10 0
BBX 7 12 1 -3
BITMAP
3E
42
42
42
42
42
82
82
82
02
02
0E
ENDCHAR
STARTCHAR 051A
ENCODING 1306
SWIDTH 840 0
DWIDTH 14 0
BBX 12 14 1 -2
BITMAP
0F00
30C0
4020
8010
8010
8010
8010
8010
8010
4020
2040
1080
0F00
01F0
ENDCHAR
STARTCHAR 051B
ENCODING 1307
SWIDTH 660 0
DWIDTH 11 0
BBX 8 11 1 -3
BITMAP
18
67
81
81
81
81
81
83
65
19
01
ENDCHAR
STARTCHAR 051C
ENCODING 1308
SWIDTH 1020 0
DWIDTH 17 0
BBX 16 12 1 0
BITMAP
0101
8302
8282
8282
8484
4444
4444
4848
2828
2828
3030
1010
ENDCHAR
STARTCHAR 051D
ENCODING 1309
SWIDTH 900 0
DWIDTH 15 0
BBX 15 9 0 0
BITMAP
8102
8304
4284
4488
4488
2448
2850
1830
1020
ENDCHAR
STARTCHAR 0524
ENCODING 1316
SWIDTH 840 0
DWIDTH 14 0
BBX 12 15 2 -3
BITMAP
FFC0
8040
8040
8040
8040
8040
8040
8040
8040
8040
8040
8040
0030
0010
0010
ENDCHAR
STARTCHAR 0525
ENCODING 1317
SWIDTH 660 0
DWIDTH 11 0
BBX 9 11 2 -2
BITMAP
FE00
8200
8200
8200
8200
8200
8200
8200
0000
0080
0080
ENDCHAR
STARTCHAR 0526
ENCODING 1318
SWIDTH 780 0
DWIDTH 13 0
BBX 11 15 2 -3
BITMAP
8000
8000
8000
8000
8000
FF00
8080
8080
8080
8080
8080
8080
0060
0020
0020
ENDCHAR
STARTCHAR 0527
ENCODING 1319
SWIDTH 660 0
DWIDTH 11 0
BBX 9 13 2 -1
BITMAP
8000
8000
9800
E600
8200
8200
8200
8200
8200
8200
0000
0080
0080
ENDCHAR
STARTCHAR 0528
ENCODING 1320
SWIDTH 780 0
DWIDTH 13 0
BBX 11 15 0 -3
BITMAP
2000
2020
2020
2020
2020
2020
3FE0
2020
2020
2020
2020
2000
2000
2000
C000
ENDCHAR
STARTCHAR 0529
ENCODING 1321
SWIDTH 660 0
DWIDTH 11 0
BBX 9 11 0 -2
BITMAP
4080
4080
4080
7F80
4080
4080
4080
4000
4000
4000
C000
ENDCHAR
STARTCHAR 052E
ENCODING 1326
SWIDTH 780 0
DWIDTH 13 0
BBX 12 15 1 -3
BITMAP
3FC0
2040
2040
2040
2040
2040
4040
4040
4040
4040
4040
0040
8030
0010
0010
ENDCHAR
STARTCHAR 052F
ENCODING 1327
SWIDTH 600 0
DWIDTH 10 0
BBX 9 11 1 -2
BITMAP
3E00
4200
4200
4200
4200
4200
8200
8200
8000
0080
0080
ENDCHAR
STARTCHAR 1E08
ENCODING 7688
SWIDTH 660 0
DWIDTH 11 0
BBX 10 18 1 -4
BITMAP
0200
0000
0F00
30C0
4000
8000
8000
8000
8000
8000
8000
8000
4000
3080
0F00
0200
0200
0400
ENDCHAR
STARTCHAR 1E09
ENCODING 7689
SWIDTH 540 0
DWIDTH 9 0
BBX 6 15 1 -3
BITMAP
08
00
18
64
80
80
80
80
80
80
64
18
08
08
10
ENDCHAR
STARTCHAR 1E0C
ENCODING 7692
SWIDTH 780 0
DWIDTH 13 0
BBX 11 15 2 -3
BITMAP
FC00
8380
8040
8040
8020
8020
8020
8020
8040
8040
8080
8300
7C00
0000
0800
ENDCHAR
STARTCHAR 1E0D
ENCODING 7693
SWIDTH 660 0
DWIDTH 11 0
BBX 8 14 1 -2
BITMAP
01
01
19
67
81
81
81
81
81
83
64
18
00
08
ENDCHAR
STARTCHAR 1E0E
ENCODING 7694
SWIDTH 780 0
DWIDTH 13 0
BBX 11 15 2 -3
BITMAP
FC00
8380
8040
8040
8020
8020
8020
8020
8040
8040
8080
8300
7C00
0000
3E00
ENDCHAR
STARTCHAR 1E0F
ENCODING 7695
SWIDTH 660 0
DWIDTH 11 0
BBX 8 14 1 -2
BITMAP
01
01
19
67
81
81
81
81
81
83
64
18
00
3E
ENDCHAR
STARTCHAR 1E14
ENCODING 7700
SWIDTH 660 0
DWIDTH 11 0
BBX 8 16 2 0
BITMAP
20
10
00
18
FF
80
80
80
80
80
FC
80
80
80
80
FE
ENDCHAR
STARTCHAR 1E15
ENCODING 7701
SWIDTH 540 0
DWIDTH 9 0
BBX 8 14 1 0
BITMAP
20
10
00
18
00
18
66
82
81
FF
80
80
80
7C
ENDCHAR
STARTCHAR 1E16
ENCODING 7702
SWIDTH 660 0
DWIDTH 11 0
BBX 8 16 2 0
BITMAP
08
00
00
18
FF
80
80
80
80
80
FC
80
80
80
80
FE
ENDCHAR
STARTCHAR 1E17
ENCODING 7703
SWIDTH 540 0
DWIDTH 9 0
BBX 8 14 1 0
BITMAP
04
08
00
18
00
18
66
82
81
FF
80
80
80
7C
ENDCHAR
STARTCHAR 1E1C
ENCODING 7708
SWIDTH 660 0
DWIDTH 11 0
BBX 8 16 2 -3
BITMAP
18
FF
80
80
80
80
80
FC
80
80
80
80
80
7E
08
08
ENDCHAR
STARTCHAR 1E1D
ENCODING 7709
SWIDTH 540 0
DWIDTH 9 0
BBX 8 15 1 -3
BITMAP
28
10
18
66
82
81
FF
80
80
80
64
18
08
08
10
ENDCHAR
STARTCHAR 1E20
ENCODING 7712
SWIDTH 720 0
DWIDTH 12 0
BBX 10 14 1 0
BITMAP
1F00
0000
0F00
30C0
4000
8000
8000
8000
8000
8040
8040
8040
4000
3F80
ENDCHAR
STARTCHAR 1E21
ENCODING 7713
SWIDTH 660 0
DWIDTH 11 0
BBX 8 14 1 -3
BITMAP
1C
00
18
67
81
81
81
81
81
43
3D
01
01
7E
ENDCHAR
STARTCHAR 1E24
ENCODING 7716
SWIDTH 780 0
DWIDTH 13 0
BBX 9 15 2 -3
BITMAP
8000
8080
8080
8080
8080
8080
FF80
8080
8080
8080
8080
8000
0000
0000
0800
ENDCHAR
STARTCHAR 1E25
ENCODING 7717
SWIDTH 660 0
DWIDTH 11 0
BBX 7 14 2 -2
BITMAP
80
80
98
E6
82
82
82
82
82
82
00
00
00
10
ENDCHAR
STARTCHAR 1E2A
ENCODING 7722
SWIDTH 780 0
DWIDTH 13 0
BBX 9 15 2 -3
BITMAP
8000
8080
8080
8080
8080
8080
FF80
8080
8080
8080
8080
8000
0000
0000
2E00
ENDCHAR
STARTCHAR 1E2B
ENCODING 7723
SWIDTH 660 0
DWIDTH 11 0
BBX 7 14 2 -2
BITMAP
80
80
98
E6
82
82
82
82
82
82
00
00
44
78
ENDCHAR
STARTCHAR 1E2E
ENCODING 7726
SWIDTH 240 0
DWIDTH 4 0
BBX 2 16 2 0
BITMAP
80
00
40
00
80
80
80
80
80
80
80
80
80
80
80
80
ENDCHAR
STARTCHAR 1E2F
ENCODING 7727
SWIDTH 240 0
DWIDTH 4 0
BBX 3 13 1 0
BITMAP
20
40
20
00
00
00
80
80
80
80
80
80
80
ENDCHAR
STARTCHAR 1E36
ENCODING 7734
SWIDTH 540 0
DWIDTH 9 0
BBX 7 13 2 -3
BITMAP
80
80
80
80
80
80
80
80
80
80
80
80
7E
ENDCHAR
STARTCHAR 1E37
ENCODING 7735
SWIDTH 240 0
DWIDTH 4 0
BBX 1 14 2 -2
BITMAP
80
80
80
80
80
80
80
80
80
80
00
00
00
80
ENDCHAR
STARTCHAR 1E3A
ENCODING 7738
SWIDTH 540 0
DWIDTH 9 0
BBX 7 15 2 -3
BITMAP
80
80
80
80
80
80
80
80
80
80
80
80
7E
00
3C
ENDCHAR
STARTCHAR 1E3B
ENCODING 7739
SWIDTH 240 0
DWIDTH 4 0
BBX 4 14 0 -2
BITMAP
40
40
40
40
40
40
40
40
40
40
00
00
00
F0
ENDCHAR
STARTCHAR 1E42
ENCODING 7746
SWIDTH 900 0
DWIDTH 15 0
BBX 12 12 2 -3
BITMAP
8010
8010
C030
C050
A090
A090
9110
8910
8A10
8610
8010
8010
ENDCHAR
STARTCHAR 1E43
ENCODING 7747
SWIDTH 1020 0
DWIDTH 17 0
BBX 14 8 2 -3
BITMAP
1870
E588
8204
8204
8204
8204
8204
8204
ENDCHAR
STARTCHAR 1E44
ENCODING 7748
SWIDTH 780 0
DWIDTH 13 0
BBX 9 14 2 0
BITMAP
0800
0000
8000
8080
C080
A080
9080
8880
8880
8480
8280
8180
8180
8080
ENDCHAR
STARTCHAR 1E45
ENCODING 7749
SWIDTH 660 0
DWIDTH 11 0
BBX 7 11 2 0
BITMAP
10
00
00
18
E6
82
82
82
82
82
82
ENDCHAR
STARTCHAR 1E46
ENCODING 7750
SWIDTH 780 0
DWIDTH 13 0
BBX 9 15 2 -3
BITMAP
8000
8080
C080
A080
9080
8880
8880
8480
8280
8180
8180
8080
0000
0000
0800
ENDCHAR
STARTCHAR 1E47
ENCODING 7751
SWIDTH 660 0
DWIDTH 11 0
BBX 7 12 2 -3
BITMAP
18
E6
82
82
82
82
82
82
00
00
00
10
ENDCHAR
STARTCHAR 1E48
ENCODING 7752
SWIDTH 780 0
DWIDTH 13 0
BBX 9 15 2 -3
BITMAP
8000
8080
C080
A080
9080
8880
8880
8480
8280
8180
8180
8080
0000
0000
1E00
ENDCHAR
STARTCHAR 1E49
ENCODING 7753
SWIDTH 660 0
DWIDTH 11 0
BBX 7 12 2 -3
BITMAP
18
E6
82
82
82
82
82
82
00
00
00
7C
ENDCHAR
STARTCHAR 1E4C
ENCODING 7756
SWIDTH 780 0
DWIDTH 13 0
BBX 12 16 1 0
BITMAP
0200
0000
0400
0200
0F00
30C0
4020
8020
8010
8010
8010
8010
8010
8020
4040
3F80
ENDCHAR
STARTCHAR 1E4D
ENCODING 7757
SWIDTH 600 0
DWIDTH 10 0
BBX 8 14 1 0
BITMAP
04
08
10
0C
00
18
66
81
81
81
81
81
82
7C
ENDCHAR
STARTCHAR 1E4E
ENCODING 7758
SWIDTH 780 0
DWIDTH 13 0
BBX 12 16 1 0
BITMAP
0900
0000
0400
0200
0F00
30C0
4020
8020
8010
8010
8010
8010
8010
8020
4040
3F80
ENDCHAR
STARTCHAR 1E4F
ENCODING 7759
SWIDTH 600 0
DWIDTH 10 0
BBX 8 12 1 1
BITMAP
10
0C
00
18
66
81
81
81
81
81
82
7C
ENDCHAR
STARTCHAR 1E50
ENCODING 7760
SWIDTH 780 0
DWIDTH 13 0
BBX 12 16 1 0
BITMAP
0800
0400
0000
0600
0F00
30C0
4020
8020
8010
8010
8010
8010
8010
8020
4040
3F80
ENDCHAR
STARTCHAR 1E51
ENCODING 7761
SWIDTH 600 0
DWIDTH 10 0
BBX 8 14 1 0
BITMAP
20
10
00
18
00
18
66
81
81
81
81
81
82
7C
ENDCHAR
STARTCHAR 1E52
ENCODING 7762
SWIDTH 780 0
DWIDTH 13 0
BBX 12 16 1 0
BITMAP
0200
0000
0000
0600
0F00
30C0
4020
8020
8010
8010
8010
8010
8010
8020
4040
3F80
ENDCHAR
STARTCHAR 1E53
ENCODING 7763
SWIDTH 600 0
DWIDTH 10 0
BBX 8 14 1 0
BITMAP
04
08
00
18
00
18
66
81
81
81
81
81
82
7C
ENDCHAR
STARTCHAR 1E5A
ENCODING 7770
SWIDTH 660 0
DWIDTH 11 0
BBX 9 15 2 -3
BITMAP
FC00
8300
8100
8080
8080
8080
8100
8200
FC00
8200
8100
8080
0000
0000
0800
ENDCHAR
STARTCHAR 1E5B
ENCODING 7771
SWIDTH 360 0
DWIDTH 6 0
BBX 4 12 2 -3
BITMAP
30
C0
80
80
80
80
80
80
00
00
00
80
ENDCHAR
STARTCHAR 1E5E
ENCODING 7774
SWIDTH 660 0
DWIDTH 11 0
BBX 9 15 2 -3
BITMAP
FC00
8300
8100
8080
8080
8080
8100
8200
FC00
8200
8100
8080
0000
0000
3C00
ENDCHAR
STARTCHAR 1E5F
ENCODING 7775
SWIDTH 360 0
DWIDTH 6 0
BBX 6 12 0 -3
BITMAP
0C
70
20
40
40
40
40
40
00
00
00
F0
ENDCHAR
STARTCHAR 1E60
ENCODING 7776
SWIDTH 600 0
DWIDTH 10 0
BBX 8 14 1 0
BITMAP
08
00
3C
C2
80
80
80
40
3C
03
01
01
81
7E
ENDCHAR
STARTCHAR 1E61
ENCODING 7777
SWIDTH 420 0
DWIDTH 7 0
BBX 6 9 1 3
BITMAP
30
C8
80
80
60
1C
04
04
F8
ENDCHAR
STARTCHAR 1E62
ENCODING 7778
SWIDTH 600 0
DWIDTH 10 0
BBX 8 15 1 -3
BITMAP
3C
C2
80
80
80
40
3C
03
01
01
81
42
3C
00
08
ENDCHAR
STARTCHAR 1E63
ENCODING 7779
SWIDTH 420 0
DWIDTH 7 0
BBX 6 12 1 -3
BITMAP
30
C8
80
80
60
1C
04
04
88
70
00
20
ENDCHAR
STARTCHAR 1E64
ENCODING 7780
SWIDTH 600 0
DWIDTH 10 0
BBX 8 16 1 0
BITMAP
08
00
08
00
3C
C2
80
80
80
40
3C
03
01
01
81
7E
ENDCHAR
STARTCHAR 1E65
ENCODING 7781
SWIDTH 420 0
DWIDTH 7 0
BBX 6 12 1 1
BITMAP
08
10
00
30
C8
80
80
60
1C
04
04
F8
ENDCHAR
STARTCHAR 1E66
ENCODING 7782
SWIDTH 600 0
DWIDTH 10 0
BBX 8 14 1 2
BITMAP
04
18
3C
C2
80
80
80
40
3C
03
01
01
81
7E
ENDCHAR
STARTCHAR 1E67
ENCODING 7783
SWIDTH 420 0
DWIDTH 7 0
BBX 6 13 1 0
BITMAP
20
00
30
00
30
C8
80
80
60
1C
04
04
F8
ENDCHAR
STARTCHAR 1E68
ENCODING 7784
SWIDTH 600 0
DWIDTH 10 0
BBX 8 17 1 -3
BITMAP
08
00
3C
C2
80
80
80
40
3C
03
01
01
81
42
3C
00
08
ENDCHAR
STARTCHAR 1E69
ENCODING 7785
SWIDTH 420 0
DWIDTH 7 0
BBX 6 12 1 0
BITMAP
30
C8
80
80
60
1C
04
04
88
70
00
20
ENDCHAR
STARTCHAR 1E6C
ENCODING 7788
SWIDTH 540 0
DWIDTH 9 0
BBX 9 15 0 -3
BITMAP
FF80
0800
0800
0800
0800
0800
0800
0800
0800
0800
0800
0800
0000
0000
0800
ENDCHAR
STARTCHAR 1E6D
ENCODING 7789
SWIDTH 360 0
DWIDTH 6 0
BBX 6 11 0 -2
BITMAP
40
F8
40
40
40
40
40
40
40
24
18
ENDCHAR
STARTCHAR 1E6E
ENCODING 7790
SWIDTH 540 0
DWIDTH 9 0
BBX 9 15 0 -3
BITMAP
FF80
0800
0800
0800
0800
0800
0800
0800
0800
0800
0800
0800
0000
0000
3E00
ENDCHAR
STARTCHAR 1E6F
ENCODING 7791
SWIDTH 360 0
DWIDTH 6 0
BBX 6 13 0 -2
BITMAP
40
F8
40
40
40
40
40
40
40
24
18
00
3C
ENDCHAR
STARTCHAR 1E78
ENCODING 7800
SWIDTH 780 0
DWIDTH 13 0
BBX 9 16 2 0
BITMAP
0400
0000
1A00
0400
0000
8080
8080
8080
8080
8080
8080
8080
8080
8080
8100
7E00
ENDCHAR
STARTCHAR 1E79
ENCODING 7801
SWIDTH 660 0
DWIDTH 11 0
BBX 7 13 2 1
BITMAP
18
24
58
00
00
82
82
82
82
82
82
86
78
ENDCHAR
STARTCHAR 1E7A
ENCODING 7802
SWIDTH 780 0
DWIDTH 13 0
BBX 9 16 2 0
BITMAP
1000
0000
0000
1C00
0000
8080
8080
8080
8080
8080
8080
8080
8080
8080
8100
7E00
ENDCHAR
STARTCHAR 1E7B
ENCODING 7803
SWIDTH 660 0
DWIDTH 11 0
BBX 7 11 2 2
BITMAP
38
00
00
82
82
82
82
82
82
86
78
ENDCHAR
STARTCHAR 1E80
ENCODING 7808
SWIDTH 1080 0
DWIDTH 18 0
BBX 16 14 1 0
BITMAP
0100
0000
0000
8181
8281
8282
4242
4444
4444
2424
2828
2828
1818
1010
ENDCHAR
STARTCHAR 1E81
ENCODING 7809
SWIDTH 780 0
DWIDTH 13 0
BBX 14 12 0 0
BITMAP
0400
0200
0000
8004
8308
8508
4508
4490
4890
2860
3060
1020
ENDCHAR
STARTCHAR 1E82
ENCODING 7810
SWIDTH 1080 0
DWIDTH 18 0
BBX 16 14 1 0
BITMAP
0080
0000
0000
8181
8281
8282
4242
4444
4444
2424
2828
2828
1818
1010
ENDCHAR
STARTCHAR 1E83
ENCODING 7811
SWIDTH 780 0
DWIDTH 13 0
BBX 14 12 0 0
BITMAP
0080
0100
0000
8004
8308
8508
4508
4490
4890
2860
3060
1020
ENDCHAR
STARTCHAR 1E84
ENCODING 7812
SWIDTH 1080 0
DWIDTH 18 0
BBX 16 14 1 0
BITMAP
0240
0000
0000
8181
8281
8282
4242
4444
4444
2424
2828
2828
1818
1010
ENDCHAR
STARTCHAR 1E85
ENCODING 7813
SWIDTH 780 0
DWIDTH 13 0
BBX 14 12 0 0
BITMAP
0480
0000
0000
8004
8308
8508
4508
4490
4890
2860
3060
1020
ENDCHAR
STARTCHAR 1E8E
ENCODING 7822
SWIDTH 600 0
DWIDTH 10 0
BBX 10 11 0 2
BITMAP
8000
80C0
4080
2100
2200
1200
1400
0C00
0800
0800
0800
ENDCHAR
STARTCHAR 1E8F
ENCODING 7823
SWIDTH 480 0
DWIDTH 8 0
BBX 9 12 -1 0
BITMAP
4000
4080
4100
2100
2200
1200
1200
0C00
0400
0800
0800
F000
ENDCHAR
STARTCHAR 1E92
ENCODING 7826
SWIDTH 600 0
DWIDTH 10 0
BBX 9 15 1 -3
BITMAP
FF80
0100
0200
0200
0400
0800
1000
1000
2000
4000
8000
8000
7F00
0000
0800
ENDCHAR
STARTCHAR 1E93
ENCODING 7827
SWIDTH 480 0
DWIDTH 8 0
BBX 6 12 1 -3
BITMAP
FC
04
08
10
20
20
40
80
80
78
00
10
ENDCHAR
STARTCHAR 1E97
ENCODING 7831
SWIDTH 360 0
DWIDTH 6 0
BBX 6 10 0 3
BITMAP
40
F8
40
40
40
40
40
40
40
3C
ENDCHAR
STARTCHAR 1E9E
ENCODING 7838
SWIDTH 720 0
DWIDTH 12 0
BBX 9 12 2 0
BITMAP
1C00
6300
8100
8200
8400
8800
8700
8080
8080
8080
8080
1F00
ENDCHAR
STARTCHAR 1EA0
ENCODING 7840
SWIDTH 660 0
DWIDTH 11 0
BBX 11 15 0 -3
BITMAP
0400
0C00
0A00
1200
1100
1100
2080
2080
5F40
4040
8020
8000
0000
0000
0400
ENDCHAR
STARTCHAR 1EA1
ENCODING 7841
SWIDTH 540 0
DWIDTH 9 0
BBX 7 12 1 -3
BITMAP
38
C4
02
02
3E
C2
82
82
4E
30
00
10
ENDCHAR
STARTCHAR 1EA2
ENCODING 7842
SWIDTH 660 0
DWIDTH 11 0
BBX 11 15 0 0
BITMAP
0200
0200
0000
0400
0C00
0A00
1200
1100
1100
2080
2080
5F40
4040
8020
8000
ENDCHAR
STARTCHAR 1EA3
ENCODING 7843
SWIDTH 540 0
DWIDTH 9 0
BBX 7 13 1 0
BITMAP
30
08
00
00
38
C4
02
02
3E
C2
82
82
7E
ENDCHAR
STARTCHAR 1EA4
ENCODING 7844
SWIDTH 660 0
DWIDTH 11 0
BBX 11 16 0 0
BITMAP
0040
0180
0E00
0000
0400
0C00
0A00
1200
1100
1100
2080
2080
5F40
4040
8020
8000
ENDCHAR
STARTCHAR 1EA5
ENCODING 7845
SWIDTH 540 0
DWIDTH 9 0
BBX 7 13 1 0
BITMAP
02
00
38
00
38
C4
02
02
3E
C2
82
82
7E
ENDCHAR
STARTCHAR 1EA6
ENCODING 7846
SWIDTH 660 0
DWIDTH 11 0
BBX 11 15 0 1
BITMAP
0100
0E00
0000
0400
0C00
0A00
1200
1100
1100
2080
2080
5F40
4040
8020
8000
ENDCHAR
STARTCHAR 1EA7
ENCODING 7847
SWIDTH 540 0
DWIDTH 9 0
BBX 7 13 1 0
BITMAP
08
04
38
00
38
C4
02
02
3E
C2
82
82
7E
ENDCHAR
STARTCHAR 1EA8
ENCODING 7848
SWIDTH 660 0
DWIDTH 11 0
BBX 11 16 0 0
BITMAP
0100
0000
0E00
0000
0400
0C00
0A00
1200
1100
1100
2080
2080
5F40
4040
8020
8000
ENDCHAR
STARTCHAR 1EA9
ENCODING 7849
SWIDTH 540 0
DWIDTH 9 0
BBX 7 13 1 0
BITMAP
04
04
38
00
38
C4
02
02
3E
C2
82
82
7E
ENDCHAR
STARTCHAR 1EAA
ENCODING 7850
SWIDTH 660 0
DWIDTH 11 0
BBX 11 16 0 0
BITMAP
0800
0600
0E00
0000
0400
0C00
0A00
1200
1100
1100
2080
2080
5F40
4040
8020
8000
ENDCHAR
STARTCHAR 1EAB
ENCODING 7851
SWIDTH 540 0
DWIDTH 9 0
BBX 7 13 1 0
BITMAP
74
08
38
00
38
C4
02
02
3E
C2
82
82
7E
ENDCHAR
STARTCHAR 1EAC
ENCODING 7852
SWIDTH 660 0
DWIDTH 11 0
BBX 11 17 0 -3
BITMAP
0E00
0000
0400
0C00
0A00
1200
1100
1100
2080
2080
5F40
4040
8020
8000
0000
0000
0400
ENDCHAR
STARTCHAR 1EAD
ENCODING 7853
SWIDTH 540 0
DWIDTH 9 0
BBX 7 15 1 -3
BITMAP
30
08
00
38
C4
02
02
3E
C2
82
82
4E
30
00
10
ENDCHAR
STARTCHAR 1EAE
ENCODING 7854
SWIDTH 660 0
DWIDTH 11 0
BBX 11 15 0 1
BITMAP
0600
0100
0600
0400
0C00
0A00
1200
1100
1100
2080
2080
5F40
4040
8020
8000
ENDCHAR
STARTCHAR 1EAF
ENCODING 7855
SWIDTH 540 0
DWIDTH 9 0
BBX 7 13 1 0
BITMAP
18
00
28
10
38
C4
02
02
3E
C2
82
82
7E
ENDCHAR
STARTCHAR 1EB0
ENCODING 7856
SWIDTH 660 0
DWIDTH 11 0
BBX 11 16 0 0
BITMAP
0800
0400
0100
0600
0400
0C00
0A00
1200
1100
1100
2080
2080
5F40
4040
8020
8000
ENDCHAR
STARTCHAR 1EB1
ENCODING 7857
SWIDTH 540 0
DWIDTH 9 0
BBX 7 13 1 0
BITMAP
20
10
28
10
38
C4
02
02
3E
C2
82
82
7E
ENDCHAR
STARTCHAR 1EB2
ENCODING 7858
SWIDTH 660 0
DWIDTH 11 0
BBX 11 16 0 0
BITMAP
0200
0200
0100
0600
0400
0C00
0A00
1200
1100
1100
2080
2080
5F40
4040
8020
8000
ENDCHAR
STARTCHAR 1EB3
ENCODING 7859
SWIDTH 540 0
DWIDTH 9 0
BBX 7 12 1 1
BITMAP
10
28
10
38
C4
02
02
3E
C2
82
82
7E
ENDCHAR
STARTCHAR 1EB4
ENCODING 7860
SWIDTH 660 0
DWIDTH 11 0
BBX 11 16 0 0
BITMAP
0800
0600
0100
0600
0400
0C00
0A00
1200
1100
1100
2080
2080
5F40
4040
8020
8000
ENDCHAR
STARTCHAR 1EB5
ENCODING 7861
SWIDTH 540 0
DWIDTH 9 0
BBX 7 13 1 0
BITMAP
74
08
28
10
38
C4
02
02
3E
C2
82
82
7E
ENDCHAR
STARTCHAR 1EB6
ENCODING 7862
SWIDTH 660 0
DWIDTH 11 0
BBX 11 17 0 -3
BITMAP
0100
0600
0400
0C00
0A00
1200
1100
1100
2080
2080
5F40
4040
8020
8000
0000
0000
0400
ENDCHAR
STARTCHAR 1EB7
ENCODING 7863
SWIDTH 540 0
DWIDTH 9 0
BBX 7 15 1 -3
BITMAP
44
28
10
38
C4
02
02
3E
C2
82
82
4E
30
00
10
ENDCHAR
STARTCHAR 1EB8
ENCODING 7864
SWIDTH 660 0
DWIDTH 11 0
BBX 8 15 2 -3
BITMAP
FF
80
80
80
80
80
FC
80
80
80
80
80
7E
00
08
ENDCHAR
STARTCHAR 1EB9
ENCODING 7865
SWIDTH 540 0
DWIDTH 9 0
BBX 8 12 1 -3
BITMAP
18
66
82
81
FF
80
80
80
64
18
00
10
ENDCHAR
STARTCHAR 1EBA
ENCODING 7866
SWIDTH 660 0
DWIDTH 11 0
BBX 8 15 2 0
BITMAP
08
00
00
FF
80
80
80
80
80
FC
80
80
80
80
FE
ENDCHAR
STARTCHAR 1EBB
ENCODING 7867
SWIDTH 540 0
DWIDTH 9 0
BBX 8 13 1 0
BITMAP
18
08
08
00
18
66
82
81
FF
80
80
80
7C
ENDCHAR
STARTCHAR 1EBC
ENCODING 7868
SWIDTH 660 0
DWIDTH 11 0
BBX 8 14 2 0
BITMAP
10
08
FF
80
80
80
80
80
FC
80
80
80
80
FE
ENDCHAR
STARTCHAR 1EBD
ENCODING 7869
SWIDTH 540 0
DWIDTH 9 0
BBX 8 12 1 0
BITMAP
30
0C
00
18
66
82
81
FF
80
80
80
7C
ENDCHAR
STARTCHAR 1EBE
ENCODING 7870
SWIDTH 660 0
DWIDTH 11 0
BBX 8 16 2 0
BITMAP
01
02
18
00
FF
80
80
80
80
80
FC
80
80
80
80
FE
ENDCHAR
STARTCHAR 1EBF
ENCODING 7871
SWIDTH 540 0
DWIDTH 9 0
BBX 8 13 1 0
BITMAP
02
04
3C
00
18
66
82
81
FF
80
80
80
7C
ENDCHAR
STARTCHAR 1EC0
ENCODING 7872
SWIDTH 660 0
DWIDTH 11 0
BBX 8 16 2 0
BITMAP
08
04
18
00
FF
80
80
80
80
80
FC
80
80
80
80
FE
ENDCHAR
STARTCHAR 1EC1
ENCODING 7873
SWIDTH 540 0
DWIDTH 9 0
BBX 8 13 1 0
BITMAP
08
04
3C
00
18
66
82
81
FF
80
80
80
7C
ENDCHAR
STARTCHAR 1EC2
ENCODING 7874
SWIDTH 660 0
DWIDTH 11 0
BBX 8 16 2 0
BITMAP
04
02
18
00
FF
80
80
80
80
80
FC
80
80
80
80
FE
ENDCHAR
STARTCHAR 1EC3
ENCODING 7875
SWIDTH 540 0
DWIDTH 9 0
BBX 8 13 1 0
BITMAP
02
00
3C
00
18
66
82
81
FF
80
80
80
7C
ENDCHAR
STARTCHAR 1EC4
ENCODING 7876
SWIDTH 660 0
DWIDTH 11 0
BBX 8 16 2 0
BITMAP
30
08
18
00
FF
80
80
80
80
80
FC
80
80
80
80
FE
ENDCHAR
STARTCHAR 1EC5
ENCODING 7877
SWIDTH 540 0
DWIDTH 9 0
BBX 8 13 1 0
BITMAP
10
08
3C
00
18
66
82
81
FF
80
80
80
7C
ENDCHAR
STARTCHAR 1EC6
ENCODING 7878
SWIDTH 660 0
DWIDTH 11 0
BBX 8 17 2 -3
BITMAP
38
00
FF
80
80
80
80
80
FC
80
80
80
80
80
7E
00
08
ENDCHAR
STARTCHAR 1EC7
ENCODING 7879
SWIDTH 540 0
DWIDTH 9 0
BBX 8 15 1 -3
BITMAP
18
24
00
18
66
82
81
FF
80
80
80
64
18
00
10
ENDCHAR
STARTCHAR 1EC8
ENCODING 7880
SWIDTH 240 0
DWIDTH 4 0
BBX 2 15 2 0
BITMAP
C0
00
00
80
80
80
80
80
80
80
80
80
80
80
80
ENDCHAR
STARTCHAR 1EC9
ENCODING 7881
SWIDTH 240 0
DWIDTH 4 0
BBX 2 12 1 0
BITMAP
C0
40
40
00
00
80
80
80
80
80
80
80
ENDCHAR
STARTCHAR 1ECA
ENCODING 7882
SWIDTH 240 0
DWIDTH 4 0
BBX 1 15 2 -3
BITMAP
80
80
80
80
80
80
80
80
80
80
80
80
00
00
80
ENDCHAR
STARTCHAR 1ECB
ENCODING 7883
SWIDTH 240 0
DWIDTH 4 0
BBX 1 15 2 -3
BITMAP
80
00
00
00
80
80
80
80
80
80
80
00
00
00
80
ENDCHAR
STARTCHAR 1ECC
ENCODING 7884
SWIDTH 780 0
DWIDTH 13 0
BBX 12 13 1 -3
BITMAP
0F00
30C0
4020
8020
8010
8010
8010
8010
8010
8020
4040
3080
0F00
ENDCHAR
STARTCHAR 1ECD
ENCODING 7885
SWIDTH 600 0
DWIDTH 10 0
BBX 8 12 1 -3
BITMAP
18
66
81
81
81
81
81
82
64
18
00
08
ENDCHAR
STARTCHAR 1ECE
ENCODING 7886
SWIDTH 780 0
DWIDTH 13 0
BBX 12 15 1 0
BITMAP
0200
0000
0000
0F00
30C0
4020
8020
8010
8010
8010
8010
8010
8020
4040
3F80
ENDCHAR
STARTCHAR 1ECF
ENCODING 7887
SWIDTH 600 0
DWIDTH 10 0
BBX 8 13 1 0
BITMAP
18
08
08
00
18
66
81
81
81
81
81
82
7C
ENDCHAR
STARTCHAR 1ED0
ENCODING 7888
SWIDTH 780 0
DWIDTH 13 0
BBX 12 16 1 0
BITMAP
0040
0080
0600
0000
0F00
30C0
4020
8020
8010
8010
8010
8010
8010
8020
4040
3F80
ENDCHAR
STARTCHAR 1ED1
ENCODING 7889
SWIDTH 600 0
DWIDTH 10 0
BBX 8 13 1 0
BITMAP
02
04
3C
00
18
66
81
81
81
81
81
82
7C
ENDCHAR
STARTCHAR 1ED2
ENCODING 7890
SWIDTH 780 0
DWIDTH 13 0
BBX 12 16 1 0
BITMAP
0200
0100
0600
0000
0F00
30C0
4020
8020
8010
8010
8010
8010
8010
8020
4040
3F80
ENDCHAR
STARTCHAR 1ED3
ENCODING 7891
SWIDTH 600 0
DWIDTH 10 0
BBX 8 13 1 0
BITMAP
08
06
3C
00
18
66
81
81
81
81
81
82
7C
ENDCHAR
STARTCHAR 1ED4
ENCODING 7892
SWIDTH 780 0
DWIDTH 13 0
BBX 12 16 1 0
BITMAP
0100
0080
0600
0000
0F00
30C0
4020
8020
8010
8010
8010
8010
8010
8020
4040
3F80
ENDCHAR
STARTCHAR 1ED5
ENCODING 7893
SWIDTH 600 0
DWIDTH 10 0
BBX 8 13 1 0
BITMAP
02
00
3C
00
18
66
81
81
81
81
81
82
7C
ENDCHAR
STARTCHAR 1ED6
ENCODING 7894
SWIDTH 780 0
DWIDTH 13 0
BBX 12 16 1 0
BITMAP
0C00
0200
0600
0000
0F00
30C0
4020
8020
8010
8010
8010
8010
8010
8020
4040
3F80
ENDCHAR
STARTCHAR 1ED7
ENCODING 7895
SWIDTH 600 0
DWIDTH 10 0
BBX 8 13 1 0
BITMAP
18
00
3C
00
18
66
81
81
81
81
81
82
7C
ENDCHAR
STARTCHAR 1ED8
ENCODING 7896
SWIDTH 780 0
DWIDTH 13 0
BBX 12 15 1 -3
BITMAP
0E00
0000
0F00
30C0
4020
8020
8010
8010
8010
8010
8010
8020
4040
3080
0F00
ENDCHAR
STARTCHAR 1ED9
ENCODING 7897
SWIDTH 600 0
DWIDTH 10 0
BBX 8 15 1 -3
BITMAP
18
24
00
18
66
81
81
81
81
81
82
64
18
00
08
ENDCHAR
STARTCHAR 1EDA
ENCODING 7898
SWIDTH 780 0
DWIDTH 13 0
BBX 12 14 1 0
BITMAP
0210
0010
0FA0
3040
4020
8020
8010
8010
8010
8010
8010
8020
4040
3F80
ENDCHAR
STARTCHAR 1EDB
ENCODING 7899
SWIDTH 600 0
DWIDTH 10 0
BBX 8 12 1 0
BITMAP
04
08
01
1E
62
81
81
81
81
81
82
7C
ENDCHAR
STARTCHAR 1EDC
ENCODING 7900
SWIDTH 780 0
DWIDTH 13 0
BBX 12 14 1 0
BITMAP
0410
0010
0FA0
3040
4020
8020
8010
8010
8010
8010
8010
8020
4040
3F80
ENDCHAR
STARTCHAR 1EDD
ENCODING 7901
SWIDTH 600 0
DWIDTH 10 0
BBX 8 12 1 0
BITMAP
20
10
01
1E
62
81
81
81
81
81
82
7C
ENDCHAR
STARTCHAR 1EDE
ENCODING 7902
SWIDTH 780 0
DWIDTH 13 0
BBX 12 15 1 0
BITMAP
0200
0010
0010
0FA0
3040
4020
8020
8010
8010
8010
8010
8010
8020
4040
3F80
ENDCHAR
STARTCHAR 1EDF
ENCODING 7903
SWIDTH 600 0
DWIDTH 10 0
BBX 8 13 1 0
BITMAP
18
08
08
01
1E
62
81
81
81
81
81
82
7C
ENDCHAR
STARTCHAR 1EE0
ENCODING 7904
SWIDTH 780 0
DWIDTH 13 0
BBX 12 14 1 0
BITMAP
0410
0210
0FA0
3040
4020
8020
8010
8010
8010
8010
8010
8020
4040
3F80
ENDCHAR
STARTCHAR 1EE1
ENCODING 7905
SWIDTH 600 0
DWIDTH 10 0
BBX 8 12 1 0
BITMAP
30
0C
01
1E
62
81
81
81
81
81
82
7C
ENDCHAR
STARTCHAR 1EE2
ENCODING 7906
SWIDTH 780 0
DWIDTH 13 0
BBX 12 15 1 -3
BITMAP
0010
0010
0FA0
3040
4020
8020
8010
8010
8010
8010
8010
8020
4040
3080
0F00
ENDCHAR
STARTCHAR 1EE3
ENCODING 7907
SWIDTH 600 0
DWIDTH 10 0
BBX 8 13 1 -2
BITMAP
01
1E
62
81
81
81
81
81
82
64
18
00
08
ENDCHAR
STARTCHAR 1EE4
ENCODING 7908
SWIDTH 780 0
DWIDTH 13 0
BBX 9 14 2 -2
BITMAP
8080
8080
8080
8080
8080
8080
8080
8080
8080
8100
6200
1C00
0000
0800
ENDCHAR
STARTCHAR 1EE5
ENCODING 7909
SWIDTH 660 0
DWIDTH 11 0
BBX 7 11 2 -2
BITMAP
82
82
82
82
82
82
86
48
30
00
10
ENDCHAR
STARTCHAR 1EE6
ENCODING 7910
SWIDTH 780 0
DWIDTH 13 0
BBX 9 15 2 0
BITMAP
0C00
0400
0000
0000
8080
8080
8080
8080
8080
8080
8080
8080
8080
8100
7E00
ENDCHAR
STARTCHAR 1EE7
ENCODING 7911
SWIDTH 660 0
DWIDTH 11 0
BBX 7 13 2 0
BITMAP
30
08
00
00
00
82
82
82
82
82
82
86
78
ENDCHAR
STARTCHAR 1EE8
ENCODING 7912
SWIDTH 780 0
DWIDTH 13 0
BBX 11 14 2 0
BITMAP
0420
0020
0040
8080
8080
8080
8080
8080
8080
8080
8080
8080
8100
7E00
ENDCHAR
STARTCHAR 1EE9
ENCODING 7913
SWIDTH 660 0
DWIDTH 11 0
BBX 8 12 2 0
BITMAP
08
10
01
01
82
82
82
82
82
82
86
78
ENDCHAR
STARTCHAR 1EEA
ENCODING 7914
SWIDTH 780 0
DWIDTH 13 0
BBX 11 14 2 0
BITMAP
1020
0820
0040
8080
8080
8080
8080
8080
8080
8080
8080
8080
8100
7E00
ENDCHAR
STARTCHAR 1EEB
ENCODING 7915
SWIDTH 660 0
DWIDTH 11 0
BBX 8 11 2 1
BITMAP
30
01
01
82
82
82
82
82
82
86
78
ENDCHAR
STARTCHAR 1EEC
ENCODING 7916
SWIDTH 780 0
DWIDTH 13 0
BBX 11 15 2 0
BITMAP
0C00
0420
0020
0040
8080
8080
8080
8080
8080
8080
8080
8080
8080
8100
7E00
ENDCHAR
STARTCHAR 1EED
ENCODING 7917
SWIDTH 660 0
DWIDTH 11 0
BBX 8 13 2 0
BITMAP
30
08
00
01
01
82
82
82
82
82
82
86
78
ENDCHAR
STARTCHAR 1EEE
ENCODING 7918
SWIDTH 780 0
DWIDTH 13 0
BBX 11 14 2 0
BITMAP
3A20
0420
0040
8080
8080
8080
8080
8080
8080
8080
8080
8080
8100
7E00
ENDCHAR
STARTCHAR 1EEF
ENCODING 7919
SWIDTH 660 0
DWIDTH 11 0
BBX 8 12 2 0
BITMAP
24
58
01
01
82
82
82
82
82
82
86
78
ENDCHAR
STARTCHAR 1EF0
ENCODING 7920
SWIDTH 780 0
DWIDTH 13 0
BBX 11 17 2 -3
BITMAP
0020
0020
0040
8080
8080
8080
8080
8080
8080
8080
8080
8080
8100
6200
1C00
0000
0800
ENDCHAR
STARTCHAR 1EF1
ENCODING 7921
SWIDTH 660 0
DWIDTH 11 0
BBX 8 13 2 -2
BITMAP
01
01
82
82
82
82
82
82
86
48
30
00
10
ENDCHAR
STARTCHAR 1EF2
ENCODING 7922
SWIDTH 600 0
DWIDTH 10 0
BBX 10 13 0 0
BITMAP
0800
0000
8000
80C0
4080
2100
2200
1200
1400
0C00
0800
0800
0800
ENDCHAR
STARTCHAR 1EF3
ENCODING 7923
SWIDTH 480 0
DWIDTH 8 0
BBX 9 15 -1 -3
BITMAP
1000
0800
0000
4000
4080
4100
2100
2200
1200
1200
0C00
0400
0800
0800
F000
ENDCHAR
STARTCHAR 1EF4
ENCODING 7924
SWIDTH 600 0
DWIDTH 10 0
BBX 10 15 0 -3
BITMAP
8000
80C0
4080
2100
2200
1200
1400
0C00
0800
0800
0800
0000
0000
0000
0400
ENDCHAR
STARTCHAR 1EF5
ENCODING 7925
SWIDTH 480 0
DWIDTH 8 0
BBX 9 12 -1 -3
BITMAP
4000
4080
4100
2100
2200
1200
1200
0C00
0400
0800
0800
F200
ENDCHAR
STARTCHAR 1EF6
ENCODING 7926
SWIDTH 600 0
DWIDTH 10 0
BBX 10 14 0 0
BITMAP
0400
0000
0000
8000
80C0
4080
2100
2200
1200
1400
0C00
0800
0800
0800
ENDCHAR
STARTCHAR 1EF7
ENCODING 7927
SWIDTH 480 0
DWIDTH 8 0
BBX 9 16 -1 -3
BITMAP
0C00
0400
0400
0000
4000
4080
4100
2100
2200
1200
1200
0C00
0400
0800
0800
F000
ENDCHAR
STARTCHAR 1EF8
ENCODING 7928
SWIDTH 600 0
DWIDTH 10 0
BBX 10 13 0 0
BITMAP
0800
0400
8000
80C0
4080
2100
2200
1200
1400
0C00
0800
0800
0800
ENDCHAR
STARTCHAR 1EF9
ENCODING 7929
SWIDTH 480 0
DWIDTH 8 0
BBX 9 15 -1 -3
BITMAP
1800
0600
0000
4000
4080
4100
2100
2200
1200
1200
0C00
0400
0800
0800
F000
ENDCHAR
STARTCHAR 2007
ENCODING 8199
SWIDTH 660 0
DWIDTH 11 0
BBX 0 0 0 0
BITMAP
ENDCHAR
STARTCHAR 2008
ENCODING 8200
SWIDTH 180 0
DWIDTH 3 0
BBX 0 0 0 0
BITMAP
ENDCHAR
STARTCHAR 2009
ENCODING 8201
SWIDTH 120 0
DWIDTH 2 0
BBX 0 0 0 0
BITMAP
ENDCHAR
STARTCHAR 200A
ENCODING 8202
SWIDTH 60 0
DWIDTH 1 0
BBX 0 0 0 0
BITMAP
ENDCHAR
STARTCHAR 200B
ENCODING 8203
SWIDTH 0 0
DWIDTH 0 0
BBX 0 0 0 0
BITMAP
ENDCHAR
STARTCHAR 2010
ENCODING 8208
SWIDTH 360 0
DWIDTH 6 0
BBX 4 1 1 4
BITMAP
F0
ENDCHAR
STARTCHAR 2012
ENCODING 8210
SWIDTH 660 0
DWIDTH 11 0
BBX 8 1 2 5
BITMAP
FF
ENDCHAR
STARTCHAR 2013
ENCODING 8211
SWIDTH 480 0
DWIDTH 8 0
BBX 8 1 0 4
BITMAP
FF
ENDCHAR
STARTCHAR 2014
ENCODING 8212
SWIDTH 960 0
DWIDTH 16 0
BBX 17 1 0 4
BITMAP
FFFF80
ENDCHAR
STARTCHAR 2015
ENCODING 8213
SWIDTH 960 0
DWIDTH 16 0
BBX 17 1 0 4
BITMAP
FFFF80
ENDCHAR
STARTCHAR 2018
ENCODING 8216
SWIDTH 180 0
DWIDTH 3 0
BBX 1 3 1 9
BITMAP
80
80
80
ENDCHAR
STARTCHAR 2019
ENCODING 8217
SWIDTH 180 0
DWIDTH 3 0
BBX 1 2 1 9
BITMAP
80
80
ENDCHAR
STARTCHAR 201A
ENCODING 8218
SWIDTH 180 0
DWIDTH 3 0
BBX 1 3 1 -2
BITMAP
80
80
80
ENDCHAR
STARTCHAR 201C
ENCODING 8220
SWIDTH 300 0
DWIDTH 5 0
BBX 3 3 1 9
BITMAP
80
A0
A0
ENDCHAR
STARTCHAR 201D
ENCODING 8221
SWIDTH 300 0
DWIDTH 5 0
BBX 3 3 1 9
BITMAP
80
A0
20
ENDCHAR
STARTCHAR 201E
ENCODING 8222
SWIDTH 300 0
DWIDTH 5 0
BBX 3 3 1 -2
BITMAP
A0
A0
A0
ENDCHAR
STARTCHAR 2020
ENCODING 8224
SWIDTH 480 0
DWIDTH 8 0
BBX 6 15 1 -3
BITMAP
10
10
10
10
10
FC
10
10
10
10
10
10
10
10
10
ENDCHAR
STARTCHAR 2021
ENCODING 8225
SWIDTH 480 0
DWIDTH 8 0
BBX 8 15 0 -3
BITMAP
08
08
08
08
08
7E
08
08
08
08
FF
08
08
08
08
ENDCHAR
STARTCHAR 2022
ENCODING 8226
SWIDTH 240 0
DWIDTH 4 0
BBX 2 1 1 4
BITMAP
C0
ENDCHAR
STARTCHAR 2026
ENCODING 8230
SWIDTH 540 0
DWIDTH 9 0
BBX 7 1 1 0
BITMAP
92
ENDCHAR
STARTCHAR 2030
ENCODING 8240
SWIDTH 1140 0
DWIDTH 19 0
BBX 17 12 1 0
BITMAP
604000
908000
890000
890000
8A0000
940000
65E780
0A2880
122880
122880
222880
01E700
ENDCHAR
STARTCHAR 2032
ENCODING 8242
SWIDTH 180 0
DWIDTH 3 0
BBX 1 5 1 7
BITMAP
80
80
80
80
80
ENDCHAR
STARTCHAR 2033
ENCODING 8243
SWIDTH 300 0
DWIDTH 5 0
BBX 3 5 1 7
BITMAP
80
A0
A0
A0
80
ENDCHAR
STARTCHAR 2039
ENCODING 8249
SWIDTH 240 0
DWIDTH 4 0
BBX 3 5 1 2
BITMAP
C0
80
80
40
20
ENDCHAR
STARTCHAR 203A
ENCODING 8250
SWIDTH 240 0
DWIDTH 4 0
BBX 2 5 1 1
BITMAP
80
40
40
40
80
ENDCHAR
STARTCHAR 2044
ENCODING 8260
SWIDTH 120 0
DWIDTH 2 0
BBX 7 10 -2 1
BITMAP
02
04
08
08
10
20
20
40
80
80
ENDCHAR
STARTCHAR 2052
ENCODING 8274
SWIDTH 420 0
DWIDTH 7 0
BBX 4 12 2 0
BITMAP
80
10
20
20
20
40
40
40
80
80
80
10
ENDCHAR
STARTCHAR 2070
ENCODING 8304
SWIDTH 420 0
DWIDTH 7 0
BBX 5 7 1 5
BITMAP
F8
88
88
88
88
88
70
ENDCHAR
STARTCHAR 2074
ENCODING 8308
SWIDTH 420 0
DWIDTH 7 0
BBX 6 5 1 6
BITMAP
60
80
90
FC
10
ENDCHAR
STARTCHAR 2075
ENCODING 8309
SWIDTH 420 0
DWIDTH 7 0
BBX 5 7 1 5
BITMAP
70
80
80
78
08
08
70
ENDCHAR
STARTCHAR 2076
ENCODING 8310
SWIDTH 420 0
DWIDTH 7 0
BBX 5 7 1 5
BITMAP
70
80
80
F8
88
88
70
ENDCHAR
STARTCHAR 2077
ENCODING 8311
SWIDTH 420 0
DWIDTH 7 0
BBX 4 6 2 5
BITMAP
F0
10
20
20
40
40
ENDCHAR
STARTCHAR 2078
ENCODING 8312
SWIDTH 420 0
DWIDTH 7 0
BBX 6 7 1 5
BITMAP
F8
88
88
F8
84
88
70
ENDCHAR
STARTCHAR 2079
ENCODING 8313
SWIDTH 420 0
DWIDTH 7 0
BBX 5 7 1 5
BITMAP
F8
88
88
78
08
08
70
ENDCHAR
STARTCHAR 2080
ENCODING 8320
SWIDTH 420 0
DWIDTH 7 0
BBX 5 7 1 -2
BITMAP
F8
88
88
88
88
88
70
ENDCHAR
STARTCHAR 2081
ENCODING 8321
SWIDTH 420 0
DWIDTH 7 0
BBX 5 7 1 -2
BITMAP
20
20
20
20
20
20
F8
ENDCHAR
STARTCHAR 2082
ENCODING 8322
SWIDTH 420 0
DWIDTH 7 0
BBX 5 7 1 -2
BITMAP
70
08
10
10
60
80
F8
ENDCHAR
STARTCHAR 2083
ENCODING 8323
SWIDTH 420 0
DWIDTH 7 0
BBX 4 7 2 -2
BITMAP
E0
60
40
30
10
10
E0
ENDCHAR
STARTCHAR 2084
ENCODING 8324
SWIDTH 420 0
DWIDTH 7 0
BBX 6 5 1 -1
BITMAP
60
80
80
FC
10
ENDCHAR
STARTCHAR 2085
ENCODING 8325
SWIDTH 420 0
DWIDTH 7 0
BBX 5 7 1 -2
BITMAP
70
80
80
78
08
08
70
ENDCHAR
STARTCHAR 2086
ENCODING 8326
SWIDTH 420 0
DWIDTH 7 0
BBX 5 7 1 -2
BITMAP
F0
80
80
F8
88
88
70
ENDCHAR
STARTCHAR 2087
ENCODING 8327
SWIDTH 420 0
DWIDTH 7 0
BBX 4 6 2 -2
BITMAP
F0
10
20
20
40
40
ENDCHAR
STARTCHAR 2088
ENCODING 8328
SWIDTH 420 0
DWIDTH 7 0
BBX 6 7 1 -2
BITMAP
F8
88
88
F8
84
88
70
ENDCHAR
STARTCHAR 2089
ENCODING 8329
SWIDTH 420 0
DWIDTH 7 0
BBX 5 7 1 -2
BITMAP
F0
88
88
58
28
08
70
ENDCHAR
STARTCHAR 20A1
ENCODING 8353
SWIDTH 660 0
DWIDTH 11 0
BBX 10 16 1 -2
BITMAP
0200
0480
0F00
35C0
4500
8900
8A00
8A00
8A00
9200
9400
9400
6400
1480
2B00
2000
ENDCHAR
STARTCHAR 20A3
ENCODING 8355
SWIDTH 600 0
DWIDTH 10 0
BBX 9 12 1 0
BITMAP
7F80
4000
4000
4000
4000
4000
7F00
4000
4000
F800
4000
4000
ENDCHAR
STARTCHAR 20A4
ENCODING 8356
SWIDTH 600 0
DWIDTH 10 0
BBX 8 12 1 0
BITMAP
0E
31
40
40
40
FC
40
FC
40
40
40
FF
ENDCHAR
STARTCHAR 20A6
ENCODING 8358
SWIDTH 840 0
DWIDTH 14 0
BBX 12 12 1 0
BITMAP
4020
6020
6020
5020
4820
F7F0
4220
FFF0
4120
40A0
4060
4020
ENDCHAR
STARTCHAR 20A7
ENCODING 8359
SWIDTH 1560 0
DWIDTH 26 0
BBX 23 12 2 0
BITMAP
FC0000
830000
811000
80BE1C
809060
809040
811040
821030
FC100E
801002
801002
800F3E
ENDCHAR
STARTCHAR 20A9
ENCODING 8361
SWIDTH 1080 0
DWIDTH 18 0
BBX 17 12 1 0
BITMAP
008000
818080
818100
824100
424200
FFFF00
442200
BFFD00
241400
281400
181800
100800
ENDCHAR
STARTCHAR 20AB
ENCODING 8363
SWIDTH 660 0
DWIDTH 11 0
BBX 10 13 1 -1
BITMAP
0FC0
0100
1900
6700
8100
8100
8100
8100
8100
8300
6400
1800
7E00
ENDCHAR
STARTCHAR 20AC
ENCODING 8364
SWIDTH 780 0
DWIDTH 13 0
BBX 11 12 1 0
BITMAP
0380
1C60
2000
4000
4000
FE00
4000
FE00
4000
2000
1000
0FC0
ENDCHAR
STARTCHAR 20AD
ENCODING 8365
SWIDTH 540 0
DWIDTH 9 0
BBX 8 12 1 0
BITMAP
41
42
44
48
50
40
FC
50
48
44
42
41
ENDCHAR
STARTCHAR 20AE
ENCODING 8366
SWIDTH 600 0
DWIDTH 10 0
BBX 9 12 1 0
BITMAP
FF80
0800
0800
0900
0E00
0800
7A00
0C00
3800
0800
0800
0800
ENDCHAR
STARTCHAR 20B1
ENCODING 8369
SWIDTH 780 0
DWIDTH 13 0
BBX 11 12 1 0
BITMAP
7E00
4180
4040
FFE0
4040
FFE0
4080
4100
7E00
4000
4000
4000
ENDCHAR
STARTCHAR 20B2
ENCODING 8370
SWIDTH 720 0
DWIDTH 12 0
BBX 10 16 1 -2
BITMAP
0400
0400
0F00
34C0
4400
8400
8400
8400
8400
8440
8440
8440
4400
3480
0F00
0400
ENDCHAR
STARTCHAR 20B4
ENCODING 8372
SWIDTH 780 0
DWIDTH 13 0
BBX 9 12 2 0
BITMAP
1C00
6300
0080
0080
0000
7F80
0000
7F80
8000
8000
4080
3F00
ENDCHAR
STARTCHAR 20B5
ENCODING 8373
SWIDTH 660 0
DWIDTH 11 0
BBX 10 16 1 -2
BITMAP
0400
0400
0F00
34C0
4400
8400
8400
8400
8400
8400
8400
8400
4400
3480
0F00
0400
ENDCHAR
STARTCHAR 20B8
ENCODING 8376
SWIDTH 660 0
DWIDTH 11 0
BBX 9 11 1 0
BITMAP
FF80
0000
0000
7F00
0800
0800
0800
0800
0800
0800
0800
ENDCHAR
STARTCHAR 20B9
ENCODING 8377
SWIDTH 660 0
DWIDTH 11 0
BBX 11 12 0 0
BITMAP
FFE0
0100
0080
7FC0
0080
0080
0100
3E00
0200
0100
0100
0080
ENDCHAR
STARTCHAR 20BA
ENCODING 8378
SWIDTH 660 0
DWIDTH 11 0
BBX 10 12 0 0
BITMAP
2000
2000
2200
2C00
3200
EC00
3000
6040
2040
2080
2080
3F00
ENDCHAR
STARTCHAR 20BC
ENCODING 8380
SWIDTH 900 0
DWIDTH 15 0
BBX 11 13 2 1
BITMAP
0400
0E00
3580
4440
8420
8420
8420
8420
8420
8420
8020
8020
8000
ENDCHAR
STARTCHAR 20BD
ENCODING 8381
SWIDTH 660 0
DWIDTH 11 0
BBX 10 12 1 0
BITMAP
7E00
4180
4040
4040
4040
4040
4080
4100
7E00
F800
4000
4000
ENDCHAR
STARTCHAR 2113
ENCODING 8467
SWIDTH 420 0
DWIDTH 7 0
BBX 6 12 1 0
BITMAP
08
34
24
44
48
50
50
60
80
80
84
78
ENDCHAR
STARTCHAR 2116
ENCODING 8470
SWIDTH 1140 0
DWIDTH 19 0
BBX 17 12 2 0
BITMAP
800600
809900
C09080
A09080
909100
888E00
888000
848600
828000
818000
818000
808000
ENDCHAR
STARTCHAR 2122
ENCODING 8482
SWIDTH 960 0
DWIDTH 16 0
BBX 15 7 0 5
BITMAP
FC02
2302
228E
228A
2252
2222
0002
ENDCHAR
STARTCHAR 2126
ENCODING 8486
SWIDTH 900 0
DWIDTH 15 0
BBX 13 12 1 0
BITMAP
0700
38C0
4020
4010
8010
8008
8008
8010
8010
4010
2020
F078
ENDCHAR
STARTCHAR 212A
ENCODING 8490
SWIDTH 660 0
DWIDTH 11 0
BBX 9 12 2 0
BITMAP
8080
8100
8200
8400
8800
9000
B000
C800
8400
8200
8100
8080
ENDCHAR
STARTCHAR 212B
ENCODING 8491
SWIDTH 660 0
DWIDTH 11 0
BBX 11 16 0 0
BITMAP
0E00
0A00
0A00
0400
0400
0C00
0A00
1200
1100
1100
2080
2080
5F40
4040
8020
8000
ENDCHAR
STARTCHAR 212E
ENCODING 8494
SWIDTH 900 0
DWIDTH 15 0
BBX 13 12 1 0
BITMAP
0700
18E0
6010
4010
C018
C018
FFE0
C000
4000
4000
2020
1FC0
ENDCHAR
STARTCHAR 2153
ENCODING 8531
SWIDTH 1020 0
DWIDTH 17 0
BBX 14 12 2 0
BITMAP
C020
4040
4080
4080
4100
4238
0408
E410
0808
1004
1004
0078
ENDCHAR
STARTCHAR 2154
ENCODING 8532
SWIDTH 1020 0
DWIDTH 17 0
BBX 15 12 1 0
BITMAP
7010
0820
0840
1040
2080
411C
8204
7208
0404
0802
0802
003C
ENDCHAR
STARTCHAR 215B
ENCODING 8539
SWIDTH 1020 0
DWIDTH 17 0
BBX 14 12 2 0
BITMAP
C020
4040
4080
4080
4100
4278
0484
E484
0878
10C4
1084
007C
ENDCHAR
STARTCHAR 215C
ENCODING 8540
SWIDTH 1020 0
DWIDTH 17 0
BBX 15 12 1 0
BITMAP
F810
1020
2040
2040
1880
093C
0A42
7242
043C
0862
0842
003E
ENDCHAR
STARTCHAR 215D
ENCODING 8541
SWIDTH 1020 0
DWIDTH 17 0
BBX 15 12 1 0
BITMAP
7810
8020
8040
C040
1880
093C
0A42
7242
043C
0862
0842
003E
ENDCHAR
STARTCHAR 215E
ENCODING 8542
SWIDTH 1020 0
DWIDTH 17 0
BBX 15 12 1 0
BITMAP
FC10
0820
1040
1040
2080
213C
0242
0242
043C
0862
0842
003E
ENDCHAR
STARTCHAR 2190
ENCODING 8592
SWIDTH 600 0
DWIDTH 10 0
BBX 7 4 2 3
BITMAP
C0
FE
80
40
ENDCHAR
STARTCHAR 2191
ENCODING 8593
SWIDTH 600 0
DWIDTH 10 0
BBX 4 5 3 2
BITMAP
F0
40
40
40
40
ENDCHAR
STARTCHAR 2192
ENCODING 8594
SWIDTH 600 0
DWIDTH 10 0
BBX 7 3 1 3
BITMAP
04
FE
04
ENDCHAR
STARTCHAR 2193
ENCODING 8595
SWIDTH 600 0
DWIDTH 10 0
BBX 5 6 2 2
BITMAP
20
20
20
A0
48
30
ENDCHAR
STARTCHAR 2194
ENCODING 8596
SWIDTH 600 0
DWIDTH 10 0
BBX 8 5 1 2
BITMAP
42
82
FF
82
42
ENDCHAR
STARTCHAR 2195
ENCODING 8597
SWIDTH 600 0
DWIDTH 10 0
BBX 4 9 3 1
BITMAP
60
D0
40
40
40
40
40
90
60
ENDCHAR
STARTCHAR 2196
ENCODING 8598
SWIDTH 600 0
DWIDTH 10 0
BBX 6 6 2 2
BITMAP
08
70
A0
90
88
04
ENDCHAR
STARTCHAR 2197
ENCODING 8599
SWIDTH 600 0
DWIDTH 10 0
BBX 5 5 3 2
BITMAP
70
28
48
88
80
ENDCHAR
STARTCHAR 2198
ENCODING 8600
SWIDTH 600 0
DWIDTH 10 0
BBX 5 5 3 2
BITMAP
80
48
28
10
70
ENDCHAR
STARTCHAR 2199
ENCODING 8601
SWIDTH 600 0
DWIDTH 10 0
BBX 5 5 2 2
BITMAP
08
90
A0
C0
70
ENDCHAR
STARTCHAR 2202
ENCODING 8706
SWIDTH 660 0
DWIDTH 11 0
BBX 8 12 2 0
BITMAP
78
04
02
01
01
7D
83
83
81
82
82
7C
ENDCHAR
STARTCHAR 2205
ENCODING 8709
SWIDTH 540 0
DWIDTH 9 0
BBX 7 7 1 2
BITMAP
10
6E
8A
92
A2
44
B8
ENDCHAR
STARTCHAR 2206
ENCODING 8710
SWIDTH 660 0
DWIDTH 11 0
BBX 11 12 0 0
BITMAP
0400
0C00
0A00
1200
1100
1100
2080
2080
4040
4040
8020
FFE0
ENDCHAR
STARTCHAR 220F
ENCODING 8719
SWIDTH 780 0
DWIDTH 13 0
BBX 9 15 2 -3
BITMAP
FF80
8080
8080
8080
8080
8080
8080
8080
8080
8080
8080
8080
8080
8080
8000
ENDCHAR
STARTCHAR 2211
ENCODING 8721
SWIDTH 600 0
DWIDTH 10 0
BBX 9 15 1 -3
BITMAP
FF80
8000
4000
2000
1000
1000
0800
0400
0400
0800
1000
2000
4000
8000
FF00
ENDCHAR
STARTCHAR 2212
ENCODING 8722
SWIDTH 540 0
DWIDTH 9 0
BBX 5 1 2 5
BITMAP
F8
ENDCHAR
STARTCHAR 2215
ENCODING 8725
SWIDTH 300 0
DWIDTH 5 0
BBX 5 14 0 -1
BITMAP
08
08
10
10
10
20
20
20
40
40
80
80
80
80
ENDCHAR
STARTCHAR 2219
ENCODING 8729
SWIDTH 240 0
DWIDTH 4 0
BBX 0 0 2 5
BITMAP
ENDCHAR
STARTCHAR 221A
ENCODING 8730
SWIDTH 780 0
DWIDTH 13 0
BBX 11 15 2 -3
BITMAP
0020
0040
0040
0080
0080
0080
C100
4100
2100
2200
2200
1200
1400
0C00
0400
ENDCHAR
STARTCHAR 221E
ENCODING 8734
SWIDTH 900 0
DWIDTH 15 0
BBX 13 6 1 3
BITMAP
3070
CD88
8608
8208
8508
78F0
ENDCHAR
STARTCHAR 222B
ENCODING 8747
SWIDTH 300 0
DWIDTH 5 0
BBX 6 15 0 -3
BITMAP
1C
20
20
20
20
20
20
20
20
20
20
20
20
20
E0
ENDCHAR
STARTCHAR 2248
ENCODING 8776
SWIDTH 540 0
DWIDTH 9 0
BBX 7 6 1 3
BITMAP
60
92
0C
00
E0
9E
ENDCHAR
STARTCHAR 2260
ENCODING 8800
SWIDTH 540 0
DWIDTH 9 0
BBX 7 6 1 3
BITMAP
0C
FE
10
10
20
7C
ENDCHAR
STARTCHAR 2264
ENCODING 8804
SWIDTH 540 0
DWIDTH 9 0
BBX 7 9 1 0
BITMAP
02
0C
70
80
70
0C
00
00
7C
ENDCHAR
STARTCHAR 2265
ENCODING 8805
SWIDTH 540 0
DWIDTH 9 0
BBX 7 9 1 0
BITMAP
80
70
0C
02
1C
60
00
00
7C
ENDCHAR
STARTCHAR 25A0
ENCODING 9632
SWIDTH 600 0
DWIDTH 10 0
BBX 6 7 2 1
BITMAP
FC
FC
FC
FC
FC
FC
FC
ENDCHAR
STARTCHAR 25A1
ENCODING 9633
SWIDTH 600 0
DWIDTH 10 0
BBX 6 7 2 1
BITMAP
FC
84
84
84
84
84
FC
ENDCHAR
STARTCHAR 25B2
ENCODING 9650
SWIDTH 600 0
DWIDTH 10 0
BBX 6 6 2 2
BITMAP
30
30
78
78
FC
FC
ENDCHAR
STARTCHAR 25B3
ENCODING 9651
SWIDTH 600 0
DWIDTH 10 0
BBX 7 6 1 2
BITMAP
18
28
24
44
42
FE
ENDCHAR
STARTCHAR 25B6
ENCODING 9654
SWIDTH 600 0
DWIDTH 10 0
BBX 7 7 2 1
BITMAP
80
E0
F8
FE
F8
E0
80
ENDCHAR
STARTCHAR 25B7
ENCODING 9655
SWIDTH 600 0
DWIDTH 10 0
BBX 7 7 2 1
BITMAP
80
E0
98
86
8C
B0
C0
ENDCHAR
STARTCHAR 25BC
ENCODING 9660
SWIDTH 600 0
DWIDTH 10 0
BBX 6 7 2 1
BITMAP
FC
FC
78
78
30
30
20
ENDCHAR
STARTCHAR 25BD
ENCODING 9661
SWIDTH 600 0
DWIDTH 10 0
BBX 7 7 1 1
BITMAP
FE
42
44
24
28
18
10
ENDCHAR
STARTCHAR 25C0
ENCODING 9664
SWIDTH 600 0
DWIDTH 10 0
BBX 7 7 1 1
BITMAP
02
0E
3E
FE
3E
0E
02
ENDCHAR
STARTCHAR 25C1
ENCODING 9665
SWIDTH 600 0
DWIDTH 10 0
BBX 7 7 1 1
BITMAP
02
0E
32
C2
62
1A
06
ENDCHAR
STARTCHAR 25C6
ENCODING 9670
SWIDTH 600 0
DWIDTH 10 0
BBX 9 9 0 0
BITMAP
0800
1C00
3E00
7F00
FF80
7F80
3F00
1E00
0C00
ENDCHAR
STARTCHAR 25C7
ENCODING 9671
SWIDTH 600 0
DWIDTH 10 0
BBX 9 9 0 0
BITMAP
0800
1400
2200
4100
8080
4080
2100
1200
0C00
ENDCHAR
STARTCHAR 25CA
ENCODING 9674
SWIDTH 480 0
DWIDTH 8 0
BBX 6 9 1 1
BITMAP
10
70
48
84
84
84
48
50
30
ENDCHAR
STARTCHAR 27E8
ENCODING 10216
SWIDTH 300 0
DWIDTH 5 0
BBX 3 15 1 -3
BITMAP
20
40
40
40
80
80
80
80
80
80
80
40
40
40
20
ENDCHAR
STARTCHAR 27E9
ENCODING 10217
SWIDTH 300 0
DWIDTH 5 0
BBX 3 15 1 -3
BITMAP
80
80
80
40
40
40
20
20
20
40
40
40
80
80
80
ENDCHAR
STARTCHAR A78B
ENCODING 42891
SWIDTH 180 0
DWIDTH 3 0
BBX 1 5 1 6
BITMAP
80
80
80
80
80
ENDCHAR
STARTCHAR A78C
ENCODING 42892
SWIDTH 180 0
DWIDTH 3 0
BBX 1 4 1 6
BITMAP
80
80
80
80
ENDCHAR
STARTCHAR FB01
ENCODING 64257
SWIDTH 540 0
DWIDTH 9 0
BBX 8 11 0 0
BITMAP
39
40
40
F8
42
42
42
42
42
42
42
ENDCHAR
STARTCHAR FB02
ENCODING 64258
SWIDTH 540 0
DWIDTH 9 0
BBX 7 11 0 0
BITMAP
38
42
42
FA
42
42
42
42
42
42
42
ENDCHAR
ENDFONT
